<svg width="106" height="96" viewBox="0 0 106 96" fill="none" xmlns="http://www.w3.org/2000/svg">
<g filter="url(#filter0_dii_3_237)">
<path d="M4.36824 51.9281C2.27955 48.252 2.27955 43.748 4.36824 40.0719L22.5501 8.07188C24.6826 4.31862 28.6667 2 32.9835 2L69.0165 2C73.3332 2 77.3174 4.31862 79.4499 8.07188L97.6317 40.0719C99.7204 43.748 99.7204 48.252 97.6318 51.9281L79.4499 83.9281C77.3174 87.6814 73.3333 90 69.0165 90L32.9835 90C28.6667 90 24.6826 87.6814 22.5501 83.9281L4.36824 51.9281Z" fill="#221B11"/>
<path d="M4.47693 51.8664C2.40999 48.2286 2.40999 43.7714 4.47693 40.1336L22.6587 8.13364C24.7691 4.41946 28.7117 2.125 32.9835 2.125L69.0165 2.125C73.2883 2.125 77.2309 4.41946 79.3413 8.13363L97.5231 40.1336C99.59 43.7714 99.59 48.2285 97.5231 51.8664L79.3413 83.8664C77.2309 87.5805 73.2883 89.875 69.0165 89.875L32.9835 89.875C28.7117 89.875 24.7691 87.5805 22.6587 83.8664L4.47693 51.8664Z" stroke="#403522" stroke-width="0.25"/>
</g>
<g clip-path="url(#clip0_3_237)">
<g filter="url(#filter1_ii_3_237)">
<path d="M74.9879 22.0198C74.9759 22.0037 74.9558 21.9957 74.9398 21.9997C74.6352 22.0398 74.4107 22.3364 74.2464 22.5529C74.1542 22.6851 73.8736 23.086 73.6812 23.1742C73.6732 23.1782 73.6651 23.1862 73.6571 23.1942C73.4567 23.2383 73.1601 23.4227 72.8474 23.6311C72.7673 23.6832 72.6751 23.7433 72.635 23.7674C72.4346 23.7714 72.1219 23.9879 71.7451 24.2564C71.6209 24.3446 71.5046 24.4288 71.4405 24.4608C71.2641 24.4729 70.9635 24.6092 70.5587 24.8136C70.5026 24.8416 70.4545 24.8657 70.4304 24.8777C70.2099 24.9779 69.9975 25.0902 69.7891 25.1944C69.6327 25.2745 69.4724 25.3587 69.3161 25.4349C69.0676 25.3347 68.6186 25.6233 68.1817 25.9359C68.1136 25.984 68.0575 26.0241 68.0134 26.0522C67.825 26.1684 67.5925 26.3287 67.348 26.5011C67.0714 26.6975 66.7828 26.8979 66.5623 27.0262C66.1495 27.2667 65.9932 27.3148 65.6164 27.4431L65.5522 27.4631C65.5442 27.4631 65.5362 27.4591 65.5242 27.4591C65.3037 27.4471 64.975 27.8158 64.6584 28.1966C64.5983 28.2648 64.5542 28.3209 64.5261 28.3489C64.1493 28.7538 63.8647 29.2468 63.5841 29.7238C63.3837 30.0645 63.1793 30.4133 62.9428 30.7299C62.8065 30.9103 62.6743 31.0907 62.538 31.275C62.089 31.8803 61.6241 32.5096 61.135 33.0708C60.7663 33.5117 60.3614 33.9166 59.9686 34.3094C59.8444 34.4336 59.7321 34.594 59.6119 34.7663C59.4315 35.0309 59.2391 35.3034 59.0146 35.4117C59.0106 35.4077 59.0066 35.4037 59.0026 35.3996C58.8783 35.2994 58.6419 35.3596 58.4815 35.4117C57.8041 35.6201 57.1668 35.9488 56.5495 36.2695C56.2729 36.4138 55.9883 36.5581 55.7077 36.6903C55.3951 36.8346 55.1506 37.015 54.89 37.2074C54.7658 37.2996 54.6335 37.3958 54.4932 37.492C54.3649 37.5802 54.2126 37.6163 54.0483 37.6564C53.9601 37.6804 53.8679 37.7004 53.7797 37.7325C53.6114 37.7846 53.4831 37.8688 53.3508 37.957C53.2947 37.9931 53.2346 38.0331 53.1705 38.0732C53.1103 38.0572 53.0462 38.0492 52.9821 38.0412C52.954 38.0371 52.93 38.0331 52.9019 38.0331H52.8979C52.7456 37.6483 52.5411 37.2876 52.2445 36.8827C52.2125 36.8386 52.1884 36.7785 52.1644 36.7184C52.1403 36.6623 52.1163 36.6022 52.0842 36.5541L52.0802 36.55C51.984 36.4418 51.7796 36.3657 51.7355 36.3496C51.6753 36.3296 51.5872 36.3095 51.495 36.3055C51.491 36.2655 51.491 36.2214 51.495 36.1813C51.5912 36.2093 51.6914 36.2334 51.7956 36.2334C52.0762 36.2214 52.3207 36.057 52.4129 35.8085C52.4169 35.8005 52.4169 35.7925 52.4169 35.7845C52.469 35.7203 52.5091 35.6482 52.5291 35.564C52.6734 35.067 52.4249 34.59 51.8237 34.2172C51.8196 34.2132 51.7315 34.1611 51.6232 34.1611C51.6112 34.1611 51.5992 34.1611 51.5912 34.1651C51.5832 33.9286 51.7876 33.632 52.004 33.3834C52.1002 33.3955 52.2044 33.3955 52.2966 33.3955C52.3247 33.3955 52.3487 33.3714 52.3487 33.3434C52.3487 33.3153 52.3247 33.2913 52.2966 33.2913C52.2325 33.2913 52.1604 33.2913 52.0922 33.2872C52.1203 33.2552 52.1483 33.2271 52.1764 33.1991H52.1804C52.1844 33.1991 52.1884 33.1991 52.1924 33.1991C52.2566 33.183 52.3287 33.191 52.4009 33.1951C52.4369 33.1991 52.477 33.1991 52.5131 33.1991C52.5411 33.1991 52.5652 33.175 52.5652 33.147C52.5652 33.1189 52.5411 33.0948 52.5131 33.0948C52.481 33.0948 52.4449 33.0908 52.4089 33.0908C52.3688 33.0868 52.3287 33.0828 52.2886 33.0828C52.3006 33.0708 52.3087 33.0628 52.3207 33.0508C52.3327 33.0387 52.3407 33.0307 52.3528 33.0187C52.3608 33.0227 52.3688 33.0267 52.3808 33.0267C52.3848 33.0267 52.3848 33.0267 52.3888 33.0267C52.4449 33.0187 52.5051 33.0227 52.5652 33.0227C52.5973 33.0227 52.6293 33.0267 52.6614 33.0267C52.6895 33.0267 52.7135 33.0027 52.7135 32.9746C52.7135 32.9465 52.6895 32.9225 52.6614 32.9225C52.6293 32.9225 52.6013 32.9225 52.5692 32.9185C52.5331 32.9185 52.493 32.9145 52.453 32.9145C52.493 32.8704 52.5371 32.8303 52.5772 32.7862C52.5973 32.7902 52.6213 32.7902 52.6414 32.7942C52.6895 32.8022 52.7376 32.8103 52.7857 32.8103C52.8177 32.8103 52.8538 32.8062 52.8859 32.7982C52.9139 32.7902 52.93 32.7621 52.9219 32.7341C52.9139 32.706 52.8859 32.69 52.8578 32.698C52.8017 32.714 52.7416 32.706 52.6734 32.694C52.7055 32.6619 52.7376 32.6339 52.7656 32.6018L52.7696 32.5978C52.7736 32.5978 52.7776 32.5978 52.7776 32.5978H52.7816C52.8338 32.5938 52.8859 32.5898 52.934 32.5898C53.0141 32.5898 53.0943 32.5858 53.1705 32.5697C53.1985 32.5617 53.2186 32.5337 53.2105 32.5056C53.2025 32.4776 53.1745 32.4575 53.1464 32.4655C53.0783 32.4816 53.0061 32.4816 52.93 32.4816C52.9139 32.4816 52.8939 32.4816 52.8738 32.4816C52.934 32.4214 52.9941 32.3613 53.0542 32.3012C53.0582 32.3012 53.0582 32.3012 53.0622 32.3012H53.0662C53.1825 32.2892 53.3027 32.2892 53.419 32.2892C53.447 32.2892 53.4711 32.2651 53.4711 32.2371C53.4711 32.209 53.447 32.1849 53.419 32.1849C53.3348 32.1849 53.2466 32.1849 53.1624 32.189C53.1905 32.1569 53.2186 32.1288 53.2506 32.0968C53.3508 32.0847 53.451 32.0847 53.5472 32.0968C53.5512 32.0968 53.5512 32.0968 53.5553 32.0968C53.5833 32.0968 53.6034 32.0767 53.6074 32.0487C53.6114 32.0206 53.5913 31.9925 53.5593 31.9885C53.4911 31.9805 53.419 31.9765 53.3508 31.9805C53.3909 31.9364 53.427 31.8883 53.4671 31.8442H53.7557C53.7837 31.8442 53.8078 31.8202 53.8078 31.7921C53.8078 31.7641 53.7837 31.74 53.7557 31.74H53.5593C53.5913 31.7039 53.6234 31.6679 53.6595 31.6318C53.6635 31.6358 53.6715 31.6358 53.6795 31.6358C53.7837 31.6358 53.8759 31.6358 53.9641 31.6478C53.9681 31.6478 53.9681 31.6478 53.9721 31.6478C54.0002 31.6478 54.0202 31.6278 54.0242 31.6037C54.0282 31.5757 54.0082 31.5476 53.9801 31.5436C53.908 31.5316 53.8399 31.5316 53.7637 31.5316C53.7877 31.5075 53.8118 31.4875 53.8358 31.4634C53.8439 31.4715 53.8559 31.4755 53.8679 31.4755H54.1084C54.1365 31.4755 54.1605 31.4514 54.1605 31.4234C54.1605 31.3953 54.1365 31.3713 54.1084 31.3713H53.9401C53.9882 31.3312 54.0363 31.2911 54.0844 31.251C54.1285 31.251 54.1725 31.255 54.2126 31.259C54.2607 31.263 54.3048 31.267 54.3529 31.267C54.381 31.267 54.405 31.243 54.405 31.2149C54.405 31.1869 54.381 31.1628 54.3529 31.1628C54.3088 31.1628 54.2647 31.1588 54.2206 31.1548C54.2206 31.1548 54.2206 31.1548 54.2166 31.1548C54.2487 31.1307 54.2848 31.1067 54.3168 31.0826C54.3449 31.0826 54.373 31.0826 54.401 31.0867C54.4331 31.0867 54.4652 31.0907 54.4972 31.0907C54.5293 31.0907 54.5654 31.0907 54.5974 31.0826C54.6255 31.0786 54.6455 31.0506 54.6415 31.0225C54.6375 30.9945 54.6095 30.9744 54.5814 30.9784C54.5453 30.9824 54.5052 30.9824 54.4652 30.9824C54.4852 30.9704 54.5052 30.9544 54.5253 30.9424C54.5333 30.9464 54.5413 30.9504 54.5533 30.9504C54.5573 30.9504 54.5573 30.9504 54.5614 30.9504C54.6175 30.9424 54.6696 30.9464 54.7257 30.9464C54.7578 30.9464 54.7858 30.9504 54.8179 30.9504C54.8459 30.9504 54.87 30.9263 54.87 30.8983C54.87 30.8702 54.8459 30.8462 54.8179 30.8462C54.7858 30.8462 54.7578 30.8462 54.7297 30.8421C54.7177 30.8421 54.7057 30.8421 54.6896 30.8421C54.7257 30.8221 54.7618 30.8021 54.7938 30.782C54.8339 30.79 54.87 30.7981 54.9101 30.8061C54.9542 30.8181 55.0023 30.8301 55.0504 30.8341C55.0544 30.8341 55.0544 30.8341 55.0584 30.8341C55.0824 30.8341 55.1065 30.8141 55.1105 30.79C55.1145 30.762 55.0945 30.7339 55.0664 30.7299C55.0223 30.7219 54.9782 30.7139 54.9341 30.7019C54.9702 30.6818 55.0063 30.6618 55.0464 30.6417C55.1185 30.6457 55.1826 30.6538 55.2548 30.6658C55.2588 30.6658 55.2588 30.6658 55.2628 30.6658C55.2869 30.6658 55.3109 30.6457 55.3149 30.6217C55.3189 30.5936 55.2989 30.5656 55.2708 30.5616C55.2548 30.5576 55.2348 30.5576 55.2187 30.5535C55.2748 30.5255 55.331 30.4974 55.3831 30.4734C55.4272 30.4814 55.4672 30.4814 55.5113 30.4814C55.5474 30.4814 55.5795 30.4814 55.6115 30.4774L55.6075 30.3692C55.6035 30.3692 55.6035 30.3692 55.5995 30.3692C55.6356 30.3531 55.6757 30.3371 55.7117 30.3211C55.7158 30.3211 55.7158 30.3171 55.7198 30.3171C55.7238 30.3171 55.7278 30.313 55.7278 30.309C55.7318 30.305 55.7318 30.305 55.7318 30.301C55.7318 30.297 55.7358 30.297 55.7358 30.293C55.7358 30.289 55.7358 30.285 55.7398 30.285C55.7398 30.281 55.7398 30.277 55.7398 30.273C55.7398 30.269 55.7398 30.2649 55.7398 30.2609C55.7398 30.2569 55.7398 30.2529 55.7398 30.2529C55.7398 30.2489 55.7358 30.2489 55.7358 30.2449C55.7318 30.2409 55.7318 30.2369 55.7278 30.2369C55.7238 30.2329 55.7238 30.2329 55.7198 30.2329C55.7158 30.2329 55.7158 30.2289 55.7117 30.2289C55.7077 30.2289 55.7037 30.2289 55.7037 30.2249C55.6997 30.2249 55.6957 30.2249 55.6917 30.2249C55.6877 30.2249 55.6837 30.2249 55.6837 30.2249C55.6797 30.2249 55.6757 30.2249 55.6757 30.2249C55.5634 30.269 55.4432 30.3171 55.3229 30.3732C55.343 30.3371 55.363 30.301 55.3871 30.2609C55.4031 30.2369 55.3951 30.2048 55.367 30.1888C55.343 30.1728 55.3109 30.1808 55.2949 30.2088C55.2548 30.277 55.2107 30.3451 55.1826 30.4333V30.4373C55.1626 30.4453 55.1426 30.4533 55.1225 30.4654C55.1386 30.4052 55.1466 30.3451 55.1586 30.285C55.1626 30.2569 55.1426 30.2289 55.1145 30.2249C55.0864 30.2209 55.0584 30.2409 55.0544 30.269C55.0424 30.3491 55.0303 30.4253 55.0023 30.5014C54.9983 30.5095 54.9983 30.5175 55.0023 30.5255C54.9221 30.5656 54.8379 30.6057 54.7578 30.6497C54.7578 30.6257 54.7618 30.6057 54.7618 30.5816C54.7658 30.5335 54.7698 30.4894 54.7738 30.4453C54.7778 30.4173 54.7578 30.3892 54.7297 30.3852C54.7016 30.3812 54.6736 30.4012 54.6696 30.4293C54.6616 30.4774 54.6576 30.5255 54.6576 30.5736C54.6535 30.6217 54.6495 30.6658 54.6455 30.7099C54.6175 30.7259 54.5854 30.7419 54.5573 30.758C54.5573 30.7219 54.5573 30.6898 54.5533 30.6578C54.5533 30.6297 54.5493 30.6016 54.5493 30.5696C54.5493 30.5415 54.5253 30.5175 54.4972 30.5175C54.4692 30.5175 54.4451 30.5415 54.4451 30.5696C54.4451 30.6016 54.4451 30.6337 54.4491 30.6618C54.4531 30.7139 54.4531 30.766 54.4491 30.8221C54.413 30.8462 54.373 30.8662 54.3369 30.8902C54.3329 30.8381 54.3329 30.786 54.3409 30.7379C54.3449 30.7099 54.3249 30.6818 54.2968 30.6778C54.2687 30.6738 54.2407 30.6938 54.2367 30.7219C54.2287 30.786 54.2287 30.8502 54.2327 30.9183C54.2327 30.9303 54.2327 30.9424 54.2327 30.9544C54.1766 30.9905 54.1244 31.0265 54.0723 31.0626C54.0723 31.0426 54.0683 31.0225 54.0683 31.0065C54.0643 30.9584 54.0603 30.9183 54.0603 30.8742C54.0603 30.8462 54.0363 30.8221 54.0082 30.8221C53.9801 30.8221 53.9561 30.8462 53.9561 30.8742C53.9561 30.9223 53.9601 30.9664 53.9641 31.0145C53.9681 31.0546 53.9681 31.0947 53.9721 31.1388C53.928 31.1708 53.8839 31.2069 53.8398 31.239V31.0867C53.8398 31.0586 53.8158 31.0345 53.7877 31.0345C53.7597 31.0345 53.7356 31.0586 53.7356 31.0867V31.3272C53.7156 31.3432 53.6996 31.3592 53.6795 31.3753C53.6795 31.3191 53.6755 31.267 53.6675 31.2109C53.6635 31.1829 53.6354 31.1628 53.6074 31.1668C53.5793 31.1708 53.5593 31.1989 53.5633 31.2269C53.5753 31.3031 53.5753 31.3833 53.5753 31.4715C53.5392 31.5075 53.5031 31.5436 53.4671 31.5797V31.4314C53.4671 31.4033 53.443 31.3793 53.415 31.3793C53.3869 31.3793 53.3629 31.4033 53.3629 31.4314V31.6959C53.3188 31.748 53.2707 31.8001 53.2226 31.8523C53.2266 31.7761 53.2226 31.6999 53.2145 31.6238C53.2105 31.5957 53.1825 31.5757 53.1544 31.5757C53.1264 31.5797 53.1063 31.6077 53.1063 31.6358C53.1183 31.736 53.1183 31.8402 53.1063 31.9404C53.1063 31.9485 53.1063 31.9565 53.1103 31.9645C53.0502 32.0246 52.9901 32.0847 52.9259 32.1449C52.93 32.0527 52.934 31.9565 52.934 31.8683C52.934 31.8402 52.9099 31.8162 52.8819 31.8162C52.8538 31.8162 52.8297 31.8402 52.8297 31.8683C52.8297 31.9845 52.8297 32.1048 52.8177 32.221C52.8177 32.229 52.8177 32.2411 52.8217 32.2491C52.7616 32.3052 52.6975 32.3653 52.6373 32.4214C52.6373 32.4014 52.6373 32.3854 52.6373 32.3653C52.6373 32.2892 52.6414 32.217 52.6534 32.1489C52.6614 32.1208 52.6414 32.0928 52.6133 32.0847C52.5852 32.0767 52.5572 32.0968 52.5492 32.1248C52.5331 32.201 52.5291 32.2852 52.5291 32.3613C52.5291 32.4134 52.5251 32.4655 52.5211 32.5136C52.5211 32.5176 52.5211 32.5176 52.5211 32.5216C52.489 32.5497 52.457 32.5818 52.4249 32.6098C52.4169 32.5497 52.4089 32.4936 52.4249 32.4415C52.4329 32.4134 52.4169 32.3854 52.3888 32.3773C52.3608 32.3693 52.3327 32.3854 52.3247 32.4134C52.3006 32.4976 52.3127 32.5778 52.3247 32.6579C52.3287 32.67 52.3287 32.686 52.3327 32.698C52.2926 32.7381 52.2485 32.7782 52.2085 32.8183C52.2085 32.7822 52.2085 32.7501 52.2044 32.7181C52.2044 32.686 52.2004 32.6579 52.2004 32.6259C52.2004 32.5978 52.1764 32.5738 52.1483 32.5738C52.1203 32.5738 52.0962 32.5978 52.0962 32.6259C52.0962 32.6579 52.0962 32.69 52.1002 32.7221C52.1042 32.7822 52.1042 32.8423 52.0962 32.8984C52.0962 32.9065 52.0962 32.9185 52.1002 32.9265C52.0802 32.9465 52.0601 32.9706 52.0401 32.9906C52.0401 32.9706 52.0361 32.9505 52.0361 32.9305C52.0321 32.8944 52.0321 32.8584 52.0321 32.8263C52.0321 32.7982 52.008 32.7742 51.98 32.7742C51.9519 32.7742 51.9279 32.7982 51.9279 32.8263C51.9279 32.8624 51.9319 32.9024 51.9319 32.9385C51.9359 32.9946 51.9399 33.0548 51.9319 33.1069C51.8998 33.1429 51.8677 33.179 51.8357 33.2191C51.8317 33.1429 51.8317 33.0588 51.8317 32.9866C51.8317 32.9586 51.8076 32.9345 51.7796 32.9345C51.7515 32.9345 51.7275 32.9586 51.7275 32.9866C51.7275 33.0948 51.7275 33.2151 51.7395 33.3273C51.7395 33.3313 51.7435 33.3353 51.7435 33.3394C51.6633 33.4396 51.5912 33.5478 51.523 33.66C51.523 33.5879 51.527 33.5157 51.5391 33.4516C51.5431 33.4315 51.5591 33.3915 51.5751 33.3514C51.6353 33.191 51.7234 32.9706 51.5992 32.8864C51.5471 32.8503 51.503 32.8543 51.4749 32.8624C51.3787 32.8904 51.3186 33.0107 51.2705 33.1229L51.2665 33.1269C51.2585 33.1429 51.2505 33.163 51.2465 33.179C51.2465 33.1349 51.2464 33.0828 51.2424 33.0187C51.2344 32.8423 51.2384 32.7581 51.2384 32.686C51.2424 32.5938 51.2424 32.5136 51.2224 32.2731C51.1743 31.7039 51.1983 30.8902 51.2184 30.1768C51.2304 29.8 51.2384 29.4432 51.2384 29.1386C51.2384 28.6616 51.2384 28.0042 51.2545 27.5232C51.2545 27.4952 51.2545 27.4591 51.2545 27.415C51.2585 26.8298 51.2465 26.2686 51.1062 26.1283C51.0741 26.0963 51.038 26.0882 51.014 26.0882C51.01 26.0882 51.01 26.0882 51.0059 26.0882C51.0019 26.0882 51.0019 26.0882 50.9979 26.0882C50.9739 26.0882 50.9418 26.0963 50.9057 26.1283C50.7654 26.2686 50.7494 26.8298 50.7574 27.415C50.7574 27.4591 50.7574 27.4952 50.7574 27.5232C50.7735 28.0002 50.7735 28.6295 50.7735 29.1346C50.7735 29.4352 50.7855 29.792 50.7935 30.1728C50.8135 30.8902 50.8376 31.6999 50.7895 32.2691C50.7695 32.5096 50.7735 32.5898 50.7735 32.682C50.7775 32.7541 50.7775 32.8383 50.7695 33.0147C50.7654 33.0788 50.7654 33.1309 50.7654 33.175C50.7574 33.159 50.7534 33.1389 50.7454 33.1229L50.7414 33.1189C50.6933 33.0067 50.6332 32.8864 50.537 32.8584C50.5089 32.8503 50.4608 32.8463 50.4127 32.8824C50.2885 32.9666 50.3726 33.187 50.4368 33.3474C50.4528 33.3875 50.4688 33.4275 50.4728 33.4476C50.4849 33.5157 50.4889 33.5839 50.4889 33.656C50.4207 33.5438 50.3486 33.4356 50.2684 33.3353C50.2684 33.3313 50.2724 33.3273 50.2724 33.3233C50.2844 33.2151 50.2844 33.0908 50.2844 32.9826C50.2844 32.9546 50.2604 32.9305 50.2323 32.9305C50.2043 32.9305 50.1802 32.9546 50.1802 32.9826C50.1802 33.0588 50.1802 33.1389 50.1762 33.2151C50.1442 33.179 50.1121 33.1389 50.08 33.1029C50.072 33.0508 50.076 32.9906 50.084 32.9345C50.088 32.8984 50.088 32.8584 50.088 32.8223C50.088 32.7942 50.064 32.7702 50.0359 32.7702C50.0079 32.7702 49.9838 32.7942 49.9838 32.8223C49.9838 32.8543 49.9798 32.8904 49.9798 32.9265C49.9798 32.9465 49.9758 32.9666 49.9758 32.9866C49.9558 32.9666 49.9357 32.9425 49.9157 32.9225C49.9197 32.9145 49.9197 32.9065 49.9197 32.8944C49.9117 32.8383 49.9157 32.7782 49.9157 32.7181C49.9157 32.686 49.9197 32.6539 49.9197 32.6219C49.9197 32.5938 49.8956 32.5697 49.8676 32.5697C49.8395 32.5697 49.8155 32.5938 49.8155 32.6219C49.8155 32.6539 49.8155 32.682 49.8115 32.714C49.8115 32.7461 49.8075 32.7822 49.8075 32.8143C49.7674 32.7742 49.7233 32.7341 49.6832 32.694C49.6872 32.682 49.6872 32.6659 49.6912 32.6539C49.7032 32.5697 49.7153 32.4936 49.6912 32.4094C49.6832 32.3814 49.6551 32.3653 49.6271 32.3733C49.599 32.3814 49.583 32.4094 49.591 32.4375C49.607 32.4896 49.599 32.5457 49.591 32.6058C49.5589 32.5778 49.5269 32.5457 49.4948 32.5176C49.4948 32.5136 49.4948 32.5136 49.4948 32.5096C49.4908 32.4575 49.4868 32.4054 49.4868 32.3573C49.4868 32.2771 49.4828 32.197 49.4667 32.1208C49.4587 32.0928 49.4307 32.0727 49.4026 32.0807C49.3746 32.0887 49.3545 32.1168 49.3625 32.1449C49.3786 32.213 49.3786 32.2852 49.3786 32.3613C49.3786 32.3814 49.3786 32.3974 49.3786 32.4174C49.3184 32.3613 49.2543 32.3052 49.1942 32.2451C49.1982 32.2371 49.1982 32.229 49.1982 32.217C49.1862 32.1008 49.1862 31.9805 49.1862 31.8643C49.1862 31.8362 49.1621 31.8122 49.1341 31.8122C49.106 31.8122 49.0819 31.8362 49.0819 31.8643C49.0819 31.9565 49.0819 32.0487 49.09 32.1409C49.0298 32.0807 48.9657 32.0206 48.9056 31.9605C48.9096 31.9525 48.9096 31.9444 48.9096 31.9364C48.8976 31.8362 48.8976 31.732 48.9096 31.6318C48.9136 31.6037 48.8935 31.5757 48.8615 31.5717C48.8334 31.5677 48.8054 31.5877 48.8014 31.6198C48.7933 31.6959 48.7893 31.7721 48.7933 31.8482C48.7452 31.7961 48.7011 31.748 48.653 31.6919V31.4274C48.653 31.3993 48.629 31.3753 48.6009 31.3753C48.5729 31.3753 48.5488 31.3993 48.5488 31.4274V31.5757C48.5128 31.5396 48.4807 31.5035 48.4406 31.4675C48.4406 31.3793 48.4406 31.2991 48.4526 31.2229C48.4566 31.1949 48.4366 31.1668 48.4085 31.1628C48.3805 31.1588 48.3524 31.1788 48.3484 31.2069C48.3404 31.263 48.3364 31.3151 48.3364 31.3713C48.3163 31.3552 48.3003 31.3392 48.2803 31.3231V31.0826C48.2803 31.0546 48.2562 31.0305 48.2282 31.0305C48.2001 31.0305 48.1761 31.0546 48.1761 31.0826V31.235C48.132 31.1989 48.0879 31.1668 48.0438 31.1348C48.0438 31.0907 48.0478 31.0506 48.0518 31.0105C48.0558 30.9624 48.0598 30.9183 48.0598 30.8702C48.0598 30.8421 48.0358 30.8181 48.0077 30.8181C47.9796 30.8181 47.9556 30.8421 47.9556 30.8702C47.9556 30.9143 47.9516 30.9584 47.9476 31.0025C47.9476 31.0225 47.9436 31.0386 47.9436 31.0586C47.8915 31.0225 47.8353 30.9864 47.7832 30.9504C47.7832 30.9383 47.7832 30.9263 47.7832 30.9143C47.7872 30.8462 47.7872 30.782 47.7792 30.7179C47.7752 30.6898 47.7472 30.6698 47.7191 30.6738C47.691 30.6778 47.671 30.7059 47.675 30.7339C47.683 30.782 47.679 30.8341 47.679 30.8862C47.6429 30.8622 47.6029 30.8421 47.5668 30.8181C47.5588 30.766 47.5628 30.7139 47.5668 30.6578C47.5668 30.6257 47.5708 30.5976 47.5708 30.5656C47.5708 30.5375 47.5467 30.5135 47.5187 30.5135C47.4906 30.5135 47.4666 30.5375 47.4666 30.5656C47.4666 30.5976 47.4666 30.6257 47.4626 30.6538C47.4626 30.6858 47.4586 30.7179 47.4586 30.754C47.4305 30.7379 47.3984 30.7219 47.3704 30.7059C47.3624 30.6618 47.3624 30.6177 47.3584 30.5696C47.3543 30.5215 47.3503 30.4734 47.3463 30.4253C47.3423 30.3972 47.3143 30.3772 47.2862 30.3812C47.2581 30.3852 47.2381 30.4133 47.2421 30.4413C47.2501 30.4854 47.2501 30.5295 47.2541 30.5776C47.2541 30.5976 47.2581 30.6217 47.2581 30.6457C47.174 30.6016 47.0938 30.5616 47.0136 30.5215C47.0136 30.5135 47.0136 30.5054 47.0136 30.4974C46.9896 30.4213 46.9776 30.3451 46.9615 30.2649C46.9575 30.2369 46.9295 30.2168 46.9014 30.2209C46.8733 30.2249 46.8533 30.2529 46.8573 30.281C46.8653 30.3411 46.8773 30.3972 46.8934 30.4614C46.8733 30.4533 46.8533 30.4453 46.8333 30.4333V30.4293C46.8052 30.3451 46.7611 30.273 46.721 30.2048C46.705 30.1808 46.6729 30.1728 46.6489 30.1848C46.6248 30.2008 46.6168 30.2329 46.6288 30.2569C46.6529 30.293 46.6729 30.3291 46.693 30.3692C46.5687 30.3171 46.4525 30.2649 46.3402 30.2209C46.3362 30.2209 46.3322 30.2209 46.3282 30.2209C46.3242 30.2209 46.3202 30.2209 46.3202 30.2209C46.3162 30.2209 46.3122 30.2209 46.3082 30.2249C46.3042 30.2249 46.3042 30.2249 46.3001 30.2249C46.2961 30.2249 46.2961 30.2289 46.2921 30.2289C46.2881 30.2289 46.2881 30.2329 46.2841 30.2329C46.2801 30.2369 46.2801 30.2369 46.2761 30.2409C46.2761 30.2449 46.2721 30.2449 46.2721 30.2489C46.2721 30.2529 46.2721 30.2569 46.2721 30.2569C46.2721 30.2609 46.2721 30.2649 46.2721 30.269C46.2721 30.273 46.2721 30.277 46.2721 30.281C46.2721 30.285 46.2721 30.289 46.2761 30.289C46.2761 30.293 46.2801 30.293 46.2801 30.297C46.2801 30.301 46.2841 30.301 46.2841 30.305C46.2881 30.309 46.2881 30.309 46.2921 30.313C46.2961 30.313 46.2961 30.3171 46.3001 30.3171C46.3362 30.3331 46.3723 30.3491 46.4124 30.3652C46.4084 30.3652 46.4084 30.3652 46.4044 30.3652C46.3763 30.3652 46.3523 30.3852 46.3482 30.4173C46.3482 30.4453 46.3683 30.4734 46.4004 30.4734C46.4324 30.4734 46.4685 30.4774 46.5006 30.4774C46.5406 30.4774 46.5847 30.4734 46.6288 30.4694C46.6849 30.4934 46.7371 30.5215 46.7932 30.5495C46.7771 30.5535 46.7571 30.5535 46.7411 30.5576L46.7571 30.6618C46.8293 30.6497 46.8974 30.6417 46.9655 30.6377C47.0016 30.6578 47.0377 30.6778 47.0778 30.6978C47.0337 30.7099 46.9896 30.7179 46.9455 30.7259C46.9174 30.7299 46.8974 30.758 46.9014 30.786C46.9054 30.8141 46.9295 30.8301 46.9535 30.8301C46.9575 30.8301 46.9575 30.8301 46.9615 30.8301C47.0096 30.8221 47.0577 30.8101 47.1018 30.8021C47.1419 30.794 47.178 30.786 47.2181 30.778C47.2541 30.7981 47.2902 30.8181 47.3223 30.8381C47.3103 30.8381 47.2982 30.8381 47.2822 30.8381C47.2541 30.8381 47.2261 30.8421 47.194 30.8421C47.166 30.8421 47.1419 30.8662 47.1419 30.8943C47.1419 30.9223 47.166 30.9464 47.194 30.9464C47.2261 30.9464 47.2581 30.9464 47.2862 30.9424C47.3423 30.9383 47.3944 30.9383 47.4505 30.9464C47.4546 30.9464 47.4546 30.9464 47.4586 30.9464C47.4666 30.9464 47.4786 30.9424 47.4866 30.9383C47.5067 30.9504 47.5267 30.9664 47.5467 30.9784C47.5067 30.9784 47.4706 30.9784 47.4305 30.9744C47.4024 30.9704 47.3744 30.9905 47.3704 31.0185C47.3664 31.0466 47.3864 31.0746 47.4145 31.0786C47.4465 31.0826 47.4826 31.0867 47.5147 31.0867C47.5467 31.0867 47.5788 31.0867 47.6109 31.0826C47.6389 31.0826 47.667 31.0786 47.6951 31.0786C47.7311 31.1027 47.7632 31.1267 47.7953 31.1508C47.7953 31.1508 47.7953 31.1508 47.7913 31.1508C47.7432 31.1548 47.7031 31.1588 47.659 31.1588C47.6309 31.1588 47.6069 31.1829 47.6069 31.2109C47.6069 31.239 47.6309 31.263 47.659 31.263C47.7071 31.263 47.7512 31.259 47.7993 31.255C47.8394 31.251 47.8834 31.251 47.9275 31.247C47.9756 31.2871 48.0237 31.3272 48.0718 31.3672H47.9035C47.8754 31.3672 47.8514 31.3913 47.8514 31.4194C47.8514 31.4474 47.8754 31.4715 47.9035 31.4715H48.144C48.156 31.4715 48.168 31.4675 48.1761 31.4594C48.2001 31.4795 48.2242 31.5035 48.2482 31.5276C48.172 31.5276 48.1039 31.5316 48.0318 31.5396C48.0037 31.5436 47.9837 31.5717 47.9877 31.5997C47.9917 31.6278 48.0157 31.6438 48.0398 31.6438C48.0438 31.6438 48.0438 31.6438 48.0478 31.6438C48.136 31.6318 48.2282 31.6318 48.3324 31.6318C48.3404 31.6318 48.3444 31.6318 48.3524 31.6278C48.3885 31.6639 48.4206 31.6999 48.4526 31.736H48.2562C48.2282 31.736 48.2041 31.7601 48.2041 31.7881C48.2041 31.8162 48.2282 31.8402 48.2562 31.8402H48.5448C48.5809 31.8883 48.621 31.9324 48.6611 31.9765C48.5929 31.9725 48.5208 31.9765 48.4526 31.9845C48.4246 31.9885 48.4045 32.0166 48.4045 32.0447C48.4085 32.0727 48.4366 32.0928 48.4647 32.0928C48.5649 32.0807 48.6651 32.0807 48.7613 32.0928C48.7893 32.1248 48.8174 32.1529 48.8495 32.1849C48.7613 32.1809 48.6771 32.1809 48.5929 32.1809C48.5649 32.1809 48.5408 32.205 48.5408 32.233C48.5408 32.2611 48.5649 32.2852 48.5929 32.2852C48.7092 32.2852 48.8294 32.2852 48.9457 32.2972H48.9497C48.9537 32.2972 48.9537 32.2972 48.9577 32.2972C49.0178 32.3573 49.0779 32.4174 49.1381 32.4776C49.118 32.4776 49.102 32.4776 49.0819 32.4776C49.0058 32.4776 48.9296 32.4735 48.8655 32.4615C48.8374 32.4535 48.8094 32.4735 48.8014 32.5016C48.7933 32.5297 48.8134 32.5577 48.8414 32.5657C48.9176 32.5818 49.0018 32.5858 49.0779 32.5858C49.13 32.5858 49.1821 32.5898 49.2302 32.5938H49.2343C49.2383 32.5938 49.2423 32.5938 49.2423 32.5938L49.2463 32.5978C49.2783 32.6259 49.3064 32.6579 49.3385 32.69C49.2703 32.702 49.2102 32.71 49.1541 32.694C49.126 32.686 49.098 32.702 49.09 32.7301C49.0819 32.7581 49.098 32.7862 49.126 32.7942C49.1621 32.8022 49.1942 32.8062 49.2262 32.8062C49.2743 32.8062 49.3224 32.7982 49.3705 32.7902C49.3906 32.7862 49.4106 32.7822 49.4347 32.7822C49.4788 32.8223 49.5189 32.8664 49.5589 32.9105C49.5189 32.9105 49.4828 32.9105 49.4427 32.9145C49.4106 32.9145 49.3826 32.9185 49.3505 32.9185C49.3224 32.9185 49.2984 32.9425 49.2984 32.9706C49.2984 32.9986 49.3224 33.0227 49.3505 33.0227C49.3826 33.0227 49.4146 33.0227 49.4467 33.0187C49.5068 33.0147 49.567 33.0147 49.6231 33.0227C49.6271 33.0227 49.6271 33.0227 49.6311 33.0227C49.6431 33.0227 49.6511 33.0187 49.6591 33.0147C49.6712 33.0267 49.6792 33.0347 49.6912 33.0467C49.6992 33.0588 49.7113 33.0668 49.7233 33.0788C49.6832 33.0788 49.6431 33.0828 49.603 33.0868C49.567 33.0908 49.5309 33.0908 49.4988 33.0908C49.4708 33.0908 49.4467 33.1149 49.4467 33.1429C49.4467 33.171 49.4708 33.1951 49.4988 33.1951C49.5349 33.1951 49.575 33.191 49.611 33.191C49.6832 33.187 49.7553 33.179 49.8195 33.1951C49.8235 33.1951 49.8275 33.1951 49.8315 33.1951H49.8355C49.8636 33.2231 49.8916 33.2552 49.9197 33.2832C49.8515 33.2872 49.7794 33.2872 49.7153 33.2872C49.6872 33.2872 49.6632 33.3113 49.6632 33.3394C49.6632 33.3674 49.6872 33.3915 49.7153 33.3915C49.8075 33.3915 49.9117 33.3915 50.0079 33.3794C50.2243 33.628 50.4287 33.9206 50.4207 34.1611C50.4087 34.1611 50.3967 34.1571 50.3887 34.1571C50.2764 34.1571 50.1923 34.2132 50.1882 34.2132C49.587 34.586 49.3385 35.0629 49.4828 35.56C49.5068 35.6442 49.5469 35.7163 49.595 35.7804C49.595 35.7885 49.595 35.7965 49.599 35.8045C49.6912 36.053 49.9317 36.2174 50.2163 36.2294C50.3205 36.2294 50.4167 36.2053 50.5129 36.1773C50.5169 36.2174 50.5169 36.2614 50.5129 36.3015C50.4207 36.3055 50.3325 36.3296 50.2684 36.3456C50.2283 36.3617 50.0239 36.4378 49.9277 36.546L49.9237 36.55C49.8916 36.5981 49.8676 36.6583 49.8435 36.7144C49.8195 36.7705 49.7954 36.8306 49.7634 36.8787C49.4667 37.2836 49.2623 37.6443 49.11 38.0291H49.106C49.0779 38.0331 49.0499 38.0371 49.0258 38.0371C48.9617 38.0452 48.8976 38.0532 48.8374 38.0692C48.7733 38.0331 48.7132 37.9931 48.6571 37.953C48.5208 37.8648 48.3925 37.7766 48.2282 37.7285C48.136 37.6964 48.0438 37.6724 47.9556 37.6523C47.7953 37.6123 47.6429 37.5722 47.5107 37.488C47.3704 37.3958 47.2381 37.2996 47.1138 37.2034C46.8533 37.011 46.6088 36.8306 46.2961 36.6863C46.0156 36.5541 45.731 36.4057 45.4544 36.2655C44.8371 35.9448 44.1998 35.6161 43.5224 35.4077C43.358 35.3515 43.1255 35.2914 43.0013 35.3916C42.9973 35.3956 42.9933 35.3996 42.9893 35.4037C42.7648 35.2954 42.5764 35.0229 42.392 34.7583C42.2718 34.586 42.1595 34.4256 42.0353 34.2974C41.6424 33.9045 41.2376 33.4997 40.8688 33.0588C40.3798 32.5016 39.9148 31.8723 39.4659 31.267C39.3296 31.0826 39.1974 30.9023 39.0611 30.7219C38.8246 30.4052 38.6202 30.0525 38.4197 29.7158C38.1432 29.2388 37.8546 28.7498 37.4778 28.3409C37.4537 28.3169 37.4056 28.2608 37.3495 28.1926C37.0328 27.8118 36.7042 27.4431 36.4837 27.4551C36.4757 27.4551 36.4677 27.4591 36.4556 27.4591L36.3915 27.4391C36.0147 27.3148 35.8584 27.2627 35.4415 27.0222C35.2211 26.8939 34.9325 26.6935 34.6559 26.4971C34.4114 26.3247 34.1789 26.1604 33.9905 26.0482C33.9464 26.0201 33.8903 25.98 33.8222 25.9319C33.3812 25.6193 32.9363 25.3307 32.6878 25.4309C32.5315 25.3547 32.3711 25.2705 32.2148 25.1904C32.0064 25.0821 31.7899 24.9699 31.5735 24.8697C31.5494 24.8577 31.5053 24.8376 31.4492 24.8056C31.0444 24.6011 30.7437 24.4648 30.5674 24.4528C30.5032 24.4208 30.387 24.3366 30.2627 24.2484C29.886 23.9758 29.5693 23.7634 29.3729 23.7594C29.3288 23.7353 29.2406 23.6792 29.1604 23.6231C28.8478 23.4187 28.5512 23.2303 28.3508 23.1862C28.3468 23.1782 28.3387 23.1701 28.3267 23.1661C28.1383 23.078 27.8537 22.6771 27.7615 22.5448C27.5892 22.3364 27.3647 22.0398 27.0601 21.9997C27.04 21.9997 27.02 22.0077 27.012 22.0198C26.9999 22.0358 26.9959 22.0558 27.004 22.0759C27.1162 22.3324 27.2725 22.5609 27.5291 22.8375C27.5932 22.9056 27.6493 22.9818 27.7054 23.0539C27.8337 23.2183 27.962 23.3906 28.1824 23.5069C28.1904 23.5109 28.1984 23.5149 28.2065 23.5149C28.2105 23.5149 28.2145 23.5149 28.2185 23.5149C28.5111 23.7594 29.2246 24.044 29.2326 24.044C29.2406 24.048 29.2446 24.048 29.2526 24.048C29.4931 24.3286 30.3229 24.7414 30.4592 24.7775C30.4632 24.7775 30.4672 24.7775 30.4752 24.7775C30.4792 24.7775 30.4832 24.7775 30.4872 24.7775C30.5794 24.8456 30.7357 24.8857 30.88 24.9258C30.9361 24.9418 30.9923 24.9539 31.0283 24.9659C31.1326 25.018 31.2328 25.0821 31.337 25.1543C31.4011 25.1984 31.4693 25.2425 31.5414 25.2826C31.6977 25.3667 31.8501 25.4349 31.9944 25.503C32.1908 25.5912 32.3792 25.6754 32.5675 25.7956C32.5756 25.7996 32.5876 25.8036 32.5956 25.8036C32.6036 25.8036 32.6116 25.8036 32.6197 25.7996C32.8281 26.0722 33.4133 26.3608 33.5135 26.4009C33.754 26.5251 33.9945 26.6815 34.227 26.8298C34.4194 26.954 34.6198 27.0823 34.8202 27.1945C35.205 27.423 35.6179 27.5753 36.0187 27.7196C36.123 27.7597 36.2312 27.7958 36.3354 27.8359C36.3434 27.8399 36.3474 27.8399 36.3554 27.8399C36.3594 27.8399 36.3594 27.8399 36.3635 27.8399C36.4396 28.0684 36.62 28.385 36.8164 28.7217C36.8765 28.8219 36.9246 28.9021 36.9447 28.9502C37.2493 29.5074 37.6501 30.0084 38.0349 30.4934C38.2153 30.7219 38.4037 30.9544 38.5801 31.1909C39.1092 31.9164 39.6703 32.6299 40.2115 33.3193L40.3357 33.4796C40.6283 33.8404 40.945 34.133 41.2817 34.4457C41.3939 34.5499 41.5062 34.6541 41.6184 34.7623C41.6825 34.8265 41.7587 34.9146 41.8509 35.0229C42.1756 35.3996 42.6085 35.9047 42.9973 35.9047C43.0293 35.9047 43.0574 35.9007 43.0895 35.8967C43.0975 35.8967 43.1015 35.8927 43.1055 35.8887C43.1977 35.9568 43.3139 36.0169 43.4101 36.069C43.4582 36.0971 43.5023 36.1171 43.5264 36.1372C43.7508 36.2855 43.9994 36.3857 44.2358 36.4859C44.4002 36.5541 44.5725 36.6222 44.7409 36.7104C44.8932 36.7825 45.0495 36.8547 45.2019 36.9268C45.5065 37.0711 45.8191 37.2194 46.1278 37.3477C46.3883 37.4559 46.6489 37.6083 46.9014 37.7566C47.0537 37.8447 47.21 37.9369 47.3664 38.0211L47.3824 38.0291C47.7792 38.2376 48.1199 38.4139 48.5649 38.5382C48.5689 38.5382 48.5729 38.5422 48.5809 38.5422C48.5849 38.5422 48.5849 38.5422 48.5889 38.5422C48.613 38.6745 48.7011 38.7787 48.7853 38.8789C48.8254 38.923 48.8615 38.9671 48.8935 39.0152C48.8775 39.1675 48.8655 39.3198 48.8535 39.4721C48.8374 39.6966 48.8174 39.9291 48.7853 40.1455C48.7332 40.5103 48.7252 40.8831 48.7653 41.2919C48.7813 41.4603 48.8014 41.6206 48.8454 41.7729C48.4326 41.8291 48.0438 41.7569 47.6309 41.6767C47.3503 41.6246 47.0577 41.5685 46.7611 41.5565C46.6328 41.5485 46.5006 41.5445 46.3723 41.5364C45.9915 41.5204 45.5947 41.5004 45.2059 41.4603C45.0536 41.4483 44.9012 41.4402 44.7369 41.4282C44.2158 41.3962 43.6787 41.3641 43.2057 41.2238L43.0333 41.1717C42.5123 41.0154 42.0232 40.8711 41.4661 40.823C40.949 40.7749 40.4359 40.6987 39.9349 40.6265C39.3056 40.5344 38.6602 40.4341 38.0029 40.3981C37.7784 40.3901 37.582 40.35 37.3736 40.3059C37.3054 40.2939 37.2333 40.2778 37.1611 40.2658C36.9928 40.2297 36.8404 40.1696 36.6761 40.1055C36.4877 40.0333 36.2913 39.9572 36.0668 39.9171C35.5538 39.8489 35.0247 39.9612 34.5116 40.0694C34.3032 40.1135 34.1068 40.1536 33.9103 40.1856C33.5416 40.2417 33.2931 40.3941 33.0045 40.5704C32.9523 40.6025 32.8962 40.6346 32.8401 40.6706C32.5675 40.8189 32.1988 41.0635 32.1066 41.5164C32.0264 41.9012 32.1988 42.274 32.3511 42.6027L32.3751 42.6548C32.5756 43.0716 32.8401 43.1959 33.2169 43.3322C33.8141 43.5647 34.4074 43.8372 34.9766 44.1018C35.7742 44.4706 36.5999 44.8514 37.4657 45.1319C37.594 45.172 37.7223 45.2201 37.8465 45.2642C38.079 45.3484 38.3195 45.4326 38.5721 45.4927C38.8286 45.5568 39.0851 45.5849 39.3376 45.6089C39.4579 45.621 39.5862 45.633 39.7104 45.653C40.2195 45.7252 40.7526 45.7412 41.2657 45.7572C41.414 45.7613 41.5623 45.7653 41.7146 45.7733C41.7547 45.7733 41.7948 45.7733 41.8348 45.7733C42.2718 45.7733 42.6846 45.7252 43.1175 45.6731C43.2498 45.657 43.3821 45.641 43.5184 45.625C44.2799 45.5408 44.9934 45.4125 45.6428 45.2522C45.6708 45.2442 45.6989 45.2362 45.727 45.2322C45.731 45.2322 45.735 45.2362 45.743 45.2362C45.747 45.2362 45.751 45.2362 45.759 45.2322C45.7069 45.2762 45.6548 45.3203 45.6027 45.3564C45.5386 45.4005 45.4744 45.4446 45.4103 45.4887C44.793 45.9136 44.2599 46.2823 43.843 46.9838C43.819 47.0319 43.7829 47.076 43.7428 47.1281C43.7027 47.1802 43.6667 47.2283 43.6346 47.2844C43.3099 47.4087 43.1656 48.0621 43.0734 48.499C43.0534 48.5912 43.0374 48.6673 43.0213 48.7274C42.881 49.2165 42.7367 49.7215 42.6125 50.2386C42.4962 50.7797 42.372 51.3289 42.2477 51.858C42.1275 52.3911 41.9992 52.9402 41.8829 53.4814C41.8068 53.81 41.7507 54.1507 41.6946 54.4794C41.6585 54.6879 41.6224 54.9043 41.5823 55.1128C41.5583 55.217 41.5342 55.3252 41.5062 55.4294C41.418 55.7982 41.3258 56.179 41.3138 56.5558C41.3098 56.652 41.3258 56.8965 41.3739 57.1169C41.3619 57.1209 41.3458 57.129 41.3378 57.141C41.1735 57.3935 40.7686 57.614 40.472 57.7783C40.4239 57.8064 40.3758 57.8304 40.3357 57.8545C39.9589 58.0429 39.5621 58.2473 39.1733 58.4958C38.4999 58.9007 37.8425 59.2414 37.2333 59.546C37.1771 59.5741 37.121 59.6021 37.0689 59.6302C36.8204 59.7584 36.5679 59.8867 36.3234 60.0551C36.0989 60.2194 35.6339 60.5641 35.5377 60.9169C35.3333 61.0852 35.1169 61.4981 34.9565 61.7987C34.9245 61.8588 34.8964 61.9149 34.8723 61.959C34.7962 62.0953 34.708 62.2276 34.6238 62.3519C34.5036 62.5322 34.3793 62.7166 34.2871 62.917L34.2791 62.9371C34.0907 63.3058 34.0146 63.5303 33.9945 63.6666C33.754 63.855 33.4253 63.9752 33.1327 64.0795C33.0646 64.1035 32.9964 64.1276 32.9323 64.1516C32.8842 64.1676 32.8241 64.1877 32.7599 64.2117C32.4914 64.3039 32.1266 64.4242 31.9583 64.5885C31.9262 64.5885 31.8781 64.5845 31.822 64.5845C31.3851 64.5645 30.9081 64.5564 30.7437 64.6767C30.7357 64.6727 30.7277 64.6687 30.7197 64.6687C30.5313 64.6607 30.3469 64.5765 30.1665 64.5003C30.1064 64.4723 30.0423 64.4442 29.9782 64.4202C29.9701 64.4162 29.9581 64.4121 29.9421 64.4041C29.5132 64.2358 29.3047 64.1997 29.2166 64.2759C29.1925 64.2999 29.1685 64.34 29.1885 64.4202C29.2486 64.5805 29.9661 64.7729 29.9701 64.7729C30.0583 64.7969 30.1465 64.821 30.2307 64.841C30.4191 64.8851 30.5954 64.9292 30.7718 65.0094C30.7798 65.0134 30.7878 65.0134 30.7918 65.0134C30.7959 65.0134 30.7999 65.0134 30.8039 65.0134C30.868 65.0455 30.9562 65.0615 31.0484 65.0615C31.2769 65.0615 31.5655 64.9853 31.7619 64.9332C31.826 64.9172 31.8821 64.9012 31.9142 64.8972C31.9222 64.8972 31.9302 64.8891 31.9382 64.8851C31.9663 64.8932 31.9944 64.8972 32.0264 64.8972C32.1346 64.8972 32.2549 64.8611 32.2589 64.8611C32.4754 64.813 32.6597 64.7569 32.8161 64.6847C32.9764 64.6126 33.1327 64.5244 33.285 64.4442C33.4333 64.364 33.5897 64.2799 33.75 64.2037C33.7861 64.1837 33.8262 64.1636 33.8703 64.1436C33.9945 64.0835 34.1348 64.0193 34.219 63.9111C34.219 63.9111 34.219 63.9071 34.223 63.9071C34.227 63.9071 34.231 63.9031 34.239 63.9031C34.4394 63.8269 34.5637 63.4822 34.6759 63.1776C34.716 63.0653 34.7561 62.9571 34.7882 62.893C34.9365 62.5723 35.1369 62.2597 35.3333 61.959C35.4776 61.7346 35.6299 61.4981 35.7542 61.2656C36.0027 61.2576 36.3594 61.0491 36.4436 61.001C36.7763 60.8006 37.105 60.5681 37.4176 60.3477C37.9868 59.9188 38.6001 59.554 39.2895 59.1532C39.7665 58.8766 40.2155 58.5599 40.6524 58.2553C40.8247 58.1351 41.0051 58.0068 41.1815 57.8865C41.2737 57.8264 41.3579 57.7543 41.438 57.6861C41.5022 57.634 41.5583 57.5819 41.6224 57.5378C41.6264 57.5338 41.6264 57.5338 41.6304 57.5298C41.7667 57.5298 41.8589 57.3133 41.891 57.2412C41.9992 56.9807 42.0072 56.672 42.0112 56.3794C42.0152 56.183 42.0192 55.9786 42.0553 55.7942C42.1996 55.0687 42.384 54.3231 42.5604 53.6056C42.869 52.355 43.1897 51.0603 43.3139 49.7736C43.3861 49.0802 43.6226 48.3627 43.847 47.7494C43.8951 47.7454 43.9513 47.7334 44.0074 47.7133C44.2238 47.6251 44.3842 47.4007 44.5445 47.1882C44.6327 47.072 44.7128 46.9598 44.797 46.8796C45.0536 46.6391 45.3181 46.3986 45.5746 46.1661C45.9033 45.8695 46.248 45.5608 46.5727 45.2442C46.6328 45.1841 46.697 45.1239 46.7571 45.0678C46.8934 44.9395 47.0297 44.8073 47.1619 44.671C47.194 44.6469 47.2301 44.6269 47.2622 44.6028C47.3303 44.5547 47.3984 44.5106 47.4666 44.4666C47.6389 44.3463 47.8233 44.2461 48.0077 44.1499C48.148 44.0737 48.2963 43.9976 48.4366 43.9054C48.7052 43.725 48.9376 43.5647 49.1341 43.4364C48.3965 44.5227 47.679 45.653 46.9976 46.8114C46.8052 47.1401 46.6609 47.4768 46.5527 47.8336C46.4805 48.0621 46.3843 48.2545 46.2881 48.4549C46.232 48.5751 46.1719 48.6954 46.1158 48.8236C46.0516 48.9639 46.0717 49.0922 46.1719 49.1804C46.1599 50.0302 46.1679 50.8078 46.3803 51.6535C46.5767 52.4472 46.6529 53.2809 46.729 54.0866C46.7892 54.76 46.8533 55.4535 46.9896 56.1269C47.0337 56.3473 47.0377 56.5558 47.0417 56.7602C47.0457 56.9406 47.0497 57.125 47.0818 57.3214C47.1018 57.4617 47.1098 57.606 47.1138 57.7422C47.1259 57.9867 47.1379 58.2353 47.2141 58.4878C47.2221 58.5078 47.2261 58.5319 47.2381 58.5599C47.2381 58.5639 47.2381 58.5639 47.2421 58.568L47.2381 58.572C47.0136 58.8365 46.8172 59.1131 46.6328 59.3817C46.5527 59.4939 46.4685 59.6141 46.3843 59.7304C46.1959 59.9869 45.9634 60.2354 45.743 60.4759C45.6147 60.6122 45.4824 60.7565 45.3582 60.9008C44.6647 61.7346 44.0354 62.6204 43.4222 63.4782C43.1416 63.8951 42.857 64.328 42.5724 64.7168C42.5083 64.805 42.4241 64.9052 42.3359 65.0094C42.0753 65.318 41.7827 65.6668 41.7306 65.9794C41.7266 65.9914 41.7266 65.9995 41.7266 66.0115C41.434 66.1197 41.1895 66.3321 40.953 66.5406C40.8087 66.6688 40.6724 66.7891 40.5241 66.8853C39.7746 67.3823 39.0731 67.8874 38.3316 68.4245L38.1672 68.5408C38.1592 68.5448 38.1391 68.5608 38.1151 68.5768C37.6501 68.8895 37.4217 69.0779 37.3214 69.2021C37.3094 69.1941 37.2934 69.1941 37.2814 69.1981C37.1411 69.2422 37.0128 69.3224 36.8885 69.3985C36.8004 69.4547 36.7122 69.5108 36.616 69.5549C36.4436 69.6471 36.2753 69.6871 36.0829 69.7352C36.0227 69.7513 35.9626 69.7633 35.9025 69.7793C35.686 69.8355 35.4696 69.9036 35.2571 69.9677C34.9846 70.0559 34.7 70.1441 34.4194 70.2042C34.3994 70.2082 34.3673 70.2082 34.3312 70.2122C34.1508 70.2243 33.8783 70.2403 33.7821 70.3726C33.7781 70.3806 33.7741 70.3886 33.77 70.3966C33.758 70.3846 33.738 70.3806 33.7219 70.3846C33.4293 70.4728 33.0726 70.3886 32.7319 70.3044C32.5515 70.2603 32.3832 70.2203 32.2268 70.2042C32.0064 70.1802 31.7458 70.1722 31.6216 70.2323C31.6055 70.2243 31.5895 70.2162 31.5735 70.2082C30.9883 69.9477 30.3589 69.7112 30.1225 69.9317C30.1024 69.9517 30.0984 69.9838 30.1184 70.0038C30.387 70.3084 30.7478 70.3565 31.1005 70.4046C31.2809 70.4287 31.4652 70.4527 31.6296 70.5129C31.6336 70.5169 31.6416 70.5169 31.6456 70.5169C31.6617 70.5169 31.6777 70.5089 31.6897 70.4968C31.7178 70.5169 31.7458 70.5329 31.7819 70.553C32.0184 70.6852 32.323 70.6852 32.6237 70.6812C32.8121 70.6812 32.9884 70.6812 33.1447 70.7093C33.2049 70.7213 33.273 70.7293 33.3452 70.7293C33.5175 70.7293 33.7059 70.6973 33.8462 70.6572C33.8502 70.6612 33.8542 70.6652 33.8582 70.6652C33.9023 70.6892 33.9584 70.7013 34.0186 70.7013C34.1629 70.7013 34.3392 70.6451 34.5036 70.585C34.5236 70.577 34.5437 70.569 34.5597 70.565C34.712 70.5129 34.8723 70.4608 35.0247 70.4127C35.3333 70.3165 35.65 70.2162 35.9466 70.084C36.131 70.0078 36.3154 69.9397 36.4957 69.8715C36.8204 69.7513 37.1531 69.623 37.4738 69.4627C37.4818 69.4587 37.4858 69.4547 37.4938 69.4466C37.5138 69.4466 37.5299 69.4426 37.5499 69.4386C37.7944 69.4026 38.0149 69.2222 38.2233 69.0498C38.3396 68.9536 38.4518 68.8654 38.56 68.8013C39.009 68.5568 39.3898 68.2802 39.7385 68.0157C40.1233 67.719 40.5161 67.4144 40.9089 67.0937C41.0452 66.9855 41.1975 66.8853 41.3418 66.7891C41.5823 66.6288 41.8308 66.4684 42.0313 66.256C42.0433 66.244 42.0473 66.2319 42.0473 66.2159C42.1595 66.1678 42.2637 66.0876 42.2958 66.0636C42.7127 65.6868 43.0253 65.1697 43.33 64.6727C43.4181 64.5324 43.4983 64.3961 43.5825 64.2638C43.8791 63.8029 44.2078 63.374 44.5245 62.9611C44.7489 62.6725 44.9774 62.3719 45.1979 62.0592C45.286 61.935 45.3702 61.8067 45.4544 61.6865C45.6508 61.3979 45.8512 61.1012 46.0717 60.8327C46.2601 60.6042 46.4525 60.3757 46.6368 60.1593C46.9335 59.8106 47.2381 59.4498 47.5307 59.073C47.5427 59.061 47.5588 59.045 47.5748 59.0209C47.5868 59.0249 47.5989 59.0249 47.6109 59.0249C47.647 59.0249 47.675 59.0129 47.6951 58.9969C47.8153 58.9127 47.8073 58.6481 47.7792 58.3996C47.7792 58.3836 47.7752 58.3716 47.7752 58.3635C47.7592 58.1671 47.7191 57.9787 47.683 57.7943C47.6269 57.5138 47.5748 57.2492 47.5908 56.9526C47.6189 56.4515 47.5588 56.0347 47.4706 55.4976C47.4385 55.3052 47.4145 55.1087 47.3944 54.9123C47.3624 54.6237 47.3263 54.3231 47.2622 54.0425C47.198 53.7619 47.1459 53.4733 47.0978 53.1928C47.0657 53.0044 47.0297 52.808 46.9936 52.6196C46.9695 52.4993 46.9415 52.375 46.9134 52.2548C46.8533 51.9943 46.7932 51.7257 46.7691 51.4611C46.7571 51.3208 46.7411 51.1846 46.721 51.0523C46.697 50.8599 46.6689 50.6635 46.6649 50.4631C46.6649 50.3949 46.6609 50.3268 46.6569 50.2546C46.6489 50.0743 46.6368 49.8899 46.6609 49.7135C46.6729 49.6173 46.697 49.5612 46.717 49.5131C46.7491 49.4289 46.7731 49.3608 46.7411 49.2044C46.8132 49.1684 46.8733 49.1122 46.9174 49.0361C47.0217 48.8357 47.0617 48.6032 47.0978 48.3827C47.1259 48.2184 47.1499 48.0661 47.202 47.9258C47.3062 47.5971 47.4626 47.3606 47.6429 47.084C47.683 47.0199 47.7271 46.9557 47.7672 46.8876C47.8754 46.7193 47.9716 46.5469 48.0678 46.3785C48.164 46.2142 48.2602 46.0418 48.3644 45.8775C48.4767 45.7172 48.5649 45.5729 48.633 45.4326C48.7452 45.2322 48.7893 45.2121 49.0098 45.1079C49.3104 44.9596 49.4667 44.7271 49.6351 44.4826C49.6832 44.4144 49.7313 44.3383 49.7874 44.2661C49.8075 44.2341 49.8275 44.206 49.8475 44.178C49.8034 44.9235 49.8435 45.7492 49.8796 46.4988C49.8996 46.8716 49.9157 47.2243 49.9237 47.557C49.9357 48.1863 49.8836 48.8277 49.8315 49.4489C49.7834 50.0101 49.7353 50.5953 49.7353 51.1765C49.7353 51.5774 49.7433 52.0223 49.7834 52.4672C49.7794 52.4793 49.7834 52.4873 49.7874 52.4993C49.8155 52.7999 49.8596 53.1006 49.9237 53.3932L49.9397 53.4733C49.9918 53.7178 50.056 54.0145 50.1361 54.3031C50.1281 54.3231 50.1361 54.3432 50.1522 54.3592C50.2885 54.8161 50.4728 55.253 50.7414 55.4414C50.7053 55.6218 50.7614 55.7341 50.8737 55.8784C50.8857 55.8904 50.8977 55.8984 50.9138 55.8984C50.9178 55.8984 50.9218 55.8984 50.9298 55.8944C50.9498 55.8864 50.9659 55.8703 50.9659 55.8503C50.9739 55.7982 50.9819 55.7421 50.9899 55.686C50.9979 55.6379 51.0059 55.5898 51.01 55.5376C51.018 55.5376 51.022 55.5376 51.03 55.5376C51.038 55.5376 51.042 55.5376 51.05 55.5376C51.0581 55.5898 51.0661 55.6379 51.0701 55.686C51.0781 55.7421 51.0861 55.7982 51.0941 55.8503C51.0981 55.8703 51.1102 55.8904 51.1342 55.8944C51.1382 55.8944 51.1422 55.8984 51.1502 55.8984C51.1663 55.8984 51.1823 55.8904 51.1903 55.8784C51.3066 55.7341 51.3587 55.6218 51.3226 55.4414C51.5912 55.253 51.7796 54.8201 51.9118 54.3592C51.9279 54.3472 51.9359 54.3231 51.9279 54.3031C52.012 54.0105 52.0722 53.7178 52.1243 53.4733L52.1403 53.3932C52.2044 53.1006 52.2485 52.7959 52.2766 52.4953C52.2806 52.4833 52.2806 52.4753 52.2806 52.4632C52.3207 52.0143 52.3287 51.5734 52.3287 51.1725C52.3287 50.5913 52.2806 50.0101 52.2325 49.4449C52.1804 48.8236 52.1283 48.1823 52.1403 47.553C52.1483 47.2243 52.1644 46.8676 52.1844 46.4948C52.2205 45.7452 52.2606 44.9195 52.2165 44.1739C52.2365 44.202 52.2566 44.2341 52.2766 44.2661C52.3287 44.3383 52.3808 44.4104 52.4289 44.4786C52.5973 44.7231 52.7536 44.9556 53.0542 45.1039C53.2707 45.2081 53.3188 45.2281 53.427 45.4246C53.4991 45.5648 53.5873 45.7132 53.6955 45.8695C53.7998 46.0338 53.9 46.2062 53.9922 46.3745C54.0884 46.5429 54.1846 46.7152 54.2928 46.8836C54.3369 46.9517 54.377 47.0159 54.4211 47.08C54.6014 47.3566 54.7538 47.5931 54.862 47.9218C54.9101 48.0621 54.9381 48.2184 54.9622 48.3787C54.9983 48.6032 55.0383 48.8317 55.1426 49.0361C55.1867 49.1122 55.2468 49.1644 55.3189 49.2044C55.2869 49.3608 55.3109 49.4289 55.343 49.5131C55.363 49.5652 55.3831 49.6213 55.3991 49.7135C55.4231 49.8899 55.4151 50.0743 55.4031 50.2546C55.3991 50.3228 55.3951 50.3949 55.3951 50.4631C55.3911 50.6595 55.363 50.8599 55.339 51.0523C55.3229 51.1846 55.3029 51.3249 55.2909 51.4611C55.2668 51.7257 55.2067 51.9943 55.1466 52.2548C55.1185 52.375 55.0905 52.4953 55.0664 52.6196C55.0303 52.808 54.9943 53.0044 54.9622 53.1928C54.9141 53.4733 54.862 53.7619 54.7978 54.0425C54.7337 54.3231 54.6976 54.6197 54.6656 54.9123C54.6415 55.1047 54.6215 55.3052 54.5894 55.4976C54.5012 56.0347 54.4411 56.4515 54.4692 56.9526C54.4852 57.2492 54.4331 57.5138 54.377 57.7943C54.3409 57.9747 54.3008 58.1631 54.2848 58.3635C54.2848 58.3716 54.2808 58.3876 54.2808 58.3996C54.2527 58.6481 54.2447 58.9087 54.3649 58.9969C54.385 59.0089 54.413 59.0249 54.4491 59.0249C54.4611 59.0249 54.4732 59.0249 54.4852 59.0209C54.5012 59.045 54.5133 59.057 54.5293 59.073C54.8179 59.4498 55.1265 59.8106 55.4231 60.1593C55.6075 60.3797 55.7999 60.6042 55.9883 60.8367C56.2088 61.1053 56.4092 61.4019 56.6056 61.6905C56.6898 61.8147 56.778 61.943 56.8621 62.0673C57.0826 62.3799 57.3151 62.6805 57.5355 62.9691C57.8522 63.382 58.1849 63.8109 58.4775 64.2719C58.5617 64.4041 58.6419 64.5364 58.73 64.6807C59.0347 65.1777 59.3473 65.6948 59.7642 66.0756C59.7963 66.0997 59.9005 66.1798 60.0087 66.2279C60.0087 66.24 60.0127 66.256 60.0247 66.268C60.2252 66.4805 60.4737 66.6448 60.7142 66.8011C60.8625 66.8973 61.0148 66.9975 61.1471 67.1058C61.5399 67.4264 61.9367 67.7351 62.3175 68.0277C62.6662 68.2922 63.047 68.5688 63.496 68.8133C63.6042 68.8735 63.7164 68.9656 63.8327 69.0618C64.0451 69.2342 64.2616 69.4146 64.5061 69.4507C64.5261 69.4547 64.5421 69.4547 64.5622 69.4587C64.5662 69.4667 64.5742 69.4707 64.5822 69.4747C64.9029 69.635 65.2396 69.7593 65.5603 69.8836C65.7406 69.9517 65.929 70.0198 66.1094 70.096C66.406 70.2283 66.7267 70.3285 67.0313 70.4247C67.1836 70.4728 67.344 70.5249 67.4963 70.577C67.5123 70.581 67.5284 70.589 67.5524 70.597C67.7168 70.6532 67.8931 70.7133 68.0374 70.7133C68.0975 70.7133 68.1537 70.7013 68.1978 70.6772C68.2018 70.6732 68.2058 70.6692 68.2098 70.6692C68.3501 70.7093 68.5385 70.7413 68.7108 70.7413C68.783 70.7413 68.8511 70.7373 68.9112 70.7213C69.0636 70.6892 69.2439 70.6892 69.4323 70.6932C69.7289 70.6932 70.0376 70.6973 70.2741 70.565C70.3102 70.5449 70.3382 70.5249 70.3663 70.5089C70.3783 70.5209 70.3903 70.5289 70.4104 70.5289C70.4144 70.5289 70.4224 70.5289 70.4264 70.5249C70.5947 70.4648 70.7791 70.4407 70.9555 70.4167C71.3082 70.3686 71.669 70.3205 71.9375 70.0158C71.9576 69.9958 71.9536 69.9597 71.9335 69.9437C71.693 69.7192 71.0637 69.9557 70.4825 70.2203C70.4625 70.2283 70.4464 70.2363 70.4344 70.2443C70.3102 70.1842 70.0496 70.1962 69.8292 70.2162C69.6728 70.2323 69.5045 70.2724 69.3241 70.3165C68.9794 70.3966 68.6266 70.4848 68.33 70.3966C68.314 70.3926 68.294 70.3966 68.2819 70.4086C68.2779 70.4006 68.2739 70.3926 68.2699 70.3846C68.1737 70.2523 67.9011 70.2363 67.7208 70.2243C67.6847 70.2203 67.6526 70.2203 67.6366 70.2203C67.348 70.1601 67.0674 70.0719 66.7908 69.9838C66.5824 69.9156 66.3659 69.8475 66.1495 69.7954C66.0854 69.7793 66.0252 69.7633 65.9691 69.7513C65.7727 69.7032 65.6044 69.6631 65.432 69.5709C65.3398 69.5268 65.2476 69.4707 65.1594 69.4146C65.0352 69.3384 64.9069 69.2542 64.7666 69.2142C64.7546 69.2102 64.7386 69.2102 64.7265 69.2182C64.6223 69.0979 64.3978 68.9095 63.9329 68.5929C63.9048 68.5728 63.8888 68.5608 63.8808 68.5568L63.7164 68.4405C62.9749 67.9034 62.2734 67.3984 61.5239 66.9013C61.3755 66.8051 61.2393 66.6849 61.095 66.5566C60.8585 66.3482 60.614 66.1357 60.3214 66.0275C60.3214 66.0155 60.3173 66.0075 60.3173 65.9954C60.2612 65.6828 59.9686 65.3301 59.7121 65.0254C59.6239 64.9212 59.5397 64.821 59.4756 64.7328C59.191 64.344 58.9024 63.9111 58.6258 63.4902C58.0166 62.6364 57.3832 61.7506 56.6898 60.9128C56.5655 60.7685 56.4333 60.6283 56.305 60.488C56.0845 60.2475 55.852 59.9989 55.6636 59.7424C55.5795 59.6262 55.4953 59.5099 55.4151 59.3937C55.2267 59.1251 55.0343 58.8485 54.8099 58.584L54.8059 58.58C54.8059 58.576 54.8059 58.576 54.8099 58.572C54.8179 58.5439 54.8259 58.5199 54.8339 58.4958C54.9101 58.2473 54.9221 57.9948 54.9341 57.7503C54.9421 57.61 54.9462 57.4697 54.9662 57.3294C54.9943 57.137 55.0023 56.9486 55.0063 56.7682C55.0103 56.5638 55.0183 56.3513 55.0584 56.1349C55.1907 55.4615 55.2548 54.768 55.3189 54.0946C55.3951 53.289 55.4712 52.4552 55.6677 51.6616C55.8761 50.8158 55.8881 50.0382 55.8761 49.1884C55.9723 49.1002 55.9963 48.972 55.9322 48.8317C55.8761 48.6994 55.816 48.5791 55.7598 48.4589C55.6596 48.2585 55.5674 48.0661 55.4953 47.8376C55.3911 47.4808 55.2428 47.1441 55.0504 46.8155C54.369 45.661 53.6515 44.5307 52.9139 43.4404C53.1103 43.5727 53.3468 43.729 53.6114 43.9134C53.7517 44.0016 53.9 44.0777 54.0403 44.1539C54.2206 44.2501 54.409 44.3503 54.5814 44.4706C54.6495 44.5147 54.7177 44.5628 54.7858 44.6068C54.8179 44.6309 54.854 44.6509 54.886 44.675C55.0183 44.8113 55.1546 44.9436 55.2909 45.0718C55.351 45.1319 55.4151 45.1921 55.4753 45.2482C55.7999 45.5648 56.1406 45.8735 56.4733 46.1701C56.7299 46.4026 56.9944 46.6431 57.251 46.8836C57.3351 46.9638 57.4153 47.076 57.5035 47.1922C57.6598 47.4047 57.8242 47.6292 58.0406 47.7173C58.0967 47.7374 58.1488 47.7494 58.2009 47.7534C58.4254 48.3707 58.6619 49.0882 58.734 49.7776C58.8583 51.0643 59.179 52.355 59.4876 53.6096C59.664 54.3271 59.8484 55.0727 59.9927 55.7982C60.0287 55.9826 60.0327 56.187 60.0368 56.3834C60.0408 56.68 60.0488 56.9847 60.157 57.2452C60.1891 57.3174 60.2813 57.5338 60.4176 57.5338C60.4216 57.5378 60.4216 57.5378 60.4256 57.5418C60.4897 57.5859 60.5458 57.638 60.61 57.6901C60.6901 57.7583 60.7743 57.8264 60.8665 57.8905C61.0429 58.0108 61.2232 58.1391 61.3956 58.2593C61.8285 58.5639 62.2814 58.8806 62.7584 59.1572C63.4439 59.558 64.0611 59.9228 64.6303 60.3517C64.947 60.5761 65.2717 60.8046 65.6044 61.005C65.6885 61.0571 66.0453 61.2616 66.2938 61.2696C66.4221 61.5061 66.5704 61.7386 66.7147 61.963C66.9071 62.2637 67.1075 62.5723 67.2598 62.897C67.2919 62.9611 67.332 63.0653 67.372 63.1816C67.4803 63.4862 67.6045 63.8349 67.8049 63.9071C67.8089 63.9071 67.813 63.9111 67.821 63.9111C67.821 63.9111 67.821 63.9151 67.825 63.9151C67.9132 64.0233 68.0494 64.0915 68.1737 64.1476C68.2178 64.1676 68.2579 64.1877 68.298 64.2077C68.4543 64.2799 68.6106 64.364 68.7589 64.4442C68.9112 64.5244 69.0676 64.6126 69.2279 64.6847C69.3842 64.7569 69.5646 64.813 69.7811 64.8611C69.7891 64.8651 69.9093 64.9012 70.0175 64.9012C70.0496 64.9012 70.0777 64.8972 70.1057 64.8891C70.1137 64.8972 70.1218 64.9012 70.1298 64.9012C70.1618 64.9092 70.218 64.9212 70.2821 64.9372C70.4785 64.9893 70.7671 65.0655 70.9956 65.0655C71.0918 65.0655 71.176 65.0535 71.2401 65.0174C71.2441 65.0174 71.2481 65.0174 71.2521 65.0174C71.2601 65.0174 71.2682 65.0174 71.2722 65.0134C71.4485 64.9332 71.6289 64.8891 71.8133 64.8451C71.8975 64.825 71.9856 64.801 72.0738 64.7769C72.0818 64.7769 72.7993 64.5845 72.8595 64.4202C72.8835 64.344 72.8555 64.3039 72.8314 64.2799C72.7472 64.1997 72.5348 64.2398 72.1059 64.4081C72.0899 64.4162 72.0778 64.4202 72.0698 64.4242C72.0097 64.4482 71.9456 64.4763 71.8814 64.5043C71.701 64.5845 71.5167 64.6647 71.3283 64.6727C71.3203 64.6727 71.3122 64.6767 71.3042 64.6807C71.1359 64.5605 70.6629 64.5685 70.226 64.5885C70.1699 64.5925 70.1258 64.5925 70.0897 64.5925C69.9213 64.4322 69.5566 64.3079 69.288 64.2157C69.2239 64.1957 69.1638 64.1757 69.1157 64.1556C69.0515 64.1316 68.9834 64.1075 68.9152 64.0835C68.6266 63.9792 68.298 63.855 68.0535 63.6706C68.0334 63.5343 67.9573 63.3098 67.7689 62.9411L67.7608 62.921C67.6646 62.7166 67.5404 62.5322 67.4241 62.3519C67.34 62.2276 67.2518 62.0953 67.1756 61.959C67.1516 61.9149 67.1235 61.8588 67.0914 61.7987C66.9311 61.4981 66.7147 61.0852 66.5102 60.9169C66.414 60.5601 65.9491 60.2194 65.7206 60.0511C65.4801 59.8867 65.2236 59.7544 64.975 59.6262C64.9189 59.5981 64.8628 59.57 64.8067 59.538C64.1974 59.2333 63.5401 58.8966 62.8707 58.4918C62.4818 58.2433 62.085 58.0389 61.7122 57.8505C61.6682 57.8264 61.6241 57.8024 61.572 57.7743C61.2753 57.61 60.8705 57.3895 60.7062 57.137C60.6981 57.125 60.6861 57.1169 60.6701 57.1129C60.7222 56.8925 60.7382 56.648 60.7302 56.5518C60.7182 56.175 60.626 55.7942 60.5378 55.4254C60.5138 55.3212 60.4857 55.213 60.4657 55.1087C60.4256 54.8963 60.3895 54.6799 60.3534 54.4714C60.2973 54.1427 60.2412 53.802 60.165 53.4733C60.0488 52.9322 59.9245 52.3791 59.8003 51.8459C59.68 51.3168 59.5517 50.7677 59.4355 50.2266C59.3112 49.7095 59.1669 49.2044 59.0267 48.7194C59.0106 48.6593 58.9946 48.5831 58.9745 48.4909C58.8824 48.054 58.7381 47.4007 58.4134 47.2764C58.3813 47.2243 58.3452 47.1722 58.3052 47.1201C58.2651 47.068 58.229 47.0239 58.2049 46.9758C57.7881 46.2783 57.255 45.9096 56.6417 45.4847C56.5776 45.4406 56.5134 45.3965 56.4493 45.3524C56.3932 45.3123 56.3411 45.2722 56.293 45.2281C56.297 45.2281 56.301 45.2322 56.309 45.2322C56.317 45.2322 56.317 45.2322 56.325 45.2281C56.3531 45.2322 56.3811 45.2402 56.4092 45.2482C57.0586 45.4085 57.772 45.5368 58.5296 45.621C58.6659 45.637 58.7982 45.653 58.9264 45.6691C59.3593 45.7212 59.7722 45.7693 60.2091 45.7693C60.2492 45.7693 60.2893 45.7693 60.3294 45.7693C60.4777 45.7653 60.626 45.7572 60.7743 45.7532C61.2874 45.7372 61.8205 45.7212 62.3295 45.649C62.4538 45.633 62.5781 45.617 62.7023 45.6049C62.9548 45.5769 63.2114 45.5528 63.4679 45.4887C63.7204 45.4286 63.9609 45.3404 64.1934 45.2602C64.3177 45.2161 64.4459 45.172 64.5742 45.1279C65.436 44.8474 66.2617 44.4666 67.0634 44.0978C67.6326 43.8332 68.2258 43.5607 68.8231 43.3282C69.1998 43.1919 69.4604 43.0676 69.6648 42.6468L69.6889 42.5947C69.8412 42.266 70.0135 41.8932 69.9334 41.5084C69.8412 41.0554 69.4724 40.8069 69.2039 40.6626C69.1477 40.6306 69.0916 40.5945 69.0395 40.5624C68.7509 40.386 68.5024 40.2337 68.1336 40.1776C67.9372 40.1455 67.7408 40.1055 67.5324 40.0614C67.0193 39.9531 66.4902 39.8409 65.9771 39.9091C65.7567 39.9451 65.5603 40.0213 65.3719 40.0974C65.2075 40.1616 65.0512 40.2217 64.8869 40.2578C64.8147 40.2698 64.7426 40.2858 64.6744 40.2979C64.466 40.3379 64.2696 40.378 64.0451 40.3901C63.3917 40.4261 62.7424 40.5223 62.1131 40.6185C61.616 40.6947 61.099 40.7708 60.5819 40.8149C60.0247 40.863 59.5357 41.0114 59.0146 41.1637L58.8423 41.2158C58.3693 41.3561 57.8322 41.3881 57.3111 41.4202C57.1467 41.4282 56.9944 41.4402 56.8421 41.4523C56.4533 41.4924 56.0605 41.5084 55.6797 41.5284C55.5514 41.5324 55.4191 41.5405 55.2909 41.5485C54.9902 41.5605 54.6976 41.6166 54.4171 41.6687C54.0042 41.7489 53.6154 41.821 53.2025 41.7649C53.2466 41.6126 53.2667 41.4483 53.2827 41.2839C53.3228 40.8751 53.3148 40.5023 53.2626 40.1375C53.2306 39.9211 53.2145 39.6886 53.1945 39.4641C53.1825 39.3118 53.1705 39.1595 53.1544 39.0072C53.1865 38.9631 53.2226 38.919 53.2626 38.8709C53.3468 38.7707 53.435 38.6665 53.4591 38.5342C53.4631 38.5342 53.4631 38.5342 53.4671 38.5342C53.4711 38.5342 53.4751 38.5342 53.4831 38.5302C53.924 38.4059 54.2687 38.2255 54.6656 38.0211L54.6816 38.0131C54.8379 37.9329 54.9943 37.8407 55.1466 37.7485C55.3991 37.6002 55.6556 37.4479 55.9202 37.3397C56.2288 37.2074 56.5415 37.0591 56.8421 36.9188C56.9944 36.8467 57.1507 36.7745 57.3071 36.7024C57.4714 36.6182 57.6438 36.546 57.8081 36.4779C58.0486 36.3817 58.2931 36.2815 58.5176 36.1332C58.5457 36.1131 58.5897 36.0931 58.6378 36.065C58.734 36.0129 58.8463 35.9528 58.9385 35.8847C58.9425 35.8887 58.9505 35.8927 58.9545 35.8927C58.9826 35.9007 59.0146 35.9007 59.0467 35.9007C59.4315 35.9007 59.8684 35.3956 60.1931 35.0189C60.2853 34.9146 60.3614 34.8224 60.4256 34.7623C60.5378 34.6541 60.654 34.5499 60.7623 34.4457C61.099 34.133 61.4116 33.8404 61.7082 33.4796L61.8325 33.3193C62.3736 32.6299 62.9348 31.9164 63.4639 31.1909C63.6403 30.9544 63.8287 30.7179 64.009 30.4934C64.3978 30.0084 64.7947 29.5114 65.0993 28.9502C65.1234 28.9061 65.1674 28.8259 65.2276 28.7257C65.424 28.393 65.6044 28.0764 65.6805 27.8439C65.6845 27.8439 65.6845 27.8439 65.6885 27.8439C65.6965 27.8439 65.7006 27.8439 65.7086 27.8399C65.8128 27.7998 65.921 27.7597 66.0252 27.7236C66.4261 27.5793 66.8389 27.427 67.2237 27.1985C67.4241 27.0863 67.6246 26.958 67.821 26.8298C68.0535 26.6815 68.294 26.5251 68.5304 26.4009C68.6347 26.3568 69.2199 26.0682 69.4283 25.7956C69.4363 25.7996 69.4444 25.7996 69.4524 25.7996C69.4604 25.7996 69.4724 25.7956 69.4804 25.7916C69.6688 25.6714 69.8572 25.5872 70.0536 25.499C70.2019 25.4309 70.3542 25.3627 70.5106 25.2785C70.5787 25.2385 70.6469 25.1944 70.711 25.1503C70.8152 25.0821 70.9114 25.014 71.0196 24.9619C71.0557 24.9499 71.1078 24.9338 71.1679 24.9218C71.3122 24.8857 71.4686 24.8456 71.5608 24.7735C71.5648 24.7735 71.5688 24.7735 71.5688 24.7735C71.5728 24.7735 71.5768 24.7735 71.5848 24.7735C71.7211 24.7374 72.5468 24.3246 72.7913 24.044C72.7993 24.044 72.8033 24.044 72.8114 24.04C72.8194 24.036 73.5329 23.7554 73.8255 23.5109C73.8295 23.5109 73.8335 23.5109 73.8375 23.5109C73.8455 23.5109 73.8535 23.5109 73.8615 23.5028C74.082 23.3866 74.2103 23.2183 74.3385 23.0499C74.3947 22.9777 74.4508 22.9016 74.5149 22.8334C74.7715 22.5569 74.9278 22.3284 75.04 22.0719C74.9999 22.0558 74.9999 22.0358 74.9879 22.0198Z" fill="#E2E7EB"/>
</g>
</g>
<defs>
<filter id="filter0_dii_3_237" x="0.801727" y="0" width="104.397" height="96" filterUnits="userSpaceOnUse" color-interpolation-filters="sRGB">
<feFlood flood-opacity="0" result="BackgroundImageFix"/>
<feColorMatrix in="SourceAlpha" type="matrix" values="0 0 0 0 0 0 0 0 0 0 0 0 0 0 0 0 0 0 127 0" result="hardAlpha"/>
<feOffset dx="2" dy="2"/>
<feGaussianBlur stdDeviation="2"/>
<feColorMatrix type="matrix" values="0 0 0 0 0 0 0 0 0 0 0 0 0 0 0 0 0 0 0.25 0"/>
<feBlend mode="normal" in2="BackgroundImageFix" result="effect1_dropShadow_3_237"/>
<feBlend mode="normal" in="SourceGraphic" in2="effect1_dropShadow_3_237" result="shape"/>
<feColorMatrix in="SourceAlpha" type="matrix" values="0 0 0 0 0 0 0 0 0 0 0 0 0 0 0 0 0 0 127 0" result="hardAlpha"/>
<feOffset dx="5" dy="5"/>
<feGaussianBlur stdDeviation="1"/>
<feComposite in2="hardAlpha" operator="arithmetic" k2="-1" k3="1"/>
<feColorMatrix type="matrix" values="0 0 0 0 1 0 0 0 0 1 0 0 0 0 1 0 0 0 0.25 0"/>
<feBlend mode="normal" in2="shape" result="effect2_innerShadow_3_237"/>
<feColorMatrix in="SourceAlpha" type="matrix" values="0 0 0 0 0 0 0 0 0 0 0 0 0 0 0 0 0 0 127 0" result="hardAlpha"/>
<feOffset dx="-5" dy="-5"/>
<feGaussianBlur stdDeviation="1"/>
<feComposite in2="hardAlpha" operator="arithmetic" k2="-1" k3="1"/>
<feColorMatrix type="matrix" values="0 0 0 0 0 0 0 0 0 0 0 0 0 0 0 0 0 0 1 0"/>
<feBlend mode="normal" in2="effect2_innerShadow_3_237" result="effect3_innerShadow_3_237"/>
</filter>
<filter id="filter1_ii_3_237" x="25.9998" y="20.9987" width="50.0402" height="50.7426" filterUnits="userSpaceOnUse" color-interpolation-filters="sRGB">
<feFlood flood-opacity="0" result="BackgroundImageFix"/>
<feBlend mode="normal" in="SourceGraphic" in2="BackgroundImageFix" result="shape"/>
<feColorMatrix in="SourceAlpha" type="matrix" values="0 0 0 0 0 0 0 0 0 0 0 0 0 0 0 0 0 0 127 0" result="hardAlpha"/>
<feOffset dx="-1" dy="-1"/>
<feGaussianBlur stdDeviation="1"/>
<feComposite in2="hardAlpha" operator="arithmetic" k2="-1" k3="1"/>
<feColorMatrix type="matrix" values="0 0 0 0 0.972549 0 0 0 0 0.976471 0 0 0 0 0.980392 0 0 0 1 0"/>
<feBlend mode="normal" in2="shape" result="effect1_innerShadow_3_237"/>
<feColorMatrix in="SourceAlpha" type="matrix" values="0 0 0 0 0 0 0 0 0 0 0 0 0 0 0 0 0 0 127 0" result="hardAlpha"/>
<feOffset dx="1" dy="1"/>
<feGaussianBlur stdDeviation="1"/>
<feComposite in2="hardAlpha" operator="arithmetic" k2="-1" k3="1"/>
<feColorMatrix type="matrix" values="0 0 0 0 0.439216 0 0 0 0 0.478431 0 0 0 0 0.537255 0 0 0 1 0"/>
<feBlend mode="normal" in2="effect1_innerShadow_3_237" result="effect2_innerShadow_3_237"/>
</filter>
<clipPath id="clip0_3_237">
<rect width="48" height="48.7255" fill="white" transform="translate(27 22)"/>
</clipPath>
</defs>
</svg>
