<svg width="106" height="96" viewBox="0 0 106 96" fill="none" xmlns="http://www.w3.org/2000/svg">
<g filter="url(#filter0_dii_1_388)">
<path d="M4.36824 51.9281C2.27955 48.252 2.27955 43.748 4.36824 40.0719L22.5501 8.07188C24.6826 4.31862 28.6667 2 32.9835 2L69.0165 1.99999C73.3333 1.99999 77.3174 4.31861 79.4499 8.07188L97.6318 40.0719C99.7204 43.748 99.7204 48.252 97.6318 51.9281L79.4499 83.9281C77.3174 87.6814 73.3333 90 69.0165 90L32.9835 90C28.6667 90 24.6826 87.6814 22.5501 83.9281L4.36824 51.9281Z" fill="#221B11"/>
<path d="M4.47693 40.1336L22.6587 8.13364C24.7691 4.41946 28.7117 2.125 32.9835 2.125L69.0165 2.125C73.2883 2.125 77.2309 4.41946 79.3413 8.13363L97.5231 40.1336C99.59 43.7714 99.59 48.2285 97.5231 51.8664L79.3413 83.8664C77.2309 87.5805 73.2883 89.875 69.0165 89.875L32.9835 89.875C28.7117 89.875 24.7691 87.5805 22.6587 83.8664L4.47693 51.8664C2.40999 48.2285 2.40999 43.7714 4.47693 40.1336Z" stroke="#403522" stroke-width="0.25"/>
</g>
<g clip-path="url(#clip0_1_388)">
<g filter="url(#filter1_ii_1_388)">
<path fill-rule="evenodd" clip-rule="evenodd" d="M50.6374 30.4661C49.959 30.4661 49.3636 30.8906 49.0171 30.5393C48.0264 29.5339 44.6981 26.1177 44.5565 25.9762C44.3369 25.7566 44.1222 25.8249 44.1661 25.3564C44.3857 23.0431 44.7517 20.7299 44.8933 18.4313C45.0055 16.567 45.1129 13.2338 44.3418 14.1659C43.7318 14.9077 44.0636 15.7178 44.1612 16.6207C44.3467 18.3532 44.1759 20.0027 44.0587 21.7596C43.9611 23.2432 43.7806 25.8591 43.639 26.0299C43.3218 26.4154 44.0343 26.8058 44.2832 27.0059C46.1036 28.4603 47.5579 29.7779 48.6413 30.9443C48.8756 31.1932 48.7145 31.1347 48.412 31.3787C46.0401 33.2917 44.4296 38.9919 48.939 39.4116C49.5247 39.4653 49.4027 39.3579 49.0562 39.8362C48.1826 41.0319 46.7917 43.8527 48.1191 44.0772C48.2704 44.1016 48.2363 45.5022 48.5437 46.161C48.8024 46.7076 48.6364 46.8296 47.9727 46.8247C46.7673 46.8199 46.0743 45.3167 45.7132 44.2821C45.3862 43.3451 45.1129 42.6668 44.8933 42.2519C44.6053 41.7102 44.62 41.9494 44.5663 41.2808C44.3467 38.7479 44.049 37.4009 43.6781 37.235C43.4926 37.1569 43.4926 37.0398 43.3999 36.7079C42.7752 34.3947 42.2628 32.9745 41.7162 31.896C40.8914 30.2757 39.8178 29.5974 41.1891 32.2327C42.0871 33.9652 43.19 37.0935 42.8338 37.2545C42.5117 37.396 43.0778 37.9963 43.3169 38.5624C43.7806 39.6556 44.1368 41.3686 43.9514 42.2763C43.8342 42.8668 44.1271 44.2577 45.8937 46.3806C47.0064 47.713 48.2997 47.6056 48.2119 48.1424C48.124 48.6695 48.2607 49.1185 47.8166 49.3332C46.3866 50.0213 45.2446 48.2303 44.3418 47.2445C43.7318 46.5807 43.2877 46.205 42.4287 46.9907C40.4864 48.772 39.4566 49.8798 39.3444 50.3141C39.2761 50.5826 39.1443 50.6997 38.8808 50.9876C36.953 53.1008 35.4841 54.194 33.9663 54.8138C32.4193 55.4531 32.9073 55.8337 34.1664 55.4092C35.5134 54.9504 36.4016 54.2379 37.5045 53.2521C38.4464 52.4176 39.7592 51.2316 39.7934 51.2707C40.0374 51.5489 40.418 50.3678 40.5693 50.0799C41.2184 48.8354 42.8045 46.9712 43.2828 47.7227C43.722 48.4255 43.8245 49.1038 44.864 49.8066C46.4842 50.8949 48.2948 50.28 48.5632 50.7973C48.778 51.2121 48.9927 51.3536 48.5876 51.5196C47.0016 52.1589 48.085 53.6035 46.8991 54.3892C45.5911 55.2579 43.8879 55.7752 42.6288 56.7512C42.0334 57.21 40.6084 62.466 40.9744 63.1688C41.1598 63.53 40.6816 68.7323 40.4815 71.0358C40.3107 72.9782 39.5103 75.3793 38.9442 77.4095C38.5587 78.7906 39.5152 77.468 40.1106 76.3846C40.6669 75.3744 40.9256 71.2213 41.2965 71.3921C42.0139 71.7288 41.2721 70.66 41.2916 69.9231C41.3355 68.2736 41.4624 63.5007 41.7552 63.4665C42.2774 63.4079 42.1701 62.5978 42.214 61.9927C42.3262 60.4407 42.4043 57.7419 43.3121 57.2685C43.5463 57.1465 44.6737 56.6732 45.1129 56.7903C45.5765 56.2388 46.1377 55.7654 46.7819 55.4043C41.6967 59.533 46.0694 71.1871 50.6422 71.1871C55.2151 71.1871 59.5829 59.533 54.4928 55.4043C55.137 55.7654 55.6982 56.2388 56.1618 56.7903C56.6011 56.6683 57.7235 57.1465 57.9627 57.2685C58.8704 57.7419 58.9485 60.4407 59.0607 61.9927C59.1047 62.5978 58.9973 63.4128 59.5195 63.4665C59.8123 63.5007 59.9392 68.2736 59.9831 69.9231C60.0026 70.66 59.2608 71.7288 59.9782 71.3921C60.3443 71.2213 60.6078 75.3744 61.1641 76.3846C61.7595 77.468 62.7161 78.7955 62.3305 77.4095C61.7644 75.3793 60.9592 72.9782 60.7932 71.0358C60.5931 68.7323 60.1149 63.53 60.3003 63.1688C60.6664 62.466 59.2413 57.21 58.6459 56.7512C57.3868 55.7752 55.6885 55.2628 54.3757 54.3892C53.1849 53.5986 54.2732 52.1589 52.6871 51.5196C52.2771 51.3536 52.4919 51.2121 52.7115 50.7973C52.9799 50.2751 54.7905 50.8949 56.4107 49.8066C57.4502 49.1038 57.5527 48.4255 57.992 47.7227C58.4702 46.9712 60.0563 48.8354 60.7054 50.0799C60.8567 50.3727 61.2373 51.5537 61.4814 51.2707C61.5155 51.2316 62.8332 52.4176 63.7702 53.2521C64.8732 54.233 65.7614 54.9504 67.1083 55.4092C68.3674 55.8337 68.8603 55.4531 67.3084 54.8138C65.7955 54.1891 64.3266 53.0959 62.394 50.9925C62.1304 50.7046 61.9987 50.5874 61.9303 50.319C61.8181 49.8798 60.7884 48.772 58.846 46.9956C57.9871 46.2098 57.543 46.5905 56.9329 47.2493C56.0301 48.2352 54.8881 50.0262 53.4582 49.3381C53.0141 49.1234 53.1507 48.6744 53.0629 48.1473C52.975 47.6105 54.2683 47.7178 55.381 46.3855C57.1477 44.2626 57.4405 42.8717 57.3234 42.2812C57.1379 41.3686 57.4942 39.6605 57.9578 38.5673C58.192 38.0012 58.763 37.4058 58.4409 37.2594C58.0847 37.1032 59.1876 33.9701 60.0856 32.2376C61.4521 29.5974 60.3833 30.2757 59.5585 31.9009C59.0119 32.9745 58.4995 34.3947 57.8748 36.7128C57.787 37.0447 57.7821 37.1569 57.5966 37.2399C57.2257 37.4009 56.9329 38.7528 56.7084 41.2856C56.6499 41.9591 56.6645 41.7151 56.3815 42.2568C56.1618 42.6716 55.8885 43.3451 55.5616 44.287C55.2004 45.3216 54.5074 46.8248 53.302 46.8296C52.6383 46.8345 52.4723 46.7125 52.731 46.1659C53.0433 45.5071 53.0043 44.1064 53.1556 44.082C54.483 43.8575 53.0921 41.0367 52.2186 39.8411C51.8672 39.3628 51.7452 39.4702 52.3357 39.4165C56.8451 38.9968 55.2346 33.2966 52.8628 31.3835C52.5602 31.1395 52.3991 31.1981 52.6334 30.9492C53.7217 29.7828 55.1711 28.47 56.9915 27.0108C57.2404 26.8107 57.9529 26.4252 57.6357 26.0348C57.4942 25.8639 57.3136 23.2481 57.216 21.7645C57.0989 20.0076 56.9281 18.3581 57.1135 16.6256C57.2111 15.7178 57.543 14.9126 56.9329 14.1708C56.1667 13.2387 56.2741 16.5719 56.3815 18.4362C56.5181 20.7299 56.889 23.048 57.1086 25.3613C57.1525 25.8298 56.9378 25.7615 56.7182 25.9811C56.5718 26.1275 53.2483 29.5437 52.2576 30.5441C51.9062 30.8906 51.3157 30.4661 50.6374 30.4661Z" fill="url(#paint0_linear_1_388)"/>
</g>
</g>
<defs>
<filter id="filter0_dii_1_388" x="0.801727" y="0" width="104.397" height="96" filterUnits="userSpaceOnUse" color-interpolation-filters="sRGB">
<feFlood flood-opacity="0" result="BackgroundImageFix"/>
<feColorMatrix in="SourceAlpha" type="matrix" values="0 0 0 0 0 0 0 0 0 0 0 0 0 0 0 0 0 0 127 0" result="hardAlpha"/>
<feOffset dx="2" dy="2"/>
<feGaussianBlur stdDeviation="2"/>
<feColorMatrix type="matrix" values="0 0 0 0 0 0 0 0 0 0 0 0 0 0 0 0 0 0 0.25 0"/>
<feBlend mode="normal" in2="BackgroundImageFix" result="effect1_dropShadow_1_388"/>
<feBlend mode="normal" in="SourceGraphic" in2="effect1_dropShadow_1_388" result="shape"/>
<feColorMatrix in="SourceAlpha" type="matrix" values="0 0 0 0 0 0 0 0 0 0 0 0 0 0 0 0 0 0 127 0" result="hardAlpha"/>
<feOffset dx="5" dy="5"/>
<feGaussianBlur stdDeviation="1"/>
<feComposite in2="hardAlpha" operator="arithmetic" k2="-1" k3="1"/>
<feColorMatrix type="matrix" values="0 0 0 0 1 0 0 0 0 1 0 0 0 0 1 0 0 0 0.25 0"/>
<feBlend mode="normal" in2="shape" result="effect2_innerShadow_1_388"/>
<feColorMatrix in="SourceAlpha" type="matrix" values="0 0 0 0 0 0 0 0 0 0 0 0 0 0 0 0 0 0 127 0" result="hardAlpha"/>
<feOffset dx="-5" dy="-5"/>
<feGaussianBlur stdDeviation="1"/>
<feComposite in2="hardAlpha" operator="arithmetic" k2="-1" k3="1"/>
<feColorMatrix type="matrix" values="0 0 0 0 0 0 0 0 0 0 0 0 0 0 0 0 0 0 1 0"/>
<feBlend mode="normal" in2="effect2_innerShadow_1_388" result="effect3_innerShadow_1_388"/>
</filter>
<filter id="filter1_ii_1_388" x="31.9985" y="13.0047" width="37.2797" height="65.9996" filterUnits="userSpaceOnUse" color-interpolation-filters="sRGB">
<feFlood flood-opacity="0" result="BackgroundImageFix"/>
<feBlend mode="normal" in="SourceGraphic" in2="BackgroundImageFix" result="shape"/>
<feColorMatrix in="SourceAlpha" type="matrix" values="0 0 0 0 0 0 0 0 0 0 0 0 0 0 0 0 0 0 127 0" result="hardAlpha"/>
<feOffset dx="-1" dy="-1"/>
<feGaussianBlur stdDeviation="1"/>
<feComposite in2="hardAlpha" operator="arithmetic" k2="-1" k3="1"/>
<feColorMatrix type="matrix" values="0 0 0 0 0.597396 0 0 0 0 0.777578 0 0 0 0 0.925 0 0 0 1 0"/>
<feBlend mode="normal" in2="shape" result="effect1_innerShadow_1_388"/>
<feColorMatrix in="SourceAlpha" type="matrix" values="0 0 0 0 0 0 0 0 0 0 0 0 0 0 0 0 0 0 127 0" result="hardAlpha"/>
<feOffset dx="1" dy="1"/>
<feGaussianBlur stdDeviation="1"/>
<feComposite in2="hardAlpha" operator="arithmetic" k2="-1" k3="1"/>
<feColorMatrix type="matrix" values="0 0 0 0 0.0753472 0 0 0 0 0.35474 0 0 0 0 0.583333 0 0 0 1 0"/>
<feBlend mode="normal" in2="effect1_innerShadow_1_388" result="effect2_innerShadow_1_388"/>
</filter>
<linearGradient id="paint0_linear_1_388" x1="51" y1="78" x2="51" y2="14" gradientUnits="userSpaceOnUse">
<stop stop-color="#058BCC"/>
<stop offset="1" stop-color="#8EC1DA"/>
</linearGradient>
<clipPath id="clip0_1_388">
<rect width="35.2747" height="64" fill="white" transform="translate(33 14)"/>
</clipPath>
</defs>
</svg>
