<svg width="106" height="96" viewBox="0 0 106 96" fill="none" xmlns="http://www.w3.org/2000/svg">
<g filter="url(#filter0_dii_1_390)">
<path d="M4.36824 51.9281C2.27955 48.252 2.27955 43.748 4.36824 40.0719L22.5501 8.07188C24.6826 4.31862 28.6667 2 32.9835 2L69.0165 2C73.3332 2 77.3174 4.31862 79.4499 8.07188L97.6317 40.0719C99.7204 43.748 99.7204 48.252 97.6318 51.9281L79.4499 83.9281C77.3174 87.6814 73.3333 90 69.0165 90L32.9835 90C28.6667 90 24.6826 87.6814 22.5501 83.9281L4.36824 51.9281Z" fill="#221B11"/>
<path d="M4.47693 51.8664C2.40999 48.2286 2.40999 43.7714 4.47693 40.1336L22.6587 8.13364C24.7691 4.41946 28.7117 2.125 32.9835 2.125L69.0165 2.125C73.2883 2.125 77.2309 4.41946 79.3413 8.13363L97.5231 40.1336C99.59 43.7714 99.59 48.2285 97.5231 51.8664L79.3413 83.8664C77.2309 87.5805 73.2883 89.875 69.0165 89.875L32.9835 89.875C28.7117 89.875 24.7691 87.5805 22.6587 83.8664L4.47693 51.8664Z" stroke="#403522" stroke-width="0.25"/>
</g>
<g clip-path="url(#clip0_1_390)">
<g filter="url(#filter1_ii_1_390)">
<path d="M58.9051 31.6349C59.2214 31.6349 60.9605 31.2675 63.8854 33.7658C63.8854 33.7658 63.8854 34.2801 65.3083 33.7658C65.3083 33.7658 69.0237 32.8106 70.4466 32.2227C71.8696 31.6349 70.0514 30.8266 70.0514 31.4879C70.0514 31.4879 70.0514 32.2227 69.7352 31.4879C69.419 30.7531 69.498 32.0758 69.3399 31.8553C69.1818 31.6349 68.7075 31.1205 68.7075 32.0758C68.7075 32.0758 67.9961 31.2675 68.2332 32.4432C68.2332 32.4432 65.1502 33.5453 64.6759 33.3984C64.2016 33.2514 60.249 30.7531 59.2214 31.1205C59.2214 31.1205 58.3518 31.0471 58.0356 31.1205C57.7984 31.194 57.4822 30.4592 57.166 30.7531C56.8498 31.0471 58.1146 28.3284 58.747 27.1527C59.3795 25.977 59.7747 21.7887 58.9051 21.4948C58.9051 21.4948 57.7984 19.3639 57.3241 19.2905C57.3241 19.2905 52.4229 14.2204 52.1067 14C51.7905 13.7796 50.8419 14.147 51.4743 14.3674C51.4743 14.3674 51.7905 14.4409 51.8696 14.8083C51.8696 14.8083 52.1858 15.1022 51.9486 15.4696C51.9486 15.4696 51.8696 15.9104 52.9763 15.7635C52.9763 15.7635 53.1344 16.3513 52.4229 16.4983C51.7115 16.5717 52.0277 17.0126 52.8972 17.0126C52.8972 17.0126 54.083 17.6005 53.6878 17.8209C53.2925 18.1148 53.2134 18.2618 54.004 18.3352C54.004 18.3352 55.5059 19.8048 54.3992 20.1722C54.3992 20.1722 50.7629 21.3479 54.7154 21.1274C54.7154 21.1274 57.0079 21.7887 55.664 22.2296C55.664 22.2296 55.0316 22.8909 56.3755 22.8909C56.3755 22.8909 57.0079 22.8174 57.0079 23.4788C57.0079 24.1401 57.166 25.6831 56.1383 26.4179C56.1383 26.4179 54.6364 28.9162 54.083 29.2101C53.6087 29.504 53.9249 29.0631 53.6087 28.7692C53.2925 28.4018 53.3715 27.961 52.7391 28.1079C52.7391 28.1079 52.581 27.8875 52.2648 27.961C52.2648 27.961 52.0277 27.667 51.5534 27.814C51.0791 27.961 51.5534 28.1079 51.8696 28.1814C51.8696 28.1814 52.0277 28.0344 52.2648 28.2549C52.502 28.4753 52.4229 28.2549 52.7391 28.4018C53.0553 28.5488 52.8972 28.4018 53.0553 28.5488C53.2134 28.6957 53.3715 28.5488 53.2134 28.9162C53.2134 28.9162 53.9249 29.1366 53.4506 29.4305C53.4506 29.4305 53.6878 29.7244 53.1344 29.8714C53.1344 29.8714 53.2925 30.6797 52.502 30.7531C52.502 30.7531 52.3439 30.3858 52.581 30.2388C52.7391 30.0184 53.2925 29.8714 52.8182 29.5775C52.3439 29.2836 52.581 28.8427 52.502 28.6957C52.4229 28.5488 51.5534 28.4753 51.4743 28.9162C51.4743 28.9162 51.9486 29.651 51.5534 29.8714L51.3953 29.9449C51.3162 29.9449 50.921 29.9449 50.921 29.9449L50.7629 29.8714C50.3676 29.651 50.8419 28.9162 50.8419 28.9162C50.7629 28.4753 49.8933 28.5488 49.8142 28.6957C49.7352 28.8427 49.9723 29.2836 49.498 29.5775C49.0237 29.8714 49.5771 30.0918 49.7352 30.2388C49.8933 30.4592 49.8142 30.7531 49.8142 30.7531C49.0237 30.6797 49.1818 29.8714 49.1818 29.8714C48.5494 29.7244 48.8656 29.4305 48.8656 29.4305C48.3913 29.1366 49.1028 28.9162 49.1028 28.9162C48.9447 28.5488 49.1818 28.7692 49.2609 28.5488C49.419 28.4018 49.2609 28.5488 49.5771 28.4018C49.8933 28.2549 49.8142 28.4018 50.0514 28.2549C50.2885 28.0344 50.4466 28.1814 50.4466 28.1814C50.7629 28.1814 51.2372 28.0344 50.7629 27.814C50.2885 27.667 50.0514 27.961 50.0514 27.961C49.7352 27.8875 49.5771 28.1079 49.5771 28.1079C48.8656 27.961 48.9447 28.4018 48.7075 28.7692C48.3913 29.1366 48.7866 29.504 48.2332 29.2101C47.7589 28.9162 46.1779 26.4179 46.1779 26.4179C45.1502 25.7566 45.3083 24.2135 45.3083 23.4788C45.3083 22.8174 45.9407 22.8909 45.9407 22.8909C47.2846 22.8909 46.6522 22.2296 46.6522 22.2296C45.3083 21.7887 47.6008 21.1274 47.6008 21.1274C51.5534 21.3479 47.917 20.1722 47.917 20.1722C46.4941 19.8783 47.9961 18.4087 47.9961 18.4087C48.8656 18.3352 48.7866 18.1883 48.3123 17.8944C47.917 17.6005 49.1028 17.0861 49.1028 17.0861C49.9723 17.0861 50.2885 16.6452 49.5771 16.5717C48.8656 16.4983 49.0237 15.837 49.0237 15.837C50.1304 16.0574 49.9723 15.543 49.9723 15.543C49.6561 15.2491 50.0514 14.8817 50.0514 14.8817C50.1304 14.4409 50.4466 14.4409 50.4466 14.4409C51.0791 14.2204 50.1304 13.853 49.8142 14.0735C49.498 14.2939 44.5968 19.3639 44.5968 19.3639C44.1225 19.3639 43.0158 21.5683 43.0158 21.5683C42.1463 21.8622 42.5415 26.124 43.1739 27.2262C43.8063 28.4018 45.0712 31.1205 44.7549 30.8266C44.4387 30.5327 44.2016 31.2675 43.8854 31.194C43.6482 31.1205 42.6996 31.194 42.6996 31.194C41.6719 30.8266 37.7194 33.3249 37.2451 33.4719C36.7708 33.6188 33.6878 32.5166 33.6878 32.5166C33.9249 31.341 33.2134 32.1492 33.2134 32.1492C33.2134 31.194 32.7391 31.7084 32.581 31.9288C32.4229 32.1492 32.4229 30.8266 32.1858 31.5614C31.8696 32.2962 31.8696 31.5614 31.8696 31.5614C31.8696 30.9001 30.0514 31.7819 31.4743 32.2962C32.9763 32.884 36.6917 33.8393 36.6917 33.8393C38.1146 34.2801 38.1146 33.8393 38.1146 33.8393C41.0395 31.341 42.7787 31.7084 43.0949 31.7084C43.4111 31.7084 43.1739 32.6636 43.1739 32.6636C41.6719 32.9575 43.7273 35.0884 42.9368 36.1906C42.0672 37.2193 44.3597 38.8358 43.5692 38.5419C42.7787 38.248 42.6206 40.9667 42.9368 41.3341C43.253 41.7015 43.4111 44.1998 43.4111 44.1998C42.9368 44.7141 40.8024 45.2285 40.6443 45.008C40.5652 44.7876 40.4862 42.7302 40.0119 41.775C39.5376 40.8197 39.8538 40.3054 39.8538 40.3054C40.249 40.4523 40.4862 37.5867 40.0119 38.9828C39.4585 40.3054 39.3795 39.0562 39.3795 39.0562C38.668 37.9541 34.3202 35.7497 34.3202 35.7497C34.1621 35.4558 33.1344 35.0884 33.1344 35.0884C32.1067 33.8393 32.0277 34.7945 32.1858 34.868C32.4229 35.0149 33.4506 36.0436 32.4229 35.3088C31.3953 34.574 31.3953 35.3823 31.5534 35.3823C31.7115 35.4558 32.8972 35.5293 32.8972 35.8232C32.8972 36.1171 33.7668 36.1906 33.7668 36.1906C35.2688 36.411 38.5889 39.0562 38.5889 39.0562C39.6166 39.791 38.668 39.6441 38.668 39.6441C37.4822 40.085 38.5889 40.4523 38.9051 41.1137C39.2214 41.775 39.3004 44.4937 39.6957 45.0815C40.0909 45.6693 40.6443 46.3306 40.6443 46.3306C40.6443 47.3593 42.5415 46.7715 43.4111 46.2572C44.2806 45.7428 44.0435 46.5511 44.0435 46.5511C43.0158 46.4041 42.9368 48.3881 42.9368 48.3881C41.83 48.535 41.2767 48.6085 41.2767 48.6085C40.17 48.535 39.1423 51.8416 39.3004 52.8703C39.4585 53.899 39.0632 55.2216 39.0632 55.2216C38.3518 55.8829 39.4585 56.2503 39.4585 56.2503C39.5376 56.4707 39.6166 59.3364 39.6166 59.3364C39.1423 59.1894 39.3795 59.6303 39.1423 60.2916C38.9051 60.9529 38.668 62.5695 38.668 62.5695C38.1146 62.8634 38.9051 63.4512 38.5889 63.8186C38.2727 64.186 38.668 65.2882 38.668 65.2882C39.4585 66.3169 38.9051 65.1412 38.9051 65.1412C38.5099 64.5534 38.9842 64.1125 38.9842 64.3329C38.9051 64.6269 39.1423 64.9208 39.1423 64.9208C39.6166 66.3169 39.7747 65.1412 39.5376 64.9943C39.3004 64.9208 39.5376 63.1573 39.5376 63.1573C38.9842 63.0103 39.5376 60.2916 39.5376 60.2916C40.4071 60.512 40.0119 59.116 40.0119 59.116C40.9605 59.3364 39.6166 57.8668 40.249 58.1607C40.8814 58.4546 40.3281 57.7933 40.249 57.4994C40.0909 57.2055 40.3281 55.9564 40.3281 55.9564C41.5929 57.0585 40.6443 55.6624 40.6443 55.6624C40.0119 55.442 40.4071 53.2376 40.4071 53.2376C40.9605 51.9885 41.0395 50.0781 41.0395 50.0781C43.332 49.8576 43.0158 50.0046 43.0158 50.0046C41.9881 51.4742 43.332 57.9403 43.332 57.9403C42.8577 58.8955 40.9605 58.969 41.1186 59.4833C41.2767 59.9977 41.0395 60.2181 41.0395 60.2181C40.5652 60.4386 40.3281 63.7451 40.3281 65.2882C40.3281 66.8312 40.0119 67.7864 40.0119 67.7864C39.2214 68.6682 40.4862 69.0356 40.4862 69.0356C40.0119 69.4765 40.8814 70.0643 40.8814 70.0643C40.0119 70.4317 41.5138 70.7991 41.0395 71.2399C40.5652 71.6808 41.6719 72.1952 41.2767 72.2686C40.8814 72.3421 41.5929 73.0034 41.5138 73.2973C41.4348 73.5913 41.751 75.8691 41.6719 76.0895C41.5929 76.31 41.6719 76.2365 41.5929 76.6774C41.5138 77.1182 41.5929 77.1182 41.5929 77.7796C41.5929 78.4409 41.83 77.9265 41.83 77.5591C41.83 77.2652 41.9881 77.0448 42.0672 76.9713C42.0672 77.0448 42.3834 77.1182 42.3044 77.1917C42.1463 77.2652 42.3044 78.0735 42.3044 78.0735C42.6206 78.2939 42.5415 77.9265 42.5415 77.1182C42.5415 76.31 42.2253 76.6774 42.3044 76.5304C42.4625 76.3835 42.4625 75.6487 42.3044 75.5752C42.1463 75.4282 41.751 72.783 41.751 72.783C42.2253 72.7095 41.4348 71.7543 41.4348 71.7543C42.3834 71.9012 41.0395 70.7991 41.2767 70.946C41.5929 71.093 41.4348 70.5052 41.4348 70.5052C41.0395 70.5052 41.0395 69.256 41.0395 69.256C41.83 69.6234 41.2767 68.7417 41.1186 68.5212C40.8814 68.3008 41.751 61.1734 41.6719 60.806C41.6719 60.4386 42.2253 60.659 42.2253 60.659C43.8063 59.4833 43.8063 60.2181 43.8063 60.2181C45.3874 67.0517 51 67.0517 51 67.0517C51 67.0517 51.4743 67.0517 51.5534 67.0517C51.5534 67.0517 57.166 67.0517 58.747 60.2181C58.747 60.2181 58.747 59.4833 60.3281 60.659C60.3281 60.659 60.9605 60.4386 60.8814 60.806C60.8814 61.1734 61.6719 68.3008 61.4348 68.5212C61.1976 68.7417 60.7233 69.6234 61.5138 69.256C61.5138 69.256 61.5138 70.5052 61.1186 70.5052C61.1186 70.5052 60.9605 71.093 61.2767 70.946C61.5929 70.7991 60.249 71.9012 61.1186 71.7543C61.1186 71.7543 60.249 72.7095 60.8024 72.783C60.8024 72.783 60.4071 75.4282 60.249 75.5752C60.0909 75.7221 60.0909 76.3835 60.249 76.5304C60.4071 76.6774 60.0119 76.31 60.0119 77.1182C60.0119 77.9265 59.9328 78.2939 60.249 78.0735C60.249 78.0735 60.4071 77.2652 60.249 77.1917C60.0909 77.1182 60.4071 77.0448 60.4862 76.9713C60.5652 77.0448 60.7233 77.2652 60.7233 77.5591C60.7233 77.9265 60.9605 78.4409 60.9605 77.7796C60.9605 77.1182 61.0395 77.1182 60.9605 76.6774C60.8814 76.2365 60.9605 76.31 60.8814 76.0895C60.8024 75.8691 61.1186 73.5913 61.0395 73.2973C60.9605 73.0034 61.751 72.4156 61.2767 72.2686C60.8814 72.1952 61.9881 71.6073 61.5138 71.2399C61.0395 70.7991 62.4625 70.4317 61.6719 70.0643C61.6719 70.0643 62.4625 69.4765 62.0672 69.0356C62.0672 69.0356 63.332 68.5947 62.5415 67.7864C62.5415 67.7864 62.2253 66.8312 62.2253 65.2882C62.2253 63.7451 61.9881 60.4386 61.5138 60.2181C61.5138 60.2181 61.2767 60.0712 61.4348 59.4833C61.5929 58.969 59.6957 58.8955 59.2214 57.9403C59.2214 57.9403 60.5652 51.5476 59.5376 50.0046C59.5376 50.0046 59.2213 49.8576 61.5138 50.0781C61.5138 50.0781 61.5929 51.9885 62.1463 53.2376C62.1463 53.2376 62.6206 55.442 61.9091 55.6624C61.9091 55.6624 60.9605 57.132 62.2253 55.9564C62.2253 55.9564 62.4625 57.279 62.3044 57.4994C62.1463 57.7933 61.6719 58.4546 62.3044 58.1607C62.9368 57.8668 61.5929 59.4099 62.5415 59.116C62.5415 59.116 62.1463 60.4386 63.0158 60.2916C63.0158 60.2916 63.5692 63.0103 63.0158 63.1573C63.0158 63.1573 63.253 64.9208 63.0158 64.9943C62.7787 65.0677 62.9368 66.3169 63.4111 64.9208C63.4111 64.9208 63.6482 64.6269 63.5692 64.3329C63.4901 64.039 63.9644 64.5534 63.6482 65.1412C63.6482 65.1412 63.0949 66.3169 63.8854 65.2882C63.8854 65.2882 64.2806 64.186 63.9644 63.8186C63.6482 63.4512 64.3597 62.8634 63.8854 62.5695C63.8854 62.5695 63.6482 60.9529 63.4111 60.2916C63.1739 59.6303 63.4111 59.1159 62.9368 59.3364C62.9368 59.3364 63.0158 56.4707 63.0949 56.2503C63.0949 56.2503 64.2016 55.8094 63.4901 55.2216C63.4901 55.2216 63.0949 53.899 63.253 52.8703C63.4111 51.8416 62.3834 48.535 61.2767 48.6085C61.2767 48.6085 60.7233 48.4615 59.6166 48.3881C59.6166 48.3881 59.5376 46.4041 58.5099 46.5511C58.5099 46.5511 58.1937 45.7428 59.1423 46.2572C60.0119 46.7715 61.9881 47.3593 61.9091 46.3306C61.9091 46.3306 62.3834 45.6693 62.8577 45.0815C63.253 44.4937 63.332 41.775 63.6482 41.1137C63.9644 40.4523 65.0712 40.085 63.8854 39.6441C63.8854 39.6441 62.8577 39.791 63.9644 39.0562C63.9644 39.0562 67.2846 36.411 68.7866 36.1906C68.7866 36.1906 69.6561 36.0436 69.6561 35.8232C69.6561 35.5293 70.8419 35.4558 71 35.3823C71.1581 35.3088 71.1581 34.574 70.1304 35.3088C69.1028 36.0436 70.1304 34.9414 70.3676 34.868C70.6048 34.721 70.5257 33.8393 69.419 35.0884C69.419 35.0884 68.3123 35.4558 68.2332 35.7497C68.2332 35.7497 63.8063 37.9541 63.1739 39.0562C63.1739 39.0562 63.0158 40.3789 62.5415 38.9828C61.9882 37.6602 62.2253 40.4523 62.6996 40.3054C62.6996 40.3054 63.0158 40.8197 62.5415 41.775C62.0672 42.7302 61.9881 44.7876 61.9091 45.008C61.83 45.2285 59.6166 44.7141 59.1423 44.1998C59.1423 44.1998 59.3004 41.7015 59.6166 41.3341C59.9328 40.9667 59.6957 38.1745 58.9842 38.5419C58.1937 38.8358 60.4862 37.2928 59.6166 36.1906C58.747 35.1619 60.8814 32.9575 59.3795 32.6636C58.8261 32.5901 58.5889 31.6349 58.9051 31.6349Z" fill="url(#paint0_linear_1_390)"/>
</g>
</g>
<defs>
<filter id="filter0_dii_1_390" x="0.801727" y="0" width="104.397" height="96" filterUnits="userSpaceOnUse" color-interpolation-filters="sRGB">
<feFlood flood-opacity="0" result="BackgroundImageFix"/>
<feColorMatrix in="SourceAlpha" type="matrix" values="0 0 0 0 0 0 0 0 0 0 0 0 0 0 0 0 0 0 127 0" result="hardAlpha"/>
<feOffset dx="2" dy="2"/>
<feGaussianBlur stdDeviation="2"/>
<feColorMatrix type="matrix" values="0 0 0 0 0 0 0 0 0 0 0 0 0 0 0 0 0 0 0.25 0"/>
<feBlend mode="normal" in2="BackgroundImageFix" result="effect1_dropShadow_1_390"/>
<feBlend mode="normal" in="SourceGraphic" in2="effect1_dropShadow_1_390" result="shape"/>
<feColorMatrix in="SourceAlpha" type="matrix" values="0 0 0 0 0 0 0 0 0 0 0 0 0 0 0 0 0 0 127 0" result="hardAlpha"/>
<feOffset dx="5" dy="5"/>
<feGaussianBlur stdDeviation="1"/>
<feComposite in2="hardAlpha" operator="arithmetic" k2="-1" k3="1"/>
<feColorMatrix type="matrix" values="0 0 0 0 1 0 0 0 0 1 0 0 0 0 1 0 0 0 0.25 0"/>
<feBlend mode="normal" in2="shape" result="effect2_innerShadow_1_390"/>
<feColorMatrix in="SourceAlpha" type="matrix" values="0 0 0 0 0 0 0 0 0 0 0 0 0 0 0 0 0 0 127 0" result="hardAlpha"/>
<feOffset dx="-5" dy="-5"/>
<feGaussianBlur stdDeviation="1"/>
<feComposite in2="hardAlpha" operator="arithmetic" k2="-1" k3="1"/>
<feColorMatrix type="matrix" values="0 0 0 0 0 0 0 0 0 0 0 0 0 0 0 0 0 0 1 0"/>
<feBlend mode="normal" in2="effect2_innerShadow_1_390" result="effect3_innerShadow_1_390"/>
</filter>
<filter id="filter1_ii_1_390" x="29.9303" y="12.932" width="42.1462" height="66.2044" filterUnits="userSpaceOnUse" color-interpolation-filters="sRGB">
<feFlood flood-opacity="0" result="BackgroundImageFix"/>
<feBlend mode="normal" in="SourceGraphic" in2="BackgroundImageFix" result="shape"/>
<feColorMatrix in="SourceAlpha" type="matrix" values="0 0 0 0 0 0 0 0 0 0 0 0 0 0 0 0 0 0 127 0" result="hardAlpha"/>
<feOffset dx="-1" dy="-1"/>
<feGaussianBlur stdDeviation="1"/>
<feComposite in2="hardAlpha" operator="arithmetic" k2="-1" k3="1"/>
<feColorMatrix type="matrix" values="0 0 0 0 0.70067 0 0 0 0 0.665365 0 0 0 0 0.9125 0 0 0 1 0"/>
<feBlend mode="normal" in2="shape" result="effect1_innerShadow_1_390"/>
<feColorMatrix in="SourceAlpha" type="matrix" values="0 0 0 0 0 0 0 0 0 0 0 0 0 0 0 0 0 0 127 0" result="hardAlpha"/>
<feOffset dx="1" dy="1"/>
<feGaussianBlur stdDeviation="1"/>
<feComposite in2="hardAlpha" operator="arithmetic" k2="-1" k3="1"/>
<feColorMatrix type="matrix" values="0 0 0 0 0.293705 0 0 0 0 0.236406 0 0 0 0 0.6375 0 0 0 1 0"/>
<feBlend mode="normal" in2="effect1_innerShadow_1_390" result="effect2_innerShadow_1_390"/>
</filter>
<linearGradient id="paint0_linear_1_390" x1="51" y1="78" x2="51" y2="14" gradientUnits="userSpaceOnUse">
<stop stop-color="#A084F5"/>
<stop offset="1" stop-color="#B3A0ED"/>
</linearGradient>
<clipPath id="clip0_1_390">
<rect width="40" height="64" fill="white" transform="translate(31 14)"/>
</clipPath>
</defs>
</svg>
