<svg width="106" height="96" viewBox="0 0 106 96" fill="none" xmlns="http://www.w3.org/2000/svg">
<g filter="url(#filter0_dii_1_391)">
<path d="M4.36824 51.9281C2.27955 48.252 2.27955 43.748 4.36824 40.0719L22.5501 8.07188C24.6826 4.31862 28.6667 2 32.9835 2L69.0165 2C73.3332 2 77.3174 4.31862 79.4499 8.07188L97.6317 40.0719C99.7204 43.748 99.7204 48.252 97.6318 51.9281L79.4499 83.9281C77.3174 87.6814 73.3333 90 69.0165 90L32.9835 90C28.6667 90 24.6826 87.6814 22.5501 83.9281L4.36824 51.9281Z" fill="#221B11"/>
<path d="M4.47693 51.8664C2.40999 48.2286 2.40999 43.7714 4.47693 40.1336L22.6587 8.13364C24.7691 4.41946 28.7117 2.125 32.9835 2.125L69.0165 2.125C73.2883 2.125 77.2309 4.41946 79.3413 8.13363L97.5231 40.1336C99.59 43.7714 99.59 48.2285 97.5231 51.8664L79.3413 83.8664C77.2309 87.5805 73.2883 89.875 69.0165 89.875L32.9835 89.875C28.7117 89.875 24.7691 87.5805 22.6587 83.8664L4.47693 51.8664Z" stroke="#403522" stroke-width="0.25"/>
</g>
<g clip-path="url(#clip0_1_391)">
<g filter="url(#filter1_ii_1_391)">
<path d="M29.8973 14.4141C29.5521 14.276 29.2759 14.1379 29.0688 13.9998C28.7926 13.9308 29.2069 14.1379 29.8973 14.4141ZM61.8628 18.0732C61.8628 18.0732 61.7247 18.0041 61.4485 18.1422C61.1724 18.2803 54.8897 20.2134 54.8897 20.2134C54.8897 20.2134 54.6826 20.3515 54.6136 20.3515C54.5445 20.3515 54.3374 20.4205 54.1993 20.4896C54.0613 20.5586 53.7851 20.4205 51.852 22.5608C51.852 22.5608 51.3687 21.9394 50.8164 21.8013C50.195 21.9394 49.7808 22.5608 49.7808 22.5608C47.8477 20.4205 47.5715 20.5586 47.4334 20.4896C47.2953 20.4205 47.0882 20.3515 47.0192 20.3515C46.9501 20.3515 46.743 20.2134 46.743 20.2134C46.743 20.2134 40.3223 18.2803 40.0462 18.1422C39.77 18.0041 39.6319 18.0732 39.6319 18.0732C39.6319 18.0732 35.0062 16.4853 34.2468 16.2781C33.6945 16.1401 31.2781 15.0354 29.8973 14.4141C30.9329 14.9664 32.4518 15.8639 33.1422 16.071C34.0397 16.3472 39.5629 18.1422 39.5629 18.2803C39.5629 18.3493 39.6319 18.3493 39.6319 18.3493L46.5359 20.5586C46.6049 20.7657 46.9501 20.9038 46.9501 20.9038C47.5025 21.18 49.5046 22.8369 49.5046 22.8369C49.3665 23.0441 49.5046 23.1821 49.5737 23.3893C49.6427 23.5964 49.5737 23.6654 49.5737 23.6654C47.5715 24.3558 49.0213 25.6676 49.0213 25.6676C49.5046 26.0818 49.7117 27.3245 49.7808 27.7388C49.7808 28.153 49.6427 28.2221 49.6427 28.2221C49.6427 28.2221 49.2975 27.9459 48.9523 28.0149C48.6071 28.153 48.9523 28.7744 48.9523 28.7744C48.6761 28.7744 48.469 29.0505 48.469 29.0505C48.1238 28.0149 45.2241 23.8035 44.948 23.3893C44.6718 22.975 44.4647 22.906 44.4647 22.906C44.6718 22.6298 44.7409 21.8013 44.4647 21.5942C44.1885 21.4561 44.1195 20.4205 44.0505 20.2134C43.9814 19.9373 43.3601 19.6611 43.4981 19.7992C43.7053 19.9373 44.1195 21.3871 44.0505 21.7323C43.9814 22.0775 43.6362 22.3537 43.4981 22.4227C43.3601 22.4917 43.3601 22.7679 43.3601 22.8369C43.3601 22.975 43.4981 23.0441 43.4981 23.1131C43.4981 23.1821 43.4981 23.6654 43.4291 23.7345C43.3601 23.7345 43.4981 24.0106 43.4981 24.0106C44.6718 28.2911 47.0882 30.5694 47.2953 30.7765C47.5025 31.0527 47.4334 31.1217 47.3644 31.2598C47.2953 31.3979 46.9501 31.674 46.5359 32.0883C46.1907 32.5025 46.3288 32.6406 46.1907 32.8477C46.0526 33.0548 45.6384 33.4 45.6384 33.4C44.6718 32.1573 41.9793 31.1217 41.565 30.8456C41.1508 30.5694 40.7365 30.9837 40.7365 30.9837C40.0462 31.0527 39.77 31.8812 39.839 32.2954C39.9081 32.7096 40.1152 36.2307 39.9081 36.6449C39.7009 37.0592 39.9771 37.5424 40.1152 37.8876C40.2533 38.2328 39.9771 38.509 39.9771 38.509C39.9771 38.509 38.6654 40.7873 38.6654 41.0635C38.5963 41.3396 38.8725 41.2016 38.8725 41.2016L39.839 39.6827L40.5294 38.44C40.5294 38.44 40.9437 38.44 41.1508 37.9567C41.3579 37.4734 41.2198 36.9211 41.0127 36.4378C40.7365 35.9545 40.7365 32.8477 40.7365 32.4335C40.6675 32.0192 40.9437 32.2264 41.496 32.4335C42.0483 32.6406 44.5337 35.4022 45.0861 35.6093C45.6384 35.8164 45.6384 36.2307 45.6384 36.2307C45.4313 37.5424 46.5359 43.2728 46.5359 43.2728C46.1907 44.1703 45.9145 46.3105 45.9145 46.3105C41.7721 48.934 38.3892 54.112 37.975 54.7334C37.5607 55.3547 37.6988 55.6309 37.6988 55.6309C37.4917 56.0451 38.3202 57.1498 38.3202 57.1498C39.6319 58.3925 45.6384 69.9222 45.7765 70.3364C45.9145 70.7506 46.6049 71.7172 46.6049 71.7172C46.5359 71.9934 47.2263 77.1714 47.2263 77.1714C46.674 77.7237 46.8121 78.0689 46.8121 77.8618C46.8121 77.6546 47.4334 77.1714 47.6405 77.3785C47.8477 77.5166 48.5381 77.5166 48.1929 77.3785C47.8477 77.2404 47.8477 76.6881 47.6405 75.8596C47.3644 75.0311 47.0192 71.7172 47.2263 71.372C47.4334 71.0268 47.0192 70.4054 46.3978 69.9222C45.7765 69.4389 42.9458 63.4324 42.9458 63.4324C41.6341 60.3947 39.0106 56.6665 38.8034 56.2523C38.5963 55.838 39.0796 55.4238 39.0796 55.4238C39.4248 54.5263 43.291 50.591 43.7743 49.7625C44.2576 48.934 45.2932 48.1746 45.2932 48.1746C43.9124 50.9362 45.2932 58.5996 46.2597 60.5327C47.2263 62.4659 48.2619 67.7129 48.2619 69.3698C48.2619 70.9578 50.5402 73.9955 50.7473 74.2717C50.9545 73.9955 53.2328 70.9578 53.2328 69.3698C53.2328 67.7129 54.2684 62.4659 55.2349 60.5327C56.2015 58.5996 57.5823 50.9362 56.2015 48.1746C56.2015 48.1746 57.2371 48.934 57.7204 49.7625C58.2036 50.5219 62.0699 54.5263 62.4151 55.4238C62.4151 55.4238 62.8984 55.769 62.6912 56.2523C62.4841 56.6665 59.8606 60.3947 58.5488 63.4324C58.5488 63.4324 55.7182 69.4389 55.0969 69.9222C54.4755 70.4054 54.0613 71.0268 54.2684 71.372C54.4755 71.7172 54.1303 75.0311 53.8541 75.8596C53.578 76.6881 53.578 77.3094 53.3018 77.3785C52.9566 77.5166 53.7161 77.5166 53.8541 77.3785C54.0613 77.2404 54.6826 77.7237 54.6826 77.8618C54.6826 78.0689 54.8207 77.6546 54.2684 77.1714C54.2684 77.1714 54.9588 71.9934 54.8897 71.7172C54.8897 71.7172 55.5111 70.7506 55.7182 70.3364C55.8563 69.9222 61.8628 58.3925 63.1745 57.1498C63.1745 57.1498 64.003 56.0451 63.7959 55.6309C63.7959 55.6309 63.934 55.3547 63.5197 54.7334C63.1055 54.112 59.7225 48.934 55.7182 46.3796C55.7182 46.3796 55.4421 44.2393 55.0969 43.3418C55.0969 43.3418 56.2015 37.6115 55.9944 36.2997C55.9944 36.2997 55.9944 35.8855 56.5467 35.6784C57.099 35.4712 59.5844 32.7096 60.1368 32.5025C60.6891 32.2954 60.9652 32.0192 60.8962 32.5025C60.8272 32.9168 60.8962 36.0236 60.62 36.5068C60.3439 36.9901 60.2748 37.5424 60.482 38.0257C60.6891 38.509 61.1033 38.509 61.1033 38.509L61.7937 39.7517L62.7603 41.2706C62.7603 41.2706 63.0364 41.4087 62.9674 41.1325C62.8984 40.8564 61.6556 38.578 61.6556 38.578C61.6556 38.578 61.3795 38.3019 61.5176 37.9567C61.6556 37.6115 61.9318 37.1282 61.7247 36.714C61.5176 36.2997 61.7247 32.7787 61.7937 32.3644C61.8628 31.9502 61.5866 31.1217 60.8962 31.0527C60.8962 31.0527 60.482 30.6385 60.0677 30.9146C59.6535 31.1908 56.9609 32.2954 55.9944 33.4691C55.9944 33.4691 55.5801 33.1239 55.4421 32.9168C55.304 32.7096 55.4421 32.5716 55.0969 32.1573C54.7517 31.7431 54.3374 31.4669 54.2684 31.3288C54.1993 31.1908 54.1303 31.1217 54.3374 30.8456C54.5445 30.5694 57.03 28.2911 58.1346 24.0797C58.1346 24.0797 58.2727 23.8035 58.2036 23.8035C58.1346 23.8035 58.1346 23.2512 58.1346 23.1821C58.1346 23.1131 58.2727 23.0441 58.2727 22.906C58.2727 22.7679 58.2727 22.5608 58.1346 22.4917C57.9965 22.4227 57.6513 22.1465 57.5823 21.8013C57.5133 21.4561 57.9275 20.0063 58.1346 19.8682C58.3417 19.7301 57.7204 20.0063 57.5823 20.2825C57.5133 20.5586 57.3752 21.5252 57.168 21.6633C56.8919 21.8013 57.03 22.6298 57.168 22.975C57.168 22.975 56.9609 23.0441 56.6848 23.4583C56.4086 23.8725 53.5089 28.084 53.1637 29.1196C53.1637 29.1196 52.9566 28.8434 52.6805 28.8434C52.6805 28.8434 53.0257 28.153 52.6805 28.084C52.3353 27.9459 51.9901 28.2911 51.9901 28.2911C51.9901 28.2911 51.7829 28.2221 51.852 27.8078C51.852 27.3936 52.1281 26.1509 52.6114 25.7366C52.6114 25.7366 54.0613 24.4249 52.0591 23.7345C52.0591 23.7345 51.9901 23.6654 52.0591 23.4583C52.1281 23.2512 52.2662 23.1131 52.1281 22.906C52.1281 22.906 54.0613 21.249 54.6826 20.9729C54.6826 20.9729 55.0278 20.8348 55.0278 20.6277L61.9318 18.4184C61.9318 18.4184 62.0008 18.4184 62.0008 18.3493C61.9318 18.1422 67.455 16.3472 68.3525 16.071C68.9739 15.8639 70.5618 14.9664 71.5974 14.4141C70.2166 15.0354 67.8002 16.071 67.2479 16.2781C66.4884 16.4853 61.8628 18.0732 61.8628 18.0732ZM72.4259 13.9998C72.2188 14.0689 71.9426 14.207 71.5974 14.4141C72.2878 14.1379 72.702 13.9308 72.4259 13.9998Z" fill="url(#paint0_linear_1_391)"/>
</g>
</g>
<defs>
<filter id="filter0_dii_1_391" x="0.801727" y="0" width="104.397" height="96" filterUnits="userSpaceOnUse" color-interpolation-filters="sRGB">
<feFlood flood-opacity="0" result="BackgroundImageFix"/>
<feColorMatrix in="SourceAlpha" type="matrix" values="0 0 0 0 0 0 0 0 0 0 0 0 0 0 0 0 0 0 127 0" result="hardAlpha"/>
<feOffset dx="2" dy="2"/>
<feGaussianBlur stdDeviation="2"/>
<feColorMatrix type="matrix" values="0 0 0 0 0 0 0 0 0 0 0 0 0 0 0 0 0 0 0.25 0"/>
<feBlend mode="normal" in2="BackgroundImageFix" result="effect1_dropShadow_1_391"/>
<feBlend mode="normal" in="SourceGraphic" in2="effect1_dropShadow_1_391" result="shape"/>
<feColorMatrix in="SourceAlpha" type="matrix" values="0 0 0 0 0 0 0 0 0 0 0 0 0 0 0 0 0 0 127 0" result="hardAlpha"/>
<feOffset dx="5" dy="5"/>
<feGaussianBlur stdDeviation="1"/>
<feComposite in2="hardAlpha" operator="arithmetic" k2="-1" k3="1"/>
<feColorMatrix type="matrix" values="0 0 0 0 1 0 0 0 0 1 0 0 0 0 1 0 0 0 0.25 0"/>
<feBlend mode="normal" in2="shape" result="effect2_innerShadow_1_391"/>
<feColorMatrix in="SourceAlpha" type="matrix" values="0 0 0 0 0 0 0 0 0 0 0 0 0 0 0 0 0 0 127 0" result="hardAlpha"/>
<feOffset dx="-5" dy="-5"/>
<feGaussianBlur stdDeviation="1"/>
<feComposite in2="hardAlpha" operator="arithmetic" k2="-1" k3="1"/>
<feColorMatrix type="matrix" values="0 0 0 0 0 0 0 0 0 0 0 0 0 0 0 0 0 0 1 0"/>
<feBlend mode="normal" in2="effect2_innerShadow_1_391" result="effect3_innerShadow_1_391"/>
</filter>
<filter id="filter1_ii_1_391" x="28.9823" y="13.9865" width="44.5301" height="64.9361" filterUnits="userSpaceOnUse" color-interpolation-filters="sRGB">
<feFlood flood-opacity="0" result="BackgroundImageFix"/>
<feBlend mode="normal" in="SourceGraphic" in2="BackgroundImageFix" result="shape"/>
<feColorMatrix in="SourceAlpha" type="matrix" values="0 0 0 0 0 0 0 0 0 0 0 0 0 0 0 0 0 0 127 0" result="hardAlpha"/>
<feOffset dx="-1" dy="-1"/>
<feComposite in2="hardAlpha" operator="arithmetic" k2="-1" k3="1"/>
<feColorMatrix type="matrix" values="0 0 0 0 0.584314 0 0 0 0 0.870588 0 0 0 0 0.392157 0 0 0 0.5 0"/>
<feBlend mode="normal" in2="shape" result="effect1_innerShadow_1_391"/>
<feColorMatrix in="SourceAlpha" type="matrix" values="0 0 0 0 0 0 0 0 0 0 0 0 0 0 0 0 0 0 127 0" result="hardAlpha"/>
<feOffset dx="1" dy="1"/>
<feGaussianBlur stdDeviation="0.5"/>
<feComposite in2="hardAlpha" operator="arithmetic" k2="-1" k3="1"/>
<feColorMatrix type="matrix" values="0 0 0 0 0.0745098 0 0 0 0 0.321569 0 0 0 0 0 0 0 0 1 0"/>
<feBlend mode="normal" in2="effect1_innerShadow_1_391" result="effect2_innerShadow_1_391"/>
</filter>
<linearGradient id="paint0_linear_1_391" x1="51" y1="78" x2="51" y2="14" gradientUnits="userSpaceOnUse">
<stop stop-color="#14B55E"/>
<stop offset="1" stop-color="#40DC88"/>
</linearGradient>
<clipPath id="clip0_1_391">
<rect width="43.4951" height="64" fill="white" transform="translate(29 14)"/>
</clipPath>
</defs>
</svg>
