<svg width="106" height="96" viewBox="0 0 106 96" fill="none" xmlns="http://www.w3.org/2000/svg">
<g filter="url(#filter0_dii_1_389)">
<path d="M4.36824 51.9282C2.27955 48.252 2.27955 43.748 4.36824 40.0719L22.5501 8.07192C24.6826 4.31866 28.6667 2.00004 32.9835 2.00004L69.0165 2.00004C73.3332 2.00003 77.3174 4.31865 79.4499 8.07192L97.6317 40.0719C99.7204 43.748 99.7204 48.252 97.6318 51.9281L79.4499 83.9281C77.3174 87.6814 73.3333 90 69.0165 90L32.9835 90C28.6667 90 24.6826 87.6814 22.5501 83.9281L4.36824 51.9282Z" fill="#221B11"/>
<path d="M4.47693 51.8664C2.40999 48.2286 2.40999 43.7715 4.47693 40.1337L22.6587 8.13367C24.7691 4.4195 28.7117 2.12504 32.9835 2.12504L69.0165 2.12504C73.2883 2.12503 77.2309 4.4195 79.3413 8.13367L97.5231 40.1337C99.59 43.7715 99.59 48.2286 97.5231 51.8664L79.3413 83.8664C77.2309 87.5806 73.2883 89.875 69.0165 89.875L32.9835 89.875C28.7117 89.875 24.7691 87.5806 22.6587 83.8664L4.47693 51.8664Z" stroke="#403522" stroke-width="0.25"/>
</g>
<g clip-path="url(#clip0_1_389)">
<g filter="url(#filter1_ii_1_389)">
<path d="M51.1988 33.9006C52.2605 33.9006 53.3931 33.9006 54.384 33.8298C55.375 33.7591 56.366 33.6883 57.1446 33.6175C57.994 33.5467 58.631 33.4759 59.1265 33.3344C59.622 33.2636 59.9051 33.1928 59.9051 33.1928C60.3298 33.0512 60.7545 32.9097 61.1084 32.6973C61.3916 32.5557 61.6747 32.3434 61.6747 31.9895C61.9578 31.9187 62.241 31.7063 62.5241 31.494C62.878 31.1401 63.0904 30.6446 63.3027 30.1491C63.4443 29.7244 63.5858 29.2289 63.6566 28.7334C63.7274 28.238 63.5151 28.238 63.2319 27.9548C63.1611 27.8841 63.1611 27.8133 63.1611 27.6717C63.7274 27.6009 64.2937 27.5301 64.7892 27.3178C65.0723 27.247 65.4262 27.1054 65.5678 26.8931C65.5678 26.8931 65.6386 26.8223 65.6386 26.7515C65.9925 26.7515 66.2756 26.7515 66.6295 26.7515C66.7711 26.7515 66.9834 26.6807 67.125 26.61C67.2666 26.5392 67.4081 26.3976 67.4081 26.1853C67.4081 26.1145 67.3374 25.9729 67.3374 25.9021C67.3374 25.8313 67.3374 25.8313 67.2666 25.7606C67.4789 25.6898 67.7621 25.5482 67.9744 25.4774C68.3283 25.4066 68.6822 25.4066 68.9654 25.2651C68.9654 25.2651 69.0361 25.2651 69.0361 25.1943L69.1069 25.2651C69.1069 25.4774 69.1777 25.5482 69.1777 25.619C69.1777 25.6898 69.1777 25.7606 69.1777 25.8313C69.2485 25.8313 69.3193 25.7606 69.3193 25.6898C69.3193 25.619 69.3193 25.5482 69.3193 25.4774V25.4066C69.3193 25.4066 69.3193 25.4066 69.2485 25.3359C69.1777 25.2651 69.0362 25.1943 68.9654 25.1943V25.1235C68.8946 24.9819 68.9654 24.8404 68.8946 24.7696C68.8946 24.7696 68.8946 24.7696 68.8238 24.6988C68.8946 24.628 68.9654 24.5572 68.8946 24.4157C68.8946 24.4157 68.8946 24.3449 68.8238 24.3449C68.8238 24.2741 68.753 24.2741 68.6822 24.2741C68.6115 24.2741 68.6115 24.2741 68.6115 24.2741V24.3449C68.6115 24.3449 68.6115 24.3449 68.6822 24.3449C68.753 24.4157 68.753 24.4865 68.6822 24.5572C68.6115 24.5572 68.5407 24.5572 68.4699 24.5572C67.9036 24.6988 67.4081 24.9819 66.9127 25.2651C66.8419 25.1235 66.7711 24.9819 66.6295 24.9819C66.4172 24.9112 66.2048 25.0527 66.0633 25.1943C65.8509 25.4066 65.5678 25.619 65.3554 25.8313C65.2846 25.7606 65.1431 25.7606 65.0723 25.7606C64.5768 25.6898 64.0813 26.0437 63.7274 26.3976C63.5151 26.5392 63.3027 26.6807 63.0904 26.8931C63.0196 26.7515 62.7365 26.7515 62.5949 26.7515C62.3825 26.8223 62.0994 26.9639 61.9578 27.1762C61.7455 27.5301 61.6747 27.8841 61.6039 28.3087C61.5331 28.875 61.4624 29.5121 61.6747 30.0783C61.8163 30.3615 61.9578 30.7862 61.6747 30.9985C61.6039 31.0693 61.4624 31.0693 61.3916 31.0693C61.1792 31.0693 60.9669 31.0693 60.8253 31.0693C60.7545 31.0693 60.6837 30.9985 60.613 30.9985C60.5422 30.9985 60.4714 30.9985 60.4006 30.9985C60.1883 30.4322 59.9759 29.866 59.622 29.3705C58.8434 28.238 57.6401 27.5301 56.366 26.9639C56.2952 26.8931 56.1536 26.8931 56.0828 26.8223C56.1536 26.8223 56.2244 26.7515 56.2952 26.6807C56.5075 26.5392 56.6491 26.3268 56.7907 26.256C56.9322 26.1853 57.003 26.1145 57.1446 25.9729C57.2154 25.8313 57.2861 25.6898 57.1446 25.619C57.0738 25.5482 56.9322 25.5482 56.7907 25.5482C56.4368 25.619 56.0828 25.6898 55.7289 25.8313C55.5166 25.9021 55.1627 26.0437 54.9503 26.1853C55.0211 26.3976 55.0211 26.4684 55.0211 26.5392C54.8795 26.4684 54.6672 26.3976 54.5256 26.3268C54.5964 26.256 54.5964 26.1145 54.5256 25.9729C55.375 25.4774 56.2952 24.9819 57.1446 24.4157C57.5693 24.1325 57.9232 23.8494 58.2771 23.4955C58.2771 23.4955 58.3479 23.4247 58.3479 23.3539C58.3479 23.2831 58.2771 23.2124 58.2063 23.1416C57.994 23 57.7816 22.9292 57.5693 23.0708C57.2861 23.2124 57.2154 23.5663 57.0738 23.8494C56.8615 24.3449 56.4368 24.6988 55.9413 24.9819C55.4458 25.2651 54.9503 25.4066 54.4548 25.619C54.384 25.619 54.3133 25.6898 54.2425 25.7606C54.1009 25.6898 53.8886 25.7606 53.747 25.7606C53.6762 25.7606 53.6054 25.7606 53.6054 25.8313C53.5346 25.9021 53.5346 25.9729 53.6054 26.0437C52.8268 25.8313 52.0482 25.7606 51.2696 25.6898C50.491 25.6898 49.7124 25.8313 48.9337 26.0437C48.9337 25.9729 48.9337 25.8313 48.9337 25.8313C48.9337 25.7606 48.863 25.7606 48.7922 25.7606C48.6506 25.6898 48.4383 25.6898 48.2967 25.7606C48.2259 25.6898 48.1551 25.6898 48.0843 25.619C47.5889 25.4066 47.0934 25.2651 46.5979 24.9819C46.1024 24.6988 45.6777 24.3449 45.4654 23.8494C45.3238 23.5663 45.253 23.2124 44.9699 23.0708C44.7575 23 44.4744 23.0708 44.3328 23.1416C44.2621 23.2124 44.1913 23.2831 44.1913 23.3539C44.1913 23.4247 44.2621 23.4247 44.2621 23.4955C44.616 23.8494 44.9699 24.1325 45.3946 24.4157C46.244 24.9819 47.1642 25.4774 48.0843 25.9729C48.0136 26.1145 47.9428 26.256 48.0843 26.3268C47.872 26.3976 47.7304 26.4684 47.5181 26.5392C47.5181 26.4684 47.5181 26.4684 47.4473 26.3976C47.3057 26.256 47.0226 26.1853 46.8102 26.0437C46.244 25.9021 45.8193 25.8313 45.3946 25.7606C45.253 25.7606 45.1115 25.7606 45.0407 25.8313C44.9699 25.9021 44.9699 26.1145 45.0407 26.1853C45.1115 26.3268 45.253 26.3268 45.3946 26.4684C45.6069 26.61 45.7485 26.7515 45.8901 26.8931C45.9608 26.9639 46.0316 26.9639 46.1024 27.0347C46.0316 27.1054 45.8901 27.1054 45.8193 27.1762C44.616 27.7425 43.3419 28.5211 42.5633 29.5828C42.2093 30.0783 41.997 30.6446 41.7846 31.2109C41.7139 31.2109 41.6431 31.2109 41.5723 31.2109C41.5015 31.2109 41.4307 31.2109 41.3599 31.2816C41.2184 31.2816 40.9352 31.2816 40.7937 31.2816C40.6521 31.2816 40.5813 31.2109 40.5105 31.2109C40.2274 30.9985 40.4398 30.5738 40.5105 30.2907C40.7229 29.7244 40.6521 29.0874 40.5813 28.5211C40.5105 28.0964 40.4398 27.7425 40.2274 27.3886C40.0858 27.1762 39.8735 27.0347 39.5904 26.9639C39.4488 26.8931 39.1657 26.9639 39.0949 27.1054C38.8825 26.9639 38.6702 26.8223 38.4578 26.61C38.0331 26.3268 37.6084 25.9729 37.113 25.9729C37.0422 25.9729 36.9006 25.9729 36.8298 26.0437C36.6175 25.8313 36.3343 25.619 36.122 25.4066C35.9804 25.2651 35.7681 25.1235 35.5557 25.1943C35.4142 25.2651 35.3434 25.3359 35.2726 25.4774C34.7771 25.1943 34.2816 24.9112 33.7154 24.7696C33.6446 24.7696 33.5738 24.7696 33.503 24.7696C33.4322 24.6988 33.4322 24.628 33.503 24.5572C33.503 24.5572 33.503 24.5572 33.5738 24.5572V24.4865C33.5738 24.4865 33.503 24.4157 33.503 24.4865C33.4322 24.4865 33.4322 24.5572 33.3614 24.5572L33.2907 24.628C33.2907 24.6988 33.3614 24.8404 33.3614 24.9112C33.3614 24.9112 33.2907 24.9112 33.2907 24.9819C33.2199 25.0527 33.2907 25.1943 33.2199 25.3359V25.4066C33.1491 25.4066 33.0075 25.4774 32.9368 25.5482C32.9368 25.5482 32.9367 25.5482 32.866 25.619V25.6898C32.866 25.7606 32.866 25.8313 32.866 25.9021C33.0075 25.7606 33.0783 25.8313 33.1491 25.8313C33.1491 25.7606 33.1491 25.6898 33.1491 25.619C33.1491 25.5482 33.2199 25.4774 33.2907 25.4066L33.3614 25.3359L33.4322 25.4066C33.7154 25.5482 34.0693 25.4774 34.4232 25.619C34.7063 25.6898 34.9187 25.8313 35.131 25.9021C35.131 25.9729 35.131 25.9729 35.0602 26.0437C34.9895 26.1145 34.9895 26.256 34.9895 26.3268C34.9895 26.4684 35.131 26.61 35.2726 26.7515C35.4142 26.8223 35.5557 26.8223 35.7681 26.8931C36.122 26.8931 36.4051 26.8931 36.759 26.8931C36.759 26.9639 36.8298 26.9639 36.8298 27.0347C37.0422 27.1762 37.3253 27.247 37.6084 27.3886C38.1747 27.5301 38.741 27.6009 39.2364 27.7425C39.2364 27.8133 39.2364 27.9548 39.1657 28.0256C38.8825 28.3087 38.6702 28.3087 38.741 28.8042C38.8118 29.2997 38.9533 29.7952 39.0949 30.2199C39.2364 30.7154 39.5196 31.2109 39.8735 31.5648C40.0858 31.7771 40.369 31.9895 40.7229 32.0603C40.7229 32.3434 41.006 32.6265 41.2892 32.7681C41.6431 32.9804 42.0678 33.122 42.4925 33.2636C42.4925 33.2636 43.5542 33.4759 45.1822 33.6175C46.8102 33.7591 49.0045 33.9006 51.1988 33.9006Z" fill="url(#paint0_linear_1_389)"/>
</g>
<g filter="url(#filter2_ii_1_389)">
<path fill-rule="evenodd" clip-rule="evenodd" d="M76.3268 49.4729C76.3268 49.4375 76.3091 49.4198 76.2914 49.4021C76.2737 49.3844 76.256 49.3667 76.256 49.3313C76.1853 49.2606 76.0437 49.1898 75.9729 49.1898H75.9021V49.2606C75.9021 49.3313 75.9729 49.4021 76.0437 49.4729L76.0437 49.4729C76.1145 49.5437 76.1145 49.5437 76.1145 49.6145C76.1145 49.6145 76.1145 49.6187 76.1134 49.6251C76.0625 49.6397 75.9999 49.6543 75.9232 49.6689C75.73 49.6061 75.5506 49.5572 75.3713 49.5083C75.1766 49.4552 74.982 49.4021 74.7696 49.3313C74.6988 49.3313 74.4157 49.2606 74.2033 49.1898C74.2741 49.119 74.2741 48.9774 74.2741 48.8359C74.2741 48.6235 74.1325 48.4819 73.9202 48.4112C73.7079 48.3404 73.5663 48.3404 73.3539 48.3404H72.2214V48.2696C72.1604 48.0864 71.994 48.0086 71.8585 47.9452C71.837 47.9351 71.8162 47.9254 71.7967 47.9157C71.6905 47.8803 71.6021 47.8626 71.5136 47.8449C71.4251 47.8272 71.3366 47.8095 71.2304 47.7741H69.4609C69.4609 47.6572 69.4394 47.5403 69.4201 47.4352C69.4044 47.3494 69.3901 47.2715 69.3901 47.2078C69.1777 46.0753 68.6823 45.0136 68.116 44.0226C67.5497 43.0316 66.8419 42.1115 66.0633 41.2621C65.0723 37.7229 63.5859 35.3163 63.5859 35.3163C62.5241 33.3343 61.1792 33.3343 60.6838 33.3343C60.613 33.3343 60.3298 33.3343 59.8344 33.2636C59.8344 33.2636 59.5512 33.3343 59.1265 33.4051C58.8676 33.4421 58.57 33.4984 58.2236 33.564C57.9072 33.6239 57.5501 33.6915 57.1446 33.759C56.366 33.9006 55.375 33.9714 54.3841 34.0422C53.3931 34.113 52.2606 34.1837 51.1988 34.1837C49.0045 34.1837 46.8103 33.9714 45.1822 33.759C43.5542 33.5467 42.4925 33.3343 42.4925 33.3343C42.1909 33.3343 41.925 33.37 41.7709 33.3907C41.7079 33.3992 41.6636 33.4051 41.6431 33.4051C41.6046 33.4115 41.558 33.4174 41.5043 33.4241C40.9648 33.4916 39.7066 33.649 38.741 35.3871C38.741 35.3871 37.2545 37.7229 36.2636 41.3328C36.0981 41.548 35.9326 41.7593 35.7679 41.9694C35.2286 42.658 34.6989 43.3341 34.2109 44.0934C33.6446 45.0843 33.1491 46.1461 32.9368 47.2786C32.9368 47.3423 32.9225 47.4202 32.9067 47.506L32.9067 47.506C32.8874 47.6111 32.866 47.728 32.866 47.8449H31.1672C30.9548 47.8449 30.7425 47.9157 30.6009 47.9865C30.5737 48.0001 30.5438 48.0137 30.5128 48.0279C30.3828 48.0871 30.2334 48.1553 30.1762 48.2696V48.3404H29.0437C28.8313 48.3404 28.619 48.3404 28.4774 48.4112C28.2651 48.4819 28.1235 48.6235 28.1235 48.8359C28.1235 48.9774 28.1235 49.0482 28.1943 49.1898L27.628 49.3313C27.4157 49.4021 27.221 49.4552 27.0264 49.5083C26.8317 49.5614 26.6371 49.6145 26.4247 49.6853H26.3539C26.3539 49.6853 26.3539 49.6145 26.2832 49.6145C26.2832 49.5844 26.2832 49.5671 26.2886 49.5517C26.2959 49.5309 26.3132 49.5136 26.3539 49.4729L26.3539 49.4729C26.3893 49.4375 26.407 49.4021 26.4247 49.3667C26.4424 49.3313 26.4601 49.2959 26.4955 49.2606V49.1898H26.4247C26.2832 49.1898 26.2124 49.2606 26.1416 49.3313C26.0708 49.3313 26.0708 49.4021 26.0708 49.4729C26.0708 49.5437 26.1416 49.6145 26.2124 49.6853C26.2478 49.6853 26.2655 49.7029 26.2832 49.7206C26.3008 49.7383 26.3185 49.756 26.3539 49.756V49.8268C26.3539 49.9684 26.3539 50.0392 26.4247 50.1807C26.4247 50.2161 26.4424 50.2338 26.4601 50.2515C26.4778 50.2692 26.4955 50.2869 26.4955 50.3223C26.4955 50.3577 26.4778 50.3931 26.4601 50.4285C26.4424 50.4639 26.4247 50.4993 26.4247 50.5347C26.4247 50.8178 26.8494 50.8886 26.991 50.747C26.9317 50.6877 26.86 50.6532 26.7966 50.6228C26.7088 50.5806 26.6371 50.5461 26.6371 50.4639V50.3223C26.7078 50.3223 26.7786 50.3223 26.8494 50.2515C27.1325 50.1453 27.3803 50.0038 27.628 49.8622C27.8758 49.7206 28.1235 49.5791 28.4066 49.4729C28.4066 49.5083 28.4243 49.5437 28.442 49.5791C28.4597 49.6145 28.4774 49.6499 28.4774 49.6853C28.619 49.8976 28.9729 49.9684 29.1853 49.8268C29.3268 49.756 29.3976 49.6145 29.4684 49.4729C29.6807 49.3313 29.9639 49.1898 30.247 49.0482L30.3178 49.119C30.3886 49.1898 30.4594 49.1898 30.6009 49.1898C30.9548 49.1898 31.238 49.0482 31.5211 48.9066L31.5211 48.9066C31.5919 48.8712 31.645 48.8359 31.6981 48.8005C31.7511 48.7651 31.8042 48.7297 31.875 48.6943C32.0358 48.6139 32.2193 48.5564 32.4127 48.4957L32.4127 48.4957L32.4127 48.4957L32.4128 48.4957C32.56 48.4495 32.713 48.4016 32.866 48.3404C32.9014 48.305 32.9545 48.2873 33.0075 48.2696C33.0606 48.2519 33.1137 48.2342 33.1491 48.1988H33.2199C33.503 48.2696 33.8569 48.0572 34.0693 47.9157C34.4232 47.6325 34.6356 47.2786 34.7771 46.8539C34.8447 46.7019 34.9123 46.5539 34.9789 46.408L34.9789 46.408C35.1914 45.9426 35.3941 45.4986 35.5557 45.0136C35.2726 47.7033 35.4142 50.6762 36.5467 53.7199C36.5113 53.7553 36.4582 53.7907 36.4051 53.8261C36.352 53.8615 36.299 53.8968 36.2636 53.9322C36.1928 54.0738 36.122 54.2862 36.122 54.4985C35.8389 57.5422 37.0422 60.5859 38.8118 63.0633C39.0241 63.3464 39.2365 63.5587 39.4488 63.7711L39.4488 63.7711C39.378 63.8065 39.3072 63.8596 39.2365 63.9127C39.1657 63.9657 39.0949 64.0188 39.0241 64.0542C38.5994 64.3374 38.1747 64.6205 37.8208 64.9744C37.6085 65.1868 37.3961 65.4699 37.3253 65.753C37.3253 65.753 37.2545 65.753 37.2545 65.8238C37.1838 65.8946 37.113 65.9654 37.113 66.0362C36.9903 66.1588 36.8203 66.2579 36.6441 66.3606C36.5153 66.4357 36.3831 66.5128 36.2636 66.6024C35.9804 66.8148 35.7681 67.0979 35.7681 67.381C35.7681 67.4518 35.7681 67.5226 35.8389 67.5934C35.6265 67.8057 35.4142 68.0181 35.131 68.1597C34.9895 68.2658 34.8656 68.372 34.7417 68.4782C34.6179 68.5843 34.494 68.6905 34.3524 68.7967L34.2816 68.8675L34.2109 68.7967V68.5843V68.372V68.3012H34.1401C34.1047 68.3366 34.0693 68.3897 34.0339 68.4428C33.9985 68.4959 33.9631 68.549 33.9277 68.5843C33.9277 68.6144 33.9277 68.6317 33.9223 68.6471C33.9149 68.6679 33.8977 68.6852 33.857 68.7259L33.857 68.7259L33.8569 68.7259V68.7967C33.8569 68.8675 33.9277 68.9383 33.9985 68.9383C34.0221 68.9383 34.0457 68.9461 34.0693 68.954C34.1165 68.9697 34.1637 68.9855 34.2109 68.9383L34.2816 69.009L34.6356 69.363C34.6356 69.5045 34.7063 69.7169 34.8479 69.7877C34.9187 69.8584 35.0603 69.8584 35.2018 69.8584C35.2726 69.8584 35.2726 69.8584 35.3434 69.7877C35.4142 69.7877 35.485 69.7169 35.485 69.7169H35.4142C35.2726 69.7169 34.8479 69.7169 34.7771 69.5045V69.4337H34.8479L34.9895 69.2922C35.0957 69.1152 35.2195 68.9383 35.3434 68.7613C35.4673 68.5843 35.5911 68.4074 35.6973 68.2304C35.7681 68.0889 35.9097 67.9473 36.0512 67.8057C36.0866 67.8411 36.122 67.8588 36.1574 67.8765C36.1928 67.8942 36.2282 67.9119 36.2636 67.9473C36.4759 68.0889 36.7591 68.0889 36.9714 67.9473C37.113 67.8765 37.2545 67.6642 37.3253 67.5226C37.3636 67.446 37.3812 67.3486 37.4005 67.2417C37.4168 67.1511 37.4344 67.0537 37.4669 66.9563C37.5377 66.744 37.6085 66.5316 37.75 66.3193C37.9624 66.3193 38.1039 66.1777 38.2455 66.0362C38.3517 65.8946 38.4578 65.7353 38.564 65.5761L38.5641 65.576C38.6702 65.4168 38.7764 65.2575 38.8825 65.116C38.9958 64.9461 39.1317 64.7989 39.2676 64.6516C39.4715 64.4308 39.6753 64.21 39.8027 63.9127C39.8027 63.8773 39.8204 63.8596 39.8381 63.8419C39.8558 63.8242 39.8735 63.8065 39.8735 63.7711C39.9443 63.7711 40.0859 63.7711 40.1566 63.7003C40.2982 63.6295 40.369 63.3464 40.2982 63.2048C40.2274 62.4262 39.8735 61.7184 39.5196 61.0813L39.5196 61.0813C39.0949 60.2319 38.6702 59.3825 38.3163 58.5331C38.2455 58.368 38.1826 58.2029 38.1197 58.0377L38.1197 58.0377C37.9938 57.7073 37.868 57.377 37.6792 57.0467C37.5952 56.8954 37.4992 56.7442 37.4026 56.592C37.0923 56.1031 36.7759 55.6045 36.8298 55.0648C36.8298 55.0294 36.8475 54.9763 36.8652 54.9232C36.8829 54.8701 36.9006 54.817 36.9006 54.7816C38.1747 57.613 40.2982 60.5151 43.6958 63.134C45.0407 64.1958 46.0316 64.6913 49.3585 65.8946C49.3848 65.9012 49.4136 65.909 49.4444 65.9173C49.7445 65.9988 50.2342 66.1316 50.491 65.6822H50.9157C51.128 65.6822 51.3404 65.6822 51.5527 65.6115C51.8118 66.1296 52.3079 65.9958 52.6073 65.9151C52.6351 65.9076 52.6612 65.9006 52.6853 65.8946C56.0121 64.6913 57.003 64.125 58.3479 63.134C61.7455 60.5151 63.869 57.613 65.1431 54.7816C65.1431 54.817 65.1608 54.8701 65.1785 54.9232C65.1962 54.9763 65.2139 55.0294 65.2139 55.0648C65.3332 55.6611 64.95 56.2073 64.5723 56.7455C64.5017 56.8461 64.4314 56.9464 64.3645 57.0467C64.0813 57.5422 63.869 58.0377 63.7274 58.5331C63.6825 58.6411 63.6375 58.7501 63.5922 58.8599L63.5919 58.8607C63.2811 59.6147 62.9565 60.4019 62.5241 61.0813C62.4611 61.2073 62.3959 61.331 62.3312 61.4537C62.0325 62.0204 61.7455 62.5648 61.7455 63.2048C61.7455 63.4172 61.7455 63.6295 61.8871 63.7003C61.9579 63.7711 62.0994 63.7711 62.1702 63.7711C62.1702 63.8419 62.1702 63.8419 62.241 63.9127C62.3629 64.1565 62.5548 64.377 62.7498 64.601L62.7498 64.601C62.8944 64.7671 63.0406 64.9351 63.1612 65.116C63.242 65.2238 63.3126 65.3419 63.3847 65.4624C63.5019 65.6584 63.6229 65.8608 63.7982 66.0362C63.9398 66.1777 64.0813 66.3193 64.2937 66.3193C64.3291 66.4255 64.3822 66.5316 64.4353 66.6378C64.4883 66.744 64.5414 66.8502 64.5768 66.9563C64.6151 67.033 64.6327 67.1303 64.652 67.2372L64.652 67.2373C64.6684 67.3278 64.6859 67.4252 64.7184 67.5226C64.7281 67.5421 64.7379 67.5629 64.748 67.5844C64.8113 67.7199 64.8892 67.8862 65.0723 67.9473C65.2847 68.0889 65.5678 68.0181 65.7801 67.9473C65.8509 67.9473 65.9217 67.8765 65.9925 67.8058L65.9925 67.8057C66.0633 67.8765 66.1164 67.9473 66.1694 68.0181C66.2225 68.0889 66.2756 68.1597 66.3464 68.2304C66.6295 68.5843 66.8419 68.9383 67.0542 69.2922C67.0813 69.3192 67.098 69.3463 67.1123 69.3693C67.1353 69.4067 67.1521 69.4337 67.1958 69.4337H67.2666V69.5045C67.2194 69.5989 67.0464 69.6304 66.8733 69.6618L66.8732 69.6618C66.7868 69.6776 66.7003 69.6933 66.6295 69.7169H66.5588C66.5941 69.7169 66.6118 69.7346 66.6295 69.7523C66.6472 69.77 66.6649 69.7877 66.7003 69.7877C66.7304 69.7877 66.7477 69.7877 66.7631 69.7931C66.7839 69.8004 66.8012 69.8177 66.8419 69.8584C66.9835 69.8584 67.0542 69.8584 67.1958 69.7877C67.3374 69.7169 67.4082 69.5045 67.4082 69.363L67.7621 69.009V68.9383H67.9744C68.0452 68.9383 68.116 68.8675 68.116 68.7967V68.7259C68.116 68.6958 68.116 68.6785 68.1106 68.6632C68.1032 68.6424 68.0859 68.6251 68.0452 68.5843C68.0297 68.5533 68.0176 68.5257 68.0066 68.5007C67.9676 68.4118 67.9434 68.3565 67.8329 68.3012H67.7621V68.372V68.5843V68.7967C67.7621 68.7967 67.7621 68.8675 67.6913 68.8675L67.6205 68.7967C67.3374 68.5843 67.0542 68.372 66.8419 68.1597C66.6295 67.9473 66.4172 67.735 66.1341 67.5934C66.1341 67.558 66.1518 67.5226 66.1695 67.4872C66.1871 67.4518 66.2048 67.4164 66.2048 67.381C66.2048 67.0271 65.9925 66.744 65.7094 66.6024C65.5961 66.5175 65.4829 66.4552 65.3696 66.3929C65.1997 66.2995 65.0298 66.206 64.86 66.0362C64.7892 65.9654 64.7184 65.8946 64.7184 65.8238C64.7184 65.8238 64.6476 65.8238 64.6476 65.753C64.5768 65.4699 64.3645 65.1868 64.1521 64.9744C63.7982 64.6205 63.3735 64.3374 62.9488 64.0542C62.878 63.9834 62.7365 63.8419 62.5241 63.7711C62.8073 63.6295 63.0196 63.3464 63.1612 63.0633C65.0015 60.5859 66.1341 57.5422 65.8509 54.4985C65.8509 54.2862 65.7801 54.0738 65.7094 53.9322C65.6927 53.9156 65.676 53.8949 65.6584 53.8731L65.6583 53.8731C65.6012 53.8025 65.5344 53.7199 65.4262 53.7199C66.5588 50.6762 66.7003 47.6325 66.4172 45.0136C66.5353 45.2792 66.641 45.5448 66.7447 45.8054C66.8897 46.1696 67.0307 46.5238 67.1958 46.8539C67.2406 46.9286 67.2855 47.0065 67.3309 47.0855C67.501 47.3808 67.6803 47.6923 67.9036 47.9157C68.116 48.0572 68.4699 48.2696 68.753 48.1988H68.8238C68.8946 48.2696 69.0362 48.3404 69.107 48.3404C69.2839 48.4112 69.4432 48.4642 69.6024 48.5173C69.7617 48.5704 69.921 48.6235 70.0979 48.6943C70.1687 48.7297 70.2218 48.7651 70.2749 48.8005C70.328 48.8359 70.381 48.8712 70.4518 48.9066C70.689 49.0252 70.9759 49.0942 71.2292 49.155C71.2783 49.1668 71.3261 49.1783 71.372 49.1898C71.4428 49.1898 71.5844 49.1898 71.6551 49.119L71.7259 49.0482C72.0091 49.1898 72.2922 49.3313 72.5045 49.5437C72.5399 49.6145 72.593 49.6676 72.6461 49.7206C72.6992 49.7737 72.7523 49.8268 72.7877 49.8976C73 50.0392 73.3539 49.9684 73.4955 49.756C73.5663 49.6853 73.5663 49.6145 73.5663 49.5437C73.8494 49.6499 74.0972 49.7914 74.3449 49.933C74.5926 50.0746 74.8404 50.2161 75.1235 50.3223C75.1589 50.3223 75.1943 50.34 75.2297 50.3577C75.2651 50.3754 75.3005 50.3931 75.3359 50.3931V50.5347C75.3359 50.6254 75.2486 50.658 75.1673 50.6883C75.1218 50.7053 75.0781 50.7216 75.0527 50.747C75.1943 50.8886 75.619 50.747 75.619 50.5347C75.619 50.4639 75.619 50.3931 75.5482 50.3223C75.5482 50.3223 75.619 50.2515 75.619 50.1807C75.6898 50.11 75.6898 49.9684 75.6898 49.8268V49.756C75.7252 49.756 75.7429 49.7383 75.7606 49.7206C75.7783 49.7029 75.796 49.6853 75.8313 49.6853C75.864 49.6798 75.8946 49.6744 75.9232 49.6689L75.9729 49.6853H76.0437C76.0972 49.6853 76.1102 49.6449 76.1134 49.6251C76.2905 49.5744 76.3268 49.5236 76.3268 49.4729ZM50.7741 65.2575V65.116L51.128 34.75L51.4819 65.116V65.2575H50.7741ZM54.1009 41.0497C53.3223 41.1205 52.5437 40.6958 52.1898 40.0588C52.0482 39.7756 51.9774 39.4217 51.9066 39.0678C51.8829 38.9372 51.8572 38.8047 51.8311 38.6705L51.8311 38.6705C51.7018 38.0043 51.5646 37.2973 51.6235 36.5904L51.6352 36.5313C51.7027 36.1901 51.7807 35.7962 52.0482 35.5286C52.4315 35.2001 52.8996 35.4223 53.3541 35.638C53.487 35.7012 53.6188 35.7637 53.747 35.8118C53.8534 35.8726 53.9631 35.9301 54.0732 35.9879C54.4759 36.1992 54.8848 36.4137 55.1627 36.8027C55.5166 37.1567 55.6581 37.6521 55.7997 38.1476L55.7997 38.1476C55.9413 38.7139 55.9413 39.2094 55.7997 39.7049C55.5874 40.4127 54.8795 40.9789 54.1009 41.0497ZM54.2425 49.2606C54.3133 50.0392 54.8087 50.8886 55.5874 51.1717C55.7555 51.2053 55.9236 51.223 56.0841 51.2398H56.0841L56.0842 51.2399C56.2616 51.2585 56.4297 51.2761 56.5783 51.3133H56.5783C57.2154 51.3133 57.8524 51.3133 58.3479 51.1009C58.7726 50.8886 59.0557 50.5347 59.3389 50.1808L59.3831 50.1277C59.7276 49.7149 60.1263 49.2371 60.3298 48.6943C60.613 48.128 60.6837 47.491 60.4714 46.9247C60.3298 46.5708 60.1175 46.2877 59.9051 46.0753C58.985 45.0844 57.4985 44.7305 56.366 45.2967C55.7289 45.6506 55.2334 46.2169 54.8795 46.8539C54.4548 47.5618 54.1717 48.4112 54.2425 49.2606ZM63.5859 46.2169C63.4443 46.1461 63.3027 46.0753 63.2319 45.9338C62.4533 44.9428 62.0994 43.7395 62.1702 42.4654C62.1702 42.253 62.241 42.0407 62.3825 41.8991C62.5949 41.6868 62.9488 41.616 63.2319 41.616H63.4443L63.6566 41.8283C64.1521 42.8901 64.506 44.0226 64.4353 45.2259C64.4353 45.5091 64.3645 45.7214 64.2937 45.9338C64.0813 46.1461 63.869 46.3585 63.5859 46.2169ZM56.5076 58.604C56.2952 58.9579 56.2244 59.4534 56.5076 59.8073C56.7199 60.0904 57.2154 60.232 57.7109 60.3028C58.6311 60.232 59.5512 59.8073 60.2591 59.241C60.9669 58.6747 61.6039 57.8961 62.1702 57.1883C62.3118 57.0467 62.4533 56.8344 62.5241 56.622C62.8073 55.985 62.3118 55.1356 61.6039 54.994C60.9137 54.856 60.2909 55.3236 59.7353 55.7408L59.6928 55.7726L57.357 57.6838C57.2872 57.7535 57.2132 57.8232 57.1381 57.894C56.9081 58.1106 56.6676 58.3372 56.5076 58.604ZM48.2259 41.0497C49.0045 41.1205 49.7831 40.6958 50.1371 40.0588C50.2786 39.7756 50.3494 39.4217 50.4202 39.0678C50.4439 38.9372 50.4697 38.8047 50.4957 38.6705C50.625 38.0043 50.7622 37.2974 50.7033 36.5904L50.6916 36.5313C50.6241 36.1902 50.5462 35.7962 50.2786 35.5286C49.8953 35.2001 49.4272 35.4223 48.9727 35.638C48.8398 35.7012 48.708 35.7637 48.5798 35.8118C48.4734 35.8726 48.3637 35.9301 48.2536 35.9879C47.8509 36.1992 47.4421 36.4137 47.1642 36.8027C46.8103 37.1567 46.6687 37.6521 46.5271 38.1476C46.3856 38.7139 46.3856 39.2094 46.5271 39.7049C46.7395 40.4127 47.4473 40.9789 48.2259 41.0497ZM48.0844 49.2606C48.0136 50.0392 47.5181 50.8886 46.7395 51.1717C46.5714 51.2053 46.4032 51.223 46.2427 51.2398H46.2427L46.2427 51.2399C46.0653 51.2585 45.8971 51.2761 45.7485 51.3133H45.7485C45.1114 51.3133 44.5452 51.3133 43.9789 51.1009C43.5542 50.8886 43.2711 50.5347 42.988 50.1808L42.9437 50.1277C42.5993 49.7149 42.2006 49.2371 41.997 48.6943C41.7139 48.128 41.6431 47.491 41.8554 46.9247C41.997 46.5708 42.2094 46.2877 42.4217 46.0753C43.3419 45.0844 44.8283 44.7305 45.9609 45.2967C46.5979 45.6506 47.0934 46.2169 47.4473 46.8539C47.872 47.5618 48.1551 48.4112 48.0844 49.2606ZM38.741 46.2169C38.8825 46.1461 39.0241 46.0753 39.0949 45.9338C39.8735 44.9428 40.2274 43.7395 40.1566 42.4654C40.1566 42.253 40.0859 42.0407 39.9443 41.8991C39.7319 41.6868 39.378 41.616 39.0949 41.616H38.8825L38.6702 41.8283C38.1747 42.8901 37.8208 44.0226 37.8916 45.2259C37.8916 45.5091 37.9624 45.7214 38.0331 45.9338C38.2455 46.1461 38.4578 46.3585 38.741 46.2169ZM45.8193 58.604C46.0316 58.9579 46.1024 59.4534 45.8193 59.8073C45.6069 60.0904 45.1114 60.232 44.616 60.3028C43.6958 60.232 42.7756 59.8073 42.0678 59.241C41.3599 58.6747 40.7229 57.8961 40.1566 57.1883C40.0151 57.0467 39.8735 56.8344 39.8027 56.622C39.5196 55.985 40.0151 55.1356 40.7229 54.994C41.4131 54.856 42.036 55.3236 42.5916 55.7408C42.6058 55.7514 42.6199 55.7621 42.634 55.7726L44.9699 57.6838C45.0396 57.7535 45.1136 57.8232 45.1887 57.894C45.4187 58.1106 45.6592 58.3372 45.8193 58.604Z" fill="url(#paint1_linear_1_389)"/>
</g>
</g>
<defs>
<filter id="filter0_dii_1_389" x="0.801727" y="3.43323e-05" width="104.397" height="96" filterUnits="userSpaceOnUse" color-interpolation-filters="sRGB">
<feFlood flood-opacity="0" result="BackgroundImageFix"/>
<feColorMatrix in="SourceAlpha" type="matrix" values="0 0 0 0 0 0 0 0 0 0 0 0 0 0 0 0 0 0 127 0" result="hardAlpha"/>
<feOffset dx="2" dy="2"/>
<feGaussianBlur stdDeviation="2"/>
<feColorMatrix type="matrix" values="0 0 0 0 0 0 0 0 0 0 0 0 0 0 0 0 0 0 0.25 0"/>
<feBlend mode="normal" in2="BackgroundImageFix" result="effect1_dropShadow_1_389"/>
<feBlend mode="normal" in="SourceGraphic" in2="effect1_dropShadow_1_389" result="shape"/>
<feColorMatrix in="SourceAlpha" type="matrix" values="0 0 0 0 0 0 0 0 0 0 0 0 0 0 0 0 0 0 127 0" result="hardAlpha"/>
<feOffset dx="5" dy="5"/>
<feGaussianBlur stdDeviation="1"/>
<feComposite in2="hardAlpha" operator="arithmetic" k2="-1" k3="1"/>
<feColorMatrix type="matrix" values="0 0 0 0 1 0 0 0 0 1 0 0 0 0 1 0 0 0 0.25 0"/>
<feBlend mode="normal" in2="shape" result="effect2_innerShadow_1_389"/>
<feColorMatrix in="SourceAlpha" type="matrix" values="0 0 0 0 0 0 0 0 0 0 0 0 0 0 0 0 0 0 127 0" result="hardAlpha"/>
<feOffset dx="-5" dy="-5"/>
<feGaussianBlur stdDeviation="1"/>
<feComposite in2="hardAlpha" operator="arithmetic" k2="-1" k3="1"/>
<feColorMatrix type="matrix" values="0 0 0 0 0 0 0 0 0 0 0 0 0 0 0 0 0 0 1 0"/>
<feBlend mode="normal" in2="effect2_innerShadow_1_389" result="effect3_innerShadow_1_389"/>
</filter>
<filter id="filter1_ii_1_389" x="31.866" y="21.9936" width="38.4533" height="12.907" filterUnits="userSpaceOnUse" color-interpolation-filters="sRGB">
<feFlood flood-opacity="0" result="BackgroundImageFix"/>
<feBlend mode="normal" in="SourceGraphic" in2="BackgroundImageFix" result="shape"/>
<feColorMatrix in="SourceAlpha" type="matrix" values="0 0 0 0 0 0 0 0 0 0 0 0 0 0 0 0 0 0 127 0" result="hardAlpha"/>
<feOffset dx="-1" dy="-1"/>
<feGaussianBlur stdDeviation="1"/>
<feComposite in2="hardAlpha" operator="arithmetic" k2="-1" k3="1"/>
<feColorMatrix type="matrix" values="0 0 0 0 0.983333 0 0 0 0 0.602292 0 0 0 0 0.612189 0 0 0 1 0"/>
<feBlend mode="normal" in2="shape" result="effect1_innerShadow_1_389"/>
<feColorMatrix in="SourceAlpha" type="matrix" values="0 0 0 0 0 0 0 0 0 0 0 0 0 0 0 0 0 0 127 0" result="hardAlpha"/>
<feOffset dx="1" dy="1"/>
<feGaussianBlur stdDeviation="1"/>
<feComposite in2="hardAlpha" operator="arithmetic" k2="-1" k3="1"/>
<feColorMatrix type="matrix" values="0 0 0 0 0.375 0 0 0 0 0.0390625 0 0 0 0 0.0477881 0 0 0 1 0"/>
<feBlend mode="normal" in2="effect1_innerShadow_1_389" result="effect2_innerShadow_1_389"/>
</filter>
<filter id="filter2_ii_1_389" x="25.0708" y="32.2636" width="52.256" height="38.5949" filterUnits="userSpaceOnUse" color-interpolation-filters="sRGB">
<feFlood flood-opacity="0" result="BackgroundImageFix"/>
<feBlend mode="normal" in="SourceGraphic" in2="BackgroundImageFix" result="shape"/>
<feColorMatrix in="SourceAlpha" type="matrix" values="0 0 0 0 0 0 0 0 0 0 0 0 0 0 0 0 0 0 127 0" result="hardAlpha"/>
<feOffset dx="-1" dy="-1"/>
<feGaussianBlur stdDeviation="1"/>
<feComposite in2="hardAlpha" operator="arithmetic" k2="-1" k3="1"/>
<feColorMatrix type="matrix" values="0 0 0 0 0.983333 0 0 0 0 0.602292 0 0 0 0 0.612189 0 0 0 1 0"/>
<feBlend mode="normal" in2="shape" result="effect1_innerShadow_1_389"/>
<feColorMatrix in="SourceAlpha" type="matrix" values="0 0 0 0 0 0 0 0 0 0 0 0 0 0 0 0 0 0 127 0" result="hardAlpha"/>
<feOffset dx="1" dy="1"/>
<feGaussianBlur stdDeviation="1"/>
<feComposite in2="hardAlpha" operator="arithmetic" k2="-1" k3="1"/>
<feColorMatrix type="matrix" values="0 0 0 0 0.375 0 0 0 0 0.0390625 0 0 0 0 0.0477881 0 0 0 1 0"/>
<feBlend mode="normal" in2="effect1_innerShadow_1_389" result="effect2_innerShadow_1_389"/>
</filter>
<linearGradient id="paint0_linear_1_389" x1="51.0926" y1="22.9936" x2="51.0926" y2="33.9006" gradientUnits="userSpaceOnUse">
<stop stop-color="#CF3539"/>
<stop offset="1" stop-color="#F26064"/>
</linearGradient>
<linearGradient id="paint1_linear_1_389" x1="51.1988" y1="33.2636" x2="51.1988" y2="69.8584" gradientUnits="userSpaceOnUse">
<stop stop-color="#CF3539"/>
<stop offset="1" stop-color="#F26064"/>
</linearGradient>
<clipPath id="clip0_1_389">
<rect width="50.3268" height="47" fill="white" transform="translate(26 23)"/>
</clipPath>
</defs>
</svg>
