<svg width="106" height="96" viewBox="0 0 106 96" fill="none" xmlns="http://www.w3.org/2000/svg">
<g filter="url(#filter0_dii_1_12672)">
<path d="M4.36824 51.9281C2.27955 48.252 2.27955 43.748 4.36824 40.0719L22.5501 8.07188C24.6826 4.31862 28.6667 2 32.9835 2L69.0165 2C73.3332 2 77.3174 4.31862 79.4499 8.07188L97.6317 40.0719C99.7204 43.748 99.7204 48.252 97.6318 51.9281L79.4499 83.9281C77.3174 87.6814 73.3333 90 69.0165 90L32.9835 90C28.6667 90 24.6826 87.6814 22.5501 83.9281L4.36824 51.9281Z" fill="#221B11"/>
<path d="M4.47693 51.8664C2.40999 48.2286 2.40999 43.7714 4.47693 40.1336L22.6587 8.13364C24.7691 4.41946 28.7117 2.125 32.9835 2.125L69.0165 2.125C73.2883 2.125 77.2309 4.41946 79.3413 8.13363L97.5231 40.1336C99.59 43.7714 99.59 48.2285 97.5231 51.8664L79.3413 83.8664C77.2309 87.5805 73.2883 89.875 69.0165 89.875L32.9835 89.875C28.7117 89.875 24.7691 87.5805 22.6587 83.8664L4.47693 51.8664Z" stroke="#403522" stroke-width="0.25"/>
</g>
<g clip-path="url(#clip0_1_12672)">
<g filter="url(#filter1_ii_1_12672)">
<path d="M80.5784 39.5702C79.5158 38.9152 78.2629 38.7439 77.3271 38.5647C75.6729 38.2459 74.2249 38.0873 72.3328 37.9921C72.1076 37.981 70.1108 37.9684 69.9157 37.9763C66.5312 38.1254 64.674 38.6694 61.502 39.5829C60.4536 39.8842 59.3672 39.7558 58.3442 39.9477C58.1935 39.9762 57.9683 40.0095 57.8002 40.0413C58.0032 39.6812 58.2062 39.318 58.414 38.9612C58.4219 38.9469 58.4552 38.9342 58.4648 38.9279C58.5155 38.8914 58.5266 38.8898 58.5821 38.8549C58.6392 38.82 58.6218 38.8311 58.7153 38.7661C58.8089 38.7011 59.0119 38.5583 59.1451 38.4632C59.2451 38.3918 59.4037 38.2808 59.5131 38.2015C59.6035 38.0572 59.7129 37.8891 59.8018 37.7542C59.9175 37.583 60.0397 37.3974 60.1285 37.2324C60.2173 37.0675 60.2665 36.901 60.3236 36.7503C60.3965 36.5616 60.4235 36.4537 60.5329 36.2824C60.5662 36.2317 60.6011 36.2301 60.6756 36.1476C60.7026 36.1175 60.6344 36.1381 60.7708 36.0128C61.3909 35.4466 61.8826 34.6489 62.2807 33.9986C62.4805 33.6719 62.3647 33.3007 62.5249 33.0359C62.5725 32.9566 62.5471 32.9471 62.5709 32.8805C62.5947 32.8138 62.5915 32.771 62.6122 32.7076C62.6534 32.6949 62.7153 32.6743 62.7517 32.6616C62.9405 32.5966 63.08 32.53 63.2672 32.4507C63.5051 32.3491 63.7113 32.2524 63.9841 32.1779C64.2569 32.1033 64.5883 32.0446 64.8897 31.9939C65.1212 31.9542 65.3639 31.9067 65.6129 31.8607C65.6509 31.8543 65.762 31.9019 65.8207 31.8829C65.8413 31.8765 65.8635 31.8654 65.8984 31.8527C65.9333 31.84 65.9824 31.8051 65.9967 31.7528C65.9983 31.7481 66.049 31.6894 66.0522 31.6703C66.0681 31.5895 66.103 31.5435 66.0411 31.4578C66.0221 31.4309 65.9666 31.2802 65.9396 31.2342C65.9126 31.1882 65.8127 30.8948 65.7794 30.852C65.7461 30.8091 65.7223 30.8091 65.6985 30.7933C65.6732 30.7774 65.6573 30.7838 65.6398 30.7885C65.1926 30.9249 64.5915 31.1993 64.1744 31.296C63.6637 31.415 62.9801 31.8718 62.6248 31.9717C62.2696 32.0716 62.2981 32.0748 62.1221 32.1826C61.946 32.2905 61.9873 32.2968 61.8414 32.392C61.6954 32.4871 61.2926 32.5522 61.1578 32.7155C61.0817 32.8075 61.0817 32.7774 60.9389 32.9677C60.6756 33.3182 60.3156 33.4974 60.0634 33.9161C60.0048 34.0144 60.0159 33.9827 59.9588 34.0684C59.7748 34.3459 59.7447 34.6504 59.5861 34.9661C59.5194 35.0977 59.3878 35.5354 59.3482 35.6909C59.3069 35.8463 59.2609 36.0176 59.2007 36.1714C59.1959 36.1841 59.188 36.2095 59.1785 36.2238C59.1689 36.2364 59.1515 36.2523 59.1404 36.2634C58.9437 36.4632 58.7534 36.6536 58.5567 36.8534C58.433 36.9787 58.3157 37.0961 58.184 37.2309C58.138 37.2784 58.0825 37.3308 57.9905 37.3498C57.962 37.3562 57.8288 37.3752 57.7875 37.3958C57.6876 37.4466 57.5909 37.5132 57.4957 37.5687C57.3625 37.6448 57.3038 37.6401 57.1801 37.732C57.1166 37.7796 57.0564 37.8367 56.9961 37.8954C56.7661 37.8542 56.8074 38.0603 56.6615 37.8621C56.4743 37.7701 56.2872 37.6543 56.1809 37.483C56.1524 37.437 56.1397 37.4434 56.1175 37.4212C55.9938 37.2991 55.8986 37.2007 55.8367 37.0374C55.8288 37.0152 55.8114 36.9771 55.8145 36.9486C55.8177 36.92 55.5338 36.9232 55.8018 36.7709C55.8938 36.7186 56.1095 36.6203 56.1809 36.5314C56.2792 36.4125 56.3157 36.2951 56.395 36.1793C56.4537 36.0953 56.4918 36.0128 56.5441 35.9272C56.5568 35.9081 56.5647 35.8796 56.579 35.8637C56.5933 35.8479 56.6218 35.8336 56.6361 35.8257C56.6789 35.7987 56.7186 35.7876 56.763 35.7749C56.763 35.7733 56.7645 35.7702 56.7661 35.7654C56.7757 35.7353 56.7915 35.6798 56.801 35.6306C56.8121 35.5814 56.8312 35.4989 56.8518 35.4434C56.8724 35.3879 56.8994 35.3403 56.9327 35.2896C56.9374 35.2817 56.9374 35.2785 56.9422 35.2626C56.9787 35.1405 57.0215 35.012 57.0532 34.8836C57.0675 34.8217 57.1071 34.7472 57.1071 34.6837C57.1055 34.614 57.0611 34.5537 57.0611 34.4776C57.0611 34.403 57.0659 34.3205 57.0802 34.246C57.0833 34.2286 57.0849 34.2175 57.0881 34.1984C57.1071 34.1128 57.1452 34.0604 57.2055 33.9907C57.2166 33.978 57.2372 33.9288 57.2372 33.9034C57.2372 33.8781 57.2261 33.8717 57.2166 33.84C57.1848 33.7369 57.1515 33.6528 57.1341 33.5339C57.1151 33.4149 57.1087 33.2373 57.1087 33.112C57.1087 32.9867 57.1024 32.8345 57.0881 32.7282C57.0802 32.6679 57.0659 32.641 57.0627 32.6077C57.0548 32.5173 56.9596 32.4269 56.9691 32.338C57.0262 31.7243 56.2919 30.7298 56.0175 30.457C55.6369 30.078 55.5925 30.1636 55.3197 29.9971C54.9676 29.7814 54.5806 29.9083 54.2951 29.8084C54.1349 29.7529 54.2269 29.7544 54.154 29.7307C54.081 29.7069 54.0842 29.7227 54.0683 29.7196C53.9113 29.6783 53.9526 29.7307 53.7591 29.6498C53.5656 29.5689 53.6036 29.5181 53.361 29.4341C54.0319 28.8028 54.3094 28.3508 55.0469 27.6625C55.5639 27.1788 56.3173 26.1368 56.8454 25.5262C57.5639 24.6935 58.3157 23.8133 59.0801 23.1456C59.7907 22.5239 60.6439 22.3922 61.318 21.9006C61.5289 21.7467 61.3687 21.5326 61.337 21.3375C61.3322 21.3137 60.6471 21.0076 60.59 21.0076C60.341 21.0045 60.1761 20.9965 59.9746 21.1139C59.5543 21.3582 59.659 21.374 59.234 21.6103C59.1103 21.6801 58.6916 22.3906 58.5647 22.489C58.0936 22.8506 58.5409 22.5841 57.889 23.1805C57.5068 23.5294 56.1888 24.7554 55.5513 25.3612C54.8201 26.0559 53.4498 27.6689 52.8313 28.2287C52.1635 28.833 51.6766 28.9392 51.6465 28.9345C51.5577 28.9186 51.2817 28.871 51.1517 28.8631C51.112 28.8663 51.0565 28.8726 50.9978 28.879C50.9391 28.871 50.8852 28.8647 50.844 28.8631C50.7139 28.871 50.438 28.917 50.3491 28.9345C50.319 28.9408 49.8321 28.833 49.1644 28.2287C48.5443 27.6673 47.1756 26.0559 46.4444 25.3612C45.8068 24.7554 44.4889 23.5294 44.1066 23.1805C43.4548 22.5841 43.902 22.8506 43.431 22.489C43.3025 22.3906 42.8854 21.6785 42.7617 21.6103C42.3366 21.374 42.4413 21.3582 42.021 21.1139C41.8196 20.9965 41.6547 21.0045 41.4057 21.0076C41.3486 21.0076 40.6618 21.3137 40.6586 21.3375C40.6269 21.5326 40.4667 21.7467 40.6777 21.9006C41.3501 22.3922 42.2034 22.5239 42.9155 23.1456C43.68 23.8133 44.4318 24.6935 45.1502 25.5262C45.6784 26.1368 46.4317 27.1788 46.9487 27.6625C47.6847 28.3508 47.9622 28.8028 48.6347 29.4341C48.392 29.5197 48.4285 29.5705 48.2366 29.6498C48.0431 29.7307 48.0843 29.6783 47.9273 29.7196C47.9115 29.7243 47.9146 29.7069 47.8417 29.7307C47.7687 29.7544 47.8607 29.7529 47.7005 29.8084C47.415 29.9083 47.0281 29.7814 46.676 29.9971C46.4048 30.1636 46.3603 30.078 45.9781 30.457C45.7037 30.7298 44.9694 31.7258 45.0265 32.338C45.0344 32.4269 44.9409 32.5173 44.9329 32.6077C44.9298 32.641 44.9155 32.6679 44.9076 32.7282C44.8933 32.8345 44.8869 32.9867 44.8869 33.112C44.8869 33.2373 44.8806 33.4149 44.8616 33.5339C44.8425 33.6528 44.8092 33.7369 44.7791 33.84C44.7696 33.8701 44.7585 33.8765 44.7585 33.9034C44.7585 33.9288 44.7791 33.978 44.7902 33.9907C44.8505 34.0604 44.8885 34.1128 44.9076 34.1984C44.9123 34.2159 44.9123 34.227 44.9155 34.246C44.9298 34.3205 44.9345 34.403 44.9345 34.4776C44.9345 34.5521 44.8901 34.6124 44.8885 34.6837C44.8869 34.7472 44.9266 34.8217 44.9425 34.8836C44.9726 35.012 45.017 35.1405 45.0535 35.2626C45.0582 35.2785 45.0582 35.2817 45.063 35.2896C45.0963 35.3403 45.1233 35.3879 45.1439 35.4434C45.1645 35.4989 45.1835 35.5798 45.1946 35.6306C45.2057 35.6798 45.22 35.7353 45.2295 35.7654C45.2311 35.7717 45.2327 35.7733 45.2327 35.7749C45.2787 35.7876 45.3167 35.7987 45.3596 35.8257C45.3738 35.8352 45.4024 35.8479 45.4167 35.8637C45.4309 35.8796 45.4405 35.9081 45.4516 35.9272C45.5039 36.0128 45.542 36.0937 45.6006 36.1793C45.6799 36.2951 45.7164 36.4125 45.8148 36.5314C45.8877 36.6203 46.1034 36.7186 46.1938 36.7709C46.4634 36.9232 46.178 36.92 46.1811 36.9486C46.1843 36.9771 46.1668 37.0152 46.1589 37.0374C46.0971 37.2007 46.0035 37.2991 45.8782 37.4212C45.856 37.4434 45.8433 37.437 45.8148 37.483C45.7085 37.6559 45.5213 37.7701 45.3342 37.8621C45.1883 38.0603 45.2311 37.8542 44.9995 37.8954C44.9409 37.8367 44.879 37.7796 44.8156 37.732C44.6919 37.6401 44.6332 37.6464 44.5 37.5687C44.4048 37.5148 44.308 37.4466 44.2081 37.3958C44.1669 37.3752 44.0337 37.3546 44.0051 37.3498C43.9115 37.3308 43.8576 37.2784 43.8116 37.2309C43.68 37.0961 43.5642 36.9803 43.4389 36.8534C43.2407 36.6536 43.0519 36.4632 42.8553 36.2634C42.8457 36.2539 42.8267 36.238 42.8172 36.2238C42.8077 36.2111 42.7998 36.1857 42.795 36.1714C42.7363 36.016 42.6887 35.8463 42.6475 35.6909C42.6063 35.5354 42.4762 35.0961 42.4096 34.9661C42.2494 34.6504 42.2209 34.3459 42.0369 34.0684C41.9798 33.9827 41.9925 34.0144 41.9322 33.9161C41.68 33.4974 41.32 33.3182 41.0567 32.9677C40.9156 32.779 40.914 32.8075 40.8379 32.7155C40.7046 32.5522 40.3002 32.4871 40.1543 32.392C40.0084 32.2968 40.0512 32.2905 39.8736 32.1826C39.6975 32.0748 39.7261 32.0716 39.3708 31.9717C39.0155 31.8718 38.332 31.4134 37.8213 31.296C37.4026 31.1993 36.8031 30.9249 36.3558 30.7885C36.3384 30.7838 36.3225 30.7758 36.2971 30.7933C36.2717 30.8091 36.2495 30.8091 36.2162 30.852C36.1829 30.8948 36.0846 31.1882 36.0561 31.2342C36.0291 31.2802 35.9752 31.4309 35.9545 31.4578C35.8927 31.5435 35.9276 31.5895 35.9434 31.6703C35.9466 31.6878 35.999 31.7465 35.999 31.7528C36.0132 31.8051 36.0624 31.8385 36.0973 31.8527C36.1322 31.8654 36.1544 31.8765 36.175 31.8829C36.2337 31.9019 36.3447 31.8543 36.3828 31.8607C36.6302 31.9067 36.8744 31.9542 37.106 31.9939C37.4073 32.0446 37.7388 32.1033 38.0116 32.1779C38.2844 32.2524 38.4906 32.3507 38.7285 32.4507C38.9156 32.53 39.0552 32.595 39.2439 32.6616C39.282 32.6743 39.3423 32.6949 39.3835 32.7076C39.4041 32.771 39.4009 32.8154 39.4247 32.8805C39.4485 32.9471 39.4231 32.9582 39.4707 33.0359C39.6309 33.3007 39.5151 33.6719 39.715 33.9986C40.1131 34.6473 40.6063 35.4466 41.2249 36.0128C41.3612 36.1381 41.2931 36.1159 41.32 36.1476C41.3946 36.2301 41.4294 36.2317 41.4628 36.2824C41.5722 36.4521 41.5991 36.56 41.6721 36.7503C41.7292 36.8994 41.78 37.0675 41.8672 37.2324C41.956 37.3974 42.0781 37.583 42.1939 37.7542C42.2843 37.8891 42.3937 38.0572 42.4826 38.2015C42.592 38.2808 42.7506 38.3902 42.8505 38.4632C42.9837 38.5583 43.1852 38.7011 43.2803 38.7661C43.3739 38.8311 43.3564 38.82 43.4135 38.8549C43.4706 38.8898 43.4817 38.8914 43.5309 38.9279C43.5404 38.9342 43.5737 38.9485 43.5817 38.9612C43.7894 39.3196 43.9924 39.6812 44.1954 40.0413C44.0273 40.0095 43.8021 39.9762 43.6514 39.9477C42.6285 39.7558 41.5421 39.8842 40.4937 39.5829C37.3217 38.6694 35.4645 38.1254 32.0799 37.9763C31.8849 37.9684 29.8881 37.981 29.6629 37.9921C27.7708 38.0873 26.3227 38.2459 24.6685 38.5647C23.7344 38.7439 22.4798 38.9152 21.4172 39.5702C20.1008 40.3822 19.8027 41.2482 20.1024 42.4409C20.3022 43.2386 21.0112 44.2109 21.0144 44.2109C21.0667 44.268 21.1175 44.3504 21.1872 44.4091C22.7843 45.7651 24.6669 46.5994 26.751 46.915C26.8493 46.9293 27.0095 46.9848 26.9984 47.1989C26.9873 47.413 26.697 47.5922 26.5844 47.9158C26.4718 48.2393 26.5828 48.428 26.7494 48.6596C27.7977 49.6715 28.2688 49.497 29.0174 49.9268C30.1196 50.3503 30.9983 50.4914 32.2084 50.401C32.8143 50.3566 33.6009 50.2282 34.2401 50.271C35.5676 49.9205 38.6175 49.1449 39.9212 48.7278C40.0338 48.9118 39.2122 49.4732 39.2979 49.6826C38.9315 50.3106 37.2392 51.2178 36.8919 51.7047C36.5445 52.1916 36.9046 52.5183 36.5779 52.9148C35.4407 53.4002 32.6905 54.2709 31.8373 54.6468C30.984 55.0226 31.4519 54.7625 30.9792 54.9671C30.6842 55.094 30.8904 55.0401 30.7524 55.2336C30.8095 55.2764 30.9333 55.4366 30.9697 55.4905C31.0062 55.5444 31.3995 56.1646 31.4408 56.2185C31.5677 56.2359 31.6295 56.155 31.7358 56.0757C31.9546 55.9108 32.1481 55.757 32.3607 55.5952C32.7286 55.4873 33.0982 55.3795 33.4661 55.2716C33.5391 55.3002 33.6295 55.316 33.6897 55.3573C34.0545 55.2494 34.1354 55.3446 34.5716 55.1828C35.0077 55.021 36.1385 54.1932 36.5223 54.0171C36.9062 53.8426 36.6032 53.9346 36.8459 53.8157C36.9648 53.822 37.1377 53.7697 37.2598 53.7887C37.4819 53.5873 37.3138 53.8458 37.6167 53.5524C37.9196 53.259 38.221 53.1194 38.6952 52.5596C39.1694 52.0013 40.5429 51.3606 41.1424 50.6151C41.7403 49.8681 41.7133 49.8697 42.4064 49.1655C42.4952 49.1782 43.5277 48.4201 43.5991 48.4518C43.7514 48.3789 43.9528 48.3709 44.1732 48.2568C44.3937 48.1426 44.9028 48.2837 45.3104 48.2219C46.0098 48.1172 45.9083 48.3598 45.7751 48.5422C45.6038 48.777 45.0535 49.137 45.0138 49.1497C44.8473 49.1988 44.8743 49.2813 43.9226 49.7841C43.6181 49.9458 43.1709 50.6453 42.8886 50.7896C42.7046 50.8832 42.6348 51.1306 42.4984 51.2273C42.4381 51.2702 42.4128 51.2924 42.3636 51.332C42.3144 51.3717 42.3208 51.3732 42.2811 51.4319C42.2415 51.4906 41.8561 51.7349 41.7895 51.7872C41.753 51.8157 41.7054 51.8427 41.6562 51.8617C41.4485 52.06 41.4881 52.1821 41.2883 52.3629C41.025 52.604 40.3827 53.4636 40.1924 53.6476C40.0369 53.7982 40.0338 53.8236 39.9814 53.9029C39.8894 54.0425 39.8958 54.0726 39.8133 54.163C39.4469 55.9949 39.1932 57.3255 38.8109 59.3033C38.5762 60.5181 38.0322 62.0724 37.7769 63.4507C37.7737 63.4665 37.7674 63.5157 37.761 63.5268C37.7547 63.5379 37.7309 63.5696 37.7229 63.5807C37.2662 64.1644 36.8126 64.7718 36.332 65.3237C35.9942 65.7139 35.6215 65.9565 35.2488 66.3213C35.0949 66.4704 34.9855 67.1904 35.1362 67.4521C35.1441 67.4664 35.2599 67.579 35.2742 67.5838C35.3614 67.6139 35.566 67.6948 35.6151 67.6916C35.8197 67.6805 35.9292 67.6488 36.11 67.6155C36.3511 67.2777 36.6159 66.8098 36.903 66.5354C37.2123 66.2388 37.5643 65.9169 37.7689 65.6282C37.9751 65.3396 38.0766 65.2397 38.2701 65.0113C38.462 64.7829 38.4715 64.7004 38.6048 64.3959C38.7047 64.1659 39.4358 63.6822 39.5976 63.3365C39.8545 62.7893 40.0528 62.664 40.2225 61.8599C40.3763 61.1303 40.3272 60.7069 40.6761 59.6268C41.0044 58.6133 41.0551 56.5309 41.0551 56.523C41.0631 55.906 40.7538 55.0433 40.8601 55.1162C41.052 55.2447 41.4405 54.78 41.6816 54.4993C41.9972 54.1313 41.9925 53.922 42.3858 53.5572C42.6174 53.3431 42.9044 52.9164 43.1376 52.7832C43.3089 52.6849 43.3961 52.6547 43.5579 52.5342C43.7196 52.4137 43.9242 52.244 44.0955 52.1187C44.0575 52.3296 44.0004 52.6214 43.9623 52.8165C43.9115 53.0766 43.8497 53.3145 43.7926 53.5429C43.7244 53.8125 43.6546 54.0853 43.6165 54.3296C43.5785 54.5738 43.5864 54.6959 43.5769 54.9322C43.5674 55.1701 43.5737 55.3208 43.5388 55.5999C43.4865 56.0234 43.4104 56.5531 43.3453 57.0147C43.3327 57.1019 43.5896 59.1399 43.7117 59.9757C43.8656 61.0288 44.0194 62.1755 44.2573 63.1477C44.4952 64.1199 44.7569 64.7179 45.1185 65.652C45.396 66.3721 46.1684 67.7757 46.5491 68.3022C46.963 68.8748 47.1819 69.0683 47.5039 69.3886C48.0716 69.9548 48.5015 70.2451 49.0819 70.6876C49.3658 70.9033 49.7068 71.0206 50.0082 71.1618C50.2286 71.2649 50.4284 71.3442 50.6124 71.4473C50.7234 71.5091 50.7472 71.5234 50.8424 71.5773C50.9106 71.5393 50.9439 71.5202 50.9978 71.4901C51.0518 71.5202 51.0835 71.5393 51.1533 71.5773C51.2484 71.5234 51.2722 71.5091 51.3832 71.4473C51.5672 71.3442 51.767 71.2649 51.9875 71.1618C52.2904 71.0206 52.6314 70.9033 52.9137 70.6876C53.4942 70.2451 53.924 69.9548 54.4918 69.3886C54.8122 69.0683 55.0326 68.8764 55.4466 68.3022C55.8272 67.7741 56.5996 66.3721 56.8772 65.652C57.2388 64.7163 57.5005 64.1199 57.7384 63.1477C57.9763 62.1755 58.1301 61.0304 58.2839 59.9757C58.4045 59.1494 58.6614 57.1035 58.6503 57.0147C58.5853 56.5531 58.5092 56.0234 58.4568 55.5999C58.4219 55.3192 58.4283 55.1685 58.4188 54.9322C58.4092 54.6943 58.4172 54.5738 58.3791 54.3296C58.341 54.0853 58.2697 53.8141 58.2031 53.5429C58.146 53.3161 58.0841 53.0782 58.0334 52.8165C57.9953 52.6214 57.9398 52.3296 57.9001 52.1187C58.0714 52.244 58.2776 52.4121 58.4378 52.5342C58.5996 52.6547 58.6868 52.6849 58.8581 52.7832C59.0912 52.9164 59.3783 53.3431 59.6098 53.5572C60.0032 53.922 59.9984 54.1313 60.314 54.4993C60.5551 54.78 60.9437 55.2463 61.1356 55.1162C61.2418 55.0448 60.9326 55.9076 60.9405 56.523C60.9405 56.5309 60.9913 58.6149 61.3196 59.6268C61.6701 60.7069 61.6209 61.1319 61.7732 61.8599C61.9429 62.664 62.1411 62.7893 62.398 63.3365C62.5598 63.6822 63.291 64.1659 63.3909 64.3959C63.5241 64.702 63.532 64.7829 63.7255 65.0113C63.919 65.2397 64.0205 65.3396 64.2267 65.6282C64.4329 65.9169 64.7834 66.2404 65.0927 66.5354C65.3797 66.8098 65.6446 67.2777 65.8857 67.6155C66.0665 67.6504 66.1759 67.6821 66.3805 67.6916C66.4297 67.6948 66.6343 67.6139 66.7215 67.5838C66.7358 67.579 66.8516 67.4648 66.8595 67.4521C67.0086 67.1904 66.8991 66.472 66.7469 66.3213C66.3742 65.9565 66.0015 65.7139 65.6636 65.3237C65.1831 64.7718 64.7295 64.1628 64.2727 63.5807C64.2648 63.5696 64.2394 63.5379 64.2346 63.5268C64.2283 63.5157 64.222 63.4649 64.2188 63.4507C63.9634 62.0724 63.4194 60.5181 63.1847 59.3033C62.8025 57.3255 62.5487 55.9949 62.1824 54.163C62.0999 54.0726 62.1078 54.0425 62.0142 53.9029C61.9619 53.822 61.9587 53.7982 61.8033 53.6476C61.613 53.4636 60.9706 52.604 60.7074 52.3629C60.5091 52.1821 60.5472 52.06 60.3394 51.8617C60.2918 51.8427 60.2427 51.8157 60.2062 51.7872C60.138 51.7333 59.7542 51.4906 59.7145 51.4319C59.6749 51.3732 59.6812 51.3717 59.632 51.332C59.5829 51.2924 59.5591 51.2702 59.4972 51.2273C59.3608 51.1306 59.2911 50.8832 59.1071 50.7896C58.8248 50.6453 58.3775 49.9458 58.073 49.7841C57.1214 49.2813 57.1484 49.1988 56.9818 49.1497C56.9406 49.137 56.3918 48.777 56.2206 48.5422C56.0873 48.3598 55.9842 48.1172 56.6853 48.2219C57.0929 48.2837 57.602 48.1426 57.8224 48.2568C58.0429 48.3709 58.2443 48.3789 58.3966 48.4518C58.4679 48.4201 59.5004 49.1782 59.5892 49.1655C60.2807 49.8697 60.2538 49.8681 60.8533 50.6151C61.4512 51.3621 62.8263 52.0013 63.3005 52.5596C63.7747 53.1178 64.076 53.259 64.379 53.5524C64.6819 53.8458 64.5154 53.5873 64.7358 53.7887C64.8579 53.7697 65.0308 53.8204 65.1498 53.8157C65.3924 53.9346 65.0895 53.8426 65.4733 54.0171C65.8571 54.1916 66.9895 55.021 67.4241 55.1828C67.8603 55.3446 67.9411 55.2494 68.3059 55.3573C68.3678 55.316 68.4566 55.3018 68.5295 55.2716C68.8975 55.3795 69.267 55.4873 69.635 55.5952C69.8475 55.757 70.041 55.9124 70.2599 56.0757C70.3661 56.155 70.428 56.2359 70.5549 56.2185C70.5961 56.1661 70.991 55.5444 71.0259 55.4905C71.0624 55.4366 71.1861 55.2764 71.2432 55.2336C71.1052 55.0401 71.3114 55.094 71.0164 54.9671C70.5422 54.7641 71.0117 55.0226 70.1584 54.6468C69.3051 54.2709 66.5534 53.4017 65.4178 52.9148C65.0911 52.5199 65.4511 52.1932 65.1038 51.7047C64.7564 51.2178 63.0626 50.3106 62.6978 49.6826C62.7834 49.4732 61.9619 48.9118 62.0745 48.7278C63.3798 49.1465 66.4281 49.9205 67.7556 50.271C68.3947 50.2297 69.1814 50.3566 69.7873 50.401C70.9974 50.4914 71.8744 50.3487 72.9783 49.9268C73.7269 49.497 74.1979 49.6715 75.2463 48.6596C75.4128 48.428 75.5238 48.2393 75.4112 47.9158C75.2986 47.5922 75.0084 47.413 74.9973 47.1989C74.9862 46.9848 75.1464 46.9309 75.2447 46.915C77.3287 46.5994 79.2113 45.7651 80.8084 44.4091C80.8782 44.3488 80.929 44.268 80.9813 44.2109C80.9829 44.2109 81.6934 43.2386 81.8932 42.4409C82.193 41.2482 81.8948 40.3822 80.5784 39.5702ZM36.6302 39.9604L39.5342 40.2712C40.9172 40.4679 42.2589 41.0071 44.0004 41.3814C43.9686 41.5083 43.9274 41.6352 43.902 41.7605C42.0829 41.9635 40.6206 42.3727 38.738 42.2046C37.4835 41.6368 34.4621 39.5036 34.4621 39.5036L36.6302 39.9604ZM34.018 42.5757C34.5113 42.5614 35.4613 42.4869 35.8483 42.4567C36.2369 42.4266 36.3304 42.4282 36.5366 42.406C36.7428 42.3838 36.6349 42.3679 36.7824 42.3521C37.4391 42.5614 37.9545 42.904 38.6666 43.0642C39.3787 43.2228 39.9307 43.0562 40.7046 43.1895C39.8974 43.3544 39.2534 43.5543 38.2717 43.7271C37.29 43.9 36.294 44.214 35.1346 44.3266C34.911 44.1585 34.5604 43.8207 34.5604 43.8207C34.5604 43.8207 34.0799 42.7359 34.018 42.5757ZM34.2496 44.5487C33.0585 44.6882 30.9285 45.007 29.7961 45.0292C29.7564 45.0292 29.5677 45.0292 29.5154 45.0276C28.586 45.0039 27.6819 44.7089 27.6819 44.7089C27.6819 44.7089 28.7906 42.9801 29.1347 42.5154C29.4789 42.0507 29.7533 41.9413 29.7533 41.9413L30.2957 41.9778L31.9023 42.3267L32.7714 42.49C32.7698 42.49 33.7865 43.8619 34.2496 44.5487ZM41.1471 44.038L36.627 46.2267L33.9974 46.9055L35.8673 45.1117C37.78 44.7993 40.0639 44.2886 41.1471 44.038ZM28.5082 39.575C29.674 39.5988 31.9039 39.3751 33.2536 39.3847C33.9657 39.9382 34.93 41.2625 35.7452 41.7573C34.5541 41.7129 35.6405 41.8366 33.8055 41.6986C32.2703 41.5829 25.2363 39.9762 25.2363 39.9762C25.2363 39.9762 27.36 39.5512 28.5082 39.575ZM21.33 43.54C21.3125 43.5067 21.2729 43.3909 21.2221 43.226C20.8272 41.9746 21.5869 40.655 22.8906 40.3315C23.4156 40.2014 23.847 40.0936 23.9453 40.0682C24.4623 40.2792 27.7232 41.3973 28.854 41.6701C28.2006 42.6217 27.4424 43.5431 26.7256 44.4678C26.0008 44.1807 24.5765 43.5717 24.5765 43.5717C24.5765 43.5717 21.3569 43.5194 21.33 43.54ZM22.7717 44.2981C23.5948 44.3584 24.088 44.2743 24.9128 44.3314C25.7978 44.712 27.0142 45.2227 27.9135 45.5701C28.4971 45.5859 29.6629 45.6161 29.6629 45.6161L27.7549 46.4471C27.7549 46.4471 24.0896 45.2735 22.7717 44.2981ZM28.4369 48.3059C27.7771 47.8587 28.3417 47.6414 28.743 47.3178C29.3488 46.8278 30.4638 46.1712 30.8904 46.0015C31.6406 45.7033 33.6326 45.4099 34.3685 45.3131C34.6382 45.2862 34.93 45.2513 35.2361 45.21L33.0125 47.2718L30.1418 48.75C29.6613 48.8245 28.6684 48.4645 28.4369 48.3059ZM35.2726 49.1592C33.6897 49.4225 32.2766 49.2432 31.1727 48.9482L33.2647 47.5462L36.3653 46.8278L35.3614 49.1402C35.3312 49.1481 35.3011 49.1544 35.2726 49.1592ZM44.1225 45.8762C43.1043 46.0538 42.7934 46.1553 42.7934 46.1553C42.7934 46.1553 41.68 46.5391 40.5032 47.2861C39.0933 48.1822 37.2091 48.9657 35.9879 48.9895L37.2297 46.5581L42.1749 43.7065L42.8949 43.5067C42.8949 43.5067 43.32 43.3893 43.902 43.2529C43.902 43.2545 43.902 43.2561 43.902 43.2561L44.1241 43.67C44.1653 43.8334 44.159 45.0165 44.8933 45.892C44.8933 45.8936 44.5253 45.8064 44.1225 45.8762ZM47.6942 50.6691C47.8702 50.5818 47.9289 50.4978 48.0796 50.4058C48.2302 50.3138 48.373 50.2757 48.5855 50.2313C49.3531 50.0711 50.1509 50.0854 50.9582 50.0838C50.9725 50.0838 50.9867 50.0838 51.001 50.0838C51.0153 50.0838 51.0295 50.0838 51.0438 50.0838C51.8511 50.0854 52.6489 50.0696 53.4165 50.2313C53.629 50.2757 53.7702 50.3138 53.9224 50.4058C54.0731 50.4978 54.1318 50.5818 54.3078 50.6691C54.6123 50.8213 54.9216 51.0275 55.2039 51.2035C54.8867 51.1401 54.6234 51.1385 54.3126 51.1702C53.9446 51.2083 53.7289 51.3098 53.3753 51.2892C53.2325 51.2813 53.1485 51.2083 53.0121 51.1956C52.974 51.1924 52.9153 51.1909 52.8915 51.1861C52.8344 51.1734 52.7393 51.2305 52.7282 51.2305C52.2873 51.2337 51.7385 51.1639 51.3547 51.1829C51.1453 51.194 51.1945 51.1845 51.0391 51.1702C51.0264 51.1718 51.0137 51.1734 51.0026 51.1734C50.9915 51.1718 50.9804 51.1718 50.9661 51.1702C50.8107 51.1845 50.8598 51.194 50.6505 51.1829C50.2667 51.1639 49.7179 51.2337 49.277 51.2305C49.2643 51.2305 49.1707 51.175 49.1136 51.1861C49.0899 51.1909 49.0312 51.1924 48.9931 51.1956C48.8583 51.2083 48.7727 51.2813 48.6299 51.2892C48.2762 51.3098 48.059 51.2067 47.6926 51.1702C47.3817 51.1385 47.1185 51.1401 46.8013 51.2035C47.0804 51.0291 47.3897 50.8229 47.6942 50.6691ZM53.6385 68.2293C53.6021 68.2911 53.4799 68.3784 53.3943 68.3244C53.3673 68.307 53.0692 68.3704 53.0644 68.3784C53.0438 68.4117 53.0152 68.4434 52.9851 68.4608C52.8471 68.5417 52.7377 68.5798 52.5838 68.5845C52.5616 68.5845 52.5315 68.575 52.5061 68.5623C52.457 68.5401 52.411 68.5338 52.3554 68.5417C52.2999 68.5496 52.246 68.5274 52.2 68.4878C52.1953 68.483 52.016 68.4323 51.9494 68.491C51.8828 68.5512 51.8463 68.6052 51.7702 68.6337C51.721 68.7019 51.6703 68.7431 51.5989 68.6924C51.5054 68.6892 51.4134 68.6638 51.3182 68.667C51.2912 68.6686 51.2754 68.7019 51.2452 68.7209C51.2151 68.7384 51.1786 68.7479 51.139 68.7479C51.0993 68.7479 51.0438 68.7384 51.0153 68.7209C51.0121 68.7194 51.0073 68.7194 51.001 68.7194C50.9947 68.7194 50.9899 68.7194 50.9867 68.7209C50.9566 68.7384 50.9027 68.7479 50.863 68.7479C50.8234 68.7479 50.7869 68.7384 50.7568 68.7209C50.7266 68.7035 50.7108 68.6686 50.6838 68.667C50.5902 68.6638 50.4966 68.6892 50.4031 68.6924C50.3317 68.7431 50.2825 68.7019 50.2318 68.6337C50.1541 68.6052 50.1192 68.5512 50.0526 68.491C49.986 68.4307 49.8067 68.483 49.802 68.4878C49.7544 68.5274 49.7021 68.5496 49.6465 68.5417C49.591 68.5338 49.545 68.5401 49.4959 68.5623C49.4705 68.5734 49.4404 68.5845 49.4182 68.5845C49.2643 68.5798 49.1549 68.5417 49.0169 68.4608C48.9884 68.4434 48.9582 68.4133 48.9376 68.3784C48.9328 68.3688 48.6331 68.307 48.6077 68.3244C48.5221 68.3799 48.3984 68.2927 48.3635 68.2293C48.2667 68.0627 48.005 67.5568 48.0954 67.4109C48.1858 67.2666 48.4396 67.4315 48.5379 67.376C48.7187 67.2713 48.8631 67.3681 49.0328 67.3554C49.0819 67.3522 49.1073 67.4347 49.1454 67.4442C49.2374 67.4648 49.4626 67.5679 49.5165 67.6028C49.7179 67.736 50.0859 67.5219 50.1525 67.4965C50.4126 67.395 50.4618 67.5061 50.6315 67.5378C50.6997 67.5505 50.7139 67.5124 50.7393 67.5092C50.8091 67.5013 50.8202 67.5124 50.8757 67.5124C50.928 67.5124 50.9407 67.5013 51.0042 67.5076C51.066 67.5013 51.0787 67.5124 51.1326 67.5124C51.1881 67.5124 51.1992 67.5013 51.269 67.5092C51.2944 67.5124 51.3087 67.5505 51.3769 67.5378C51.5466 67.5061 51.5942 67.3966 51.8559 67.4965C51.9225 67.5219 52.2904 67.736 52.4918 67.6028C52.5458 67.5679 52.771 67.4648 52.863 67.4442C52.9026 67.4347 52.9264 67.3522 52.9756 67.3554C53.1453 67.3681 53.2896 67.2729 53.4704 67.376C53.5687 67.4331 53.8225 67.2666 53.9129 67.4109C53.997 67.5552 53.7353 68.0612 53.6385 68.2293ZM55.5909 64.8685C55.4212 64.9225 55.3149 64.9098 55.1754 64.9367C54.9502 64.9811 54.8867 65.0097 54.6996 65.0858C54.4204 65.2 54.1207 65.1334 53.8288 65.1144C53.7099 65.1064 53.5957 65.1191 53.4879 65.1128C53.38 65.1064 53.3118 65.0303 53.2103 65.0351C53.0184 65.0446 52.8725 65.1826 52.7028 65.227C52.5331 65.2698 52.4459 65.2032 52.273 65.2175C52.1001 65.2317 52.0446 65.2857 51.867 65.3332C51.2326 65.5014 51.0406 65.4427 51.001 65.4411C50.9613 65.4427 50.7694 65.5029 50.135 65.3332C49.9574 65.2857 49.9019 65.2317 49.729 65.2175C49.5561 65.2032 49.4689 65.2714 49.2992 65.227C49.1295 65.1842 48.9836 65.0446 48.7917 65.0351C48.6886 65.0303 48.622 65.1064 48.5141 65.1128C48.4063 65.1191 48.2921 65.108 48.1731 65.1144C47.8813 65.1334 47.5816 65.2 47.3024 65.0858C47.1153 65.0097 47.0518 64.9811 46.8266 64.9367C46.6855 64.9098 46.5808 64.9225 46.4111 64.8685C46.0907 64.7654 45.8972 63.6552 45.7941 63.4602C45.9036 63.4364 46.3461 63.5077 46.5078 63.4713C46.7108 63.4253 46.9583 63.6505 47.1676 63.6711C47.2834 63.6822 47.3199 63.6267 47.4452 63.6568C47.5689 63.6886 47.672 63.7076 47.8242 63.7282C47.9781 63.7488 48.17 63.779 48.3222 63.7504C48.4761 63.7234 48.7584 63.6949 48.8742 63.7012C49.028 63.7092 49.0994 63.725 49.1723 63.7536C49.2897 63.7996 49.4182 63.8075 49.5403 63.7758C49.545 63.7742 49.5482 63.7742 49.5498 63.7726C49.618 63.7821 49.7179 63.8265 49.7766 63.8345C49.9812 63.8598 50.0875 63.8662 50.3079 63.9138C50.3555 63.9249 50.6029 63.982 50.6917 63.9899C50.7377 63.9947 50.8345 63.9804 50.844 63.9804C50.8535 63.9804 50.9502 63.9947 50.9978 63.9899H50.9994H51.001C51.047 63.9947 51.1437 63.9804 51.1548 63.9804C51.1644 63.9804 51.2595 63.9947 51.3071 63.9899C51.3959 63.982 51.6417 63.9249 51.6909 63.9138C51.913 63.8646 52.0176 63.8598 52.2222 63.8345C52.2809 63.8265 52.3808 63.7837 52.449 63.7726C52.4522 63.7742 52.4554 63.7742 52.4585 63.7758C52.5807 63.8075 52.7091 63.7996 52.8265 63.7536C52.8979 63.725 52.9708 63.7092 53.1247 63.7012C53.2404 63.6949 53.5243 63.7234 53.6766 63.7504C53.8304 63.7774 54.0223 63.7472 54.1746 63.7282C54.3284 63.7076 54.4299 63.6886 54.5537 63.6568C54.6774 63.6251 54.7154 63.6822 54.8312 63.6711C55.0406 63.6505 55.2896 63.4253 55.491 63.4713C55.6512 63.5077 56.0953 63.4364 56.2047 63.4602C56.1032 63.6552 55.9113 64.767 55.5909 64.8685ZM57.0691 58.9226C57.0151 59.3588 57.0722 59.6696 57.0025 60.1375C56.9295 60.6371 56.7582 60.4785 56.3522 60.5594C56.0524 60.6196 55.7114 60.8084 55.3958 60.8908C55.2388 60.9416 55.1262 60.9908 54.9993 60.9035C54.9137 60.8686 54.8455 60.9559 54.7487 60.9257C54.5743 60.9337 54.0652 60.9368 53.9573 60.9971C53.4688 61.2699 53.3261 61.2191 52.8487 61.2065C52.6441 61.2017 52.514 61.308 52.3332 61.3175C52.1175 61.3302 52.1096 61.4158 51.9114 61.392C51.5545 61.3492 51.9447 61.3841 51.3404 61.4206C51.2785 61.4237 51.2373 61.3841 51.1802 61.3809C51.1707 61.3809 51.1374 61.3809 51.1279 61.3809C51.0803 61.3841 51.0438 61.4126 50.9962 61.419C50.9502 61.4111 50.9122 61.3825 50.8646 61.3809C50.8551 61.3809 50.8218 61.3809 50.8123 61.3809C50.7552 61.3841 50.7139 61.4237 50.6521 61.4206C50.0478 61.3841 50.438 61.3508 50.0811 61.392C49.8829 61.4158 49.8733 61.3286 49.6592 61.3175C49.4784 61.308 49.3484 61.2001 49.1438 61.2065C48.6664 61.2191 48.5237 61.2699 48.0352 60.9971C47.9257 60.9368 47.4182 60.9337 47.2437 60.9257C47.147 60.9575 47.0788 60.8702 46.9932 60.9035C46.8663 60.9892 46.7537 60.9416 46.5967 60.8908C46.2826 60.8068 45.9416 60.6196 45.6403 60.5594C45.2359 60.4785 45.0646 60.6371 44.99 60.1375C44.9218 59.6696 44.9773 59.3588 44.9234 58.9226C45.2993 59.0923 45.4087 59.2747 45.8021 59.3556C46.0194 59.4 46.2081 59.2668 46.427 59.3683C46.5427 59.4222 46.6189 59.4365 46.741 59.4967C46.8631 59.557 47.0455 59.3128 47.1565 59.3508C47.5276 59.4793 48.059 59.4793 48.3904 59.4777C48.9186 59.4745 49.2041 59.6649 49.7068 59.722C49.9479 59.7489 50.2794 59.7997 50.5442 59.8266C50.641 59.8362 50.8947 59.7933 50.9931 59.8092C51.0898 59.7933 51.3452 59.8362 51.4419 59.8266C51.7068 59.8013 52.0382 59.7505 52.2793 59.722C52.7821 59.6649 53.0676 59.4745 53.5957 59.4777C53.9288 59.4793 54.4585 59.4793 54.8296 59.3508C54.9406 59.3128 55.123 59.557 55.2452 59.4967C55.3673 59.4365 55.4434 59.4222 55.5592 59.3683C55.7781 59.2668 55.9668 59.4 56.1841 59.3556C56.5853 59.2747 56.6948 59.0939 57.0691 58.9226ZM56.1809 54.4548C56.4569 54.4723 56.5853 54.3438 56.7534 54.6769C56.801 54.7705 57.0294 55.3462 56.801 55.5159C56.7075 55.5857 56.1904 55.5333 56.0334 55.5746C55.7336 55.6539 55.4942 55.8489 55.1992 55.8838C54.9993 55.9076 54.836 55.7554 54.6409 55.7823C54.487 55.8029 54.3554 55.9489 54.2254 56.0028C53.9018 56.136 53.8859 56.09 53.545 56.0504C53.4831 56.0424 53.1913 55.9822 53.1358 55.9711C53.0787 55.96 53.0565 56.0345 53.0057 56.0266C52.6949 55.9774 52.4094 56.0631 52.1001 56.0313C51.97 56.0186 51.9336 55.9029 51.7845 55.8823C51.6338 55.8616 51.3864 55.8886 51.2199 55.9013C51.1929 55.9029 51.1818 55.9076 51.1596 55.9076C51.1374 55.9076 51.1247 55.9029 51.0993 55.9013C51.0692 55.8997 51.0359 55.8965 51.0026 55.8934C50.9677 55.8965 50.936 55.8997 50.9058 55.9013C50.8789 55.9029 50.8678 55.9076 50.8456 55.9076C50.8234 55.9076 50.8107 55.9029 50.7853 55.9013C50.6188 55.8886 50.3714 55.8616 50.2207 55.8823C50.07 55.9029 50.0335 56.0171 49.9051 56.0313C49.5958 56.0631 49.3103 55.9774 48.9995 56.0266C48.9487 56.0345 48.9249 55.96 48.8694 55.9711C48.8123 55.9822 48.5221 56.0424 48.4602 56.0504C48.1208 56.09 48.1034 56.136 47.7798 56.0028C47.6498 55.9489 47.5165 55.8029 47.3643 55.7823C47.1692 55.7554 47.0058 55.9076 46.806 55.8838C46.511 55.8489 46.2715 55.6523 45.9718 55.5746C45.8148 55.5333 45.2977 55.5857 45.2041 55.5159C44.9758 55.3462 45.2041 54.7689 45.2517 54.6769C45.4198 54.3438 45.5499 54.4723 45.8243 54.4548C45.9797 54.4453 46.132 54.4675 46.2842 54.4929C46.4365 54.5183 46.5126 54.569 46.6871 54.5611C46.8314 54.5548 47.0281 54.439 47.1898 54.4342C47.3516 54.4295 47.6815 54.5135 47.8068 54.4771C48.051 54.4057 48.3032 54.4469 48.4935 54.4295C48.7663 54.4041 48.7616 54.6357 49.0074 54.6293C49.2516 54.623 49.4261 54.5072 49.6894 54.4739C49.8289 54.4548 50.0621 54.4295 50.2286 54.4771C50.4126 54.5294 50.9693 54.4168 51.0073 54.4184C51.0454 54.4168 51.6021 54.5294 51.7861 54.4771C51.951 54.4295 52.1842 54.4548 52.3253 54.4739C52.587 54.5088 52.7615 54.6245 53.0073 54.6293C53.2515 54.6357 53.2484 54.4041 53.5212 54.4295C53.7131 54.4469 53.9652 54.4057 54.2079 54.4771C54.3332 54.5135 54.6631 54.4295 54.8249 54.4342C54.9866 54.439 55.1833 54.5564 55.3276 54.5611C55.5005 54.569 55.5766 54.5167 55.7305 54.4929C55.8732 54.4675 56.0255 54.4453 56.1809 54.4548ZM68.7452 39.3862C70.0949 39.3767 72.3249 39.6003 73.4906 39.5766C74.6389 39.5528 76.7625 39.9778 76.7625 39.9778C76.7625 39.9778 69.7286 41.5844 68.1933 41.7002C66.3599 41.8398 67.4447 41.7161 66.2536 41.7589C67.0704 41.2625 68.0331 39.9382 68.7452 39.3862ZM63.7271 43.7255C62.7454 43.5527 62.0999 43.3528 61.2942 43.1879C62.0697 43.0547 62.6201 43.2212 63.3322 43.0626C64.0443 42.904 64.5582 42.5614 65.2164 42.3505C65.3639 42.3663 65.256 42.3822 65.4622 42.4044C65.6684 42.4266 65.7636 42.425 66.1505 42.4552C66.5391 42.4853 67.4875 42.5598 67.9808 42.5741C67.9189 42.7343 67.4384 43.8175 67.4384 43.8175C67.4384 43.8175 67.0863 44.1553 66.8642 44.3235C65.7049 44.2124 64.7089 43.8984 63.7271 43.7255ZM66.1315 45.1117L68.0014 46.9055L65.3718 46.2267L60.8517 44.038C61.9365 44.2886 64.2188 44.7993 66.1315 45.1117ZM69.229 42.49L70.0981 42.3267L71.7047 41.9778L72.2472 41.9413C72.2472 41.9413 72.5231 42.0507 72.8657 42.5154C73.2099 42.9801 74.3185 44.7089 74.3185 44.7089C74.3185 44.7089 73.4145 45.0039 72.4851 45.0276C72.4327 45.0292 72.2424 45.0292 72.2043 45.0292C71.0719 45.007 68.9419 44.6898 67.7508 44.5487C68.2139 43.8619 69.229 42.49 69.229 42.49ZM62.4647 40.2712L65.3686 39.9604L67.5367 39.5036C67.5367 39.5036 64.5154 41.6368 63.2608 42.2046C61.3782 42.3727 59.9159 41.9635 58.0968 41.7605C58.0714 41.6336 58.0302 41.5083 57.9985 41.3814C59.7399 41.0071 61.0817 40.4663 62.4647 40.2712ZM61.4956 47.2877C60.3204 46.5407 59.2054 46.1569 59.2054 46.1569C59.2054 46.1569 58.893 46.0538 57.8763 45.8777C57.4735 45.808 57.1071 45.8952 57.1071 45.8952C57.8414 45.0197 57.8351 43.8366 57.8763 43.6732L58.0984 43.2593C58.0984 43.2577 58.0984 43.2561 58.0984 43.2561C58.6804 43.3925 59.1055 43.5098 59.1055 43.5098L59.8255 43.7097L64.7707 46.5613L66.0126 48.9927C64.7897 48.9673 62.904 48.1838 61.4956 47.2877ZM66.7263 49.1592C66.6977 49.1544 66.6676 49.1465 66.6374 49.1402L65.6335 46.8278L68.7341 47.5462L70.8261 48.9482C69.7222 49.2432 68.3091 49.424 66.7263 49.1592ZM73.562 48.3059C73.3304 48.4629 72.3376 48.8245 71.857 48.7484L68.9863 47.2703L66.7627 45.2085C67.0688 45.2497 67.3607 45.2846 67.6303 45.3115C68.3662 45.4083 70.3582 45.7017 71.1084 45.9999C71.5335 46.1696 72.65 46.8262 73.2559 47.3162C73.6571 47.6414 74.2217 47.8587 73.562 48.3059ZM74.2439 46.4471L72.336 45.6145C72.336 45.6145 73.5033 45.5843 74.0853 45.5685C74.983 45.2211 76.2011 44.712 77.0861 44.3298C77.9092 44.2727 78.4024 44.3568 79.2272 44.2965C77.9092 45.2735 74.2439 46.4471 74.2439 46.4471ZM80.7783 43.226C80.7259 43.3909 80.6879 43.5051 80.6704 43.54C80.6419 43.5194 77.4239 43.5717 77.4239 43.5717C77.4239 43.5717 75.9996 44.1807 75.2748 44.4678C74.5596 43.5431 73.7999 42.6217 73.1464 41.6701C74.2772 41.3973 77.5381 40.2792 78.0551 40.0682C78.1534 40.0936 78.5848 40.2014 79.1098 40.3315C80.4135 40.655 81.1732 41.9746 80.7783 43.226Z" fill="url(#paint0_linear_1_12672)"/>
</g>
</g>
<defs>
<filter id="filter0_dii_1_12672" x="0.801727" y="0" width="104.397" height="96" filterUnits="userSpaceOnUse" color-interpolation-filters="sRGB">
<feFlood flood-opacity="0" result="BackgroundImageFix"/>
<feColorMatrix in="SourceAlpha" type="matrix" values="0 0 0 0 0 0 0 0 0 0 0 0 0 0 0 0 0 0 127 0" result="hardAlpha"/>
<feOffset dx="2" dy="2"/>
<feGaussianBlur stdDeviation="2"/>
<feColorMatrix type="matrix" values="0 0 0 0 0 0 0 0 0 0 0 0 0 0 0 0 0 0 0.25 0"/>
<feBlend mode="normal" in2="BackgroundImageFix" result="effect1_dropShadow_1_12672"/>
<feBlend mode="normal" in="SourceGraphic" in2="effect1_dropShadow_1_12672" result="shape"/>
<feColorMatrix in="SourceAlpha" type="matrix" values="0 0 0 0 0 0 0 0 0 0 0 0 0 0 0 0 0 0 127 0" result="hardAlpha"/>
<feOffset dx="5" dy="5"/>
<feGaussianBlur stdDeviation="1"/>
<feComposite in2="hardAlpha" operator="arithmetic" k2="-1" k3="1"/>
<feColorMatrix type="matrix" values="0 0 0 0 1 0 0 0 0 1 0 0 0 0 1 0 0 0 0.25 0"/>
<feBlend mode="normal" in2="shape" result="effect2_innerShadow_1_12672"/>
<feColorMatrix in="SourceAlpha" type="matrix" values="0 0 0 0 0 0 0 0 0 0 0 0 0 0 0 0 0 0 127 0" result="hardAlpha"/>
<feOffset dx="-5" dy="-5"/>
<feGaussianBlur stdDeviation="1"/>
<feComposite in2="hardAlpha" operator="arithmetic" k2="-1" k3="1"/>
<feColorMatrix type="matrix" values="0 0 0 0 0 0 0 0 0 0 0 0 0 0 0 0 0 0 1 0"/>
<feBlend mode="normal" in2="effect2_innerShadow_1_12672" result="effect3_innerShadow_1_12672"/>
</filter>
<filter id="filter1_ii_1_12672" x="18.9956" y="20.0062" width="64.0045" height="52.5711" filterUnits="userSpaceOnUse" color-interpolation-filters="sRGB">
<feFlood flood-opacity="0" result="BackgroundImageFix"/>
<feBlend mode="normal" in="SourceGraphic" in2="BackgroundImageFix" result="shape"/>
<feColorMatrix in="SourceAlpha" type="matrix" values="0 0 0 0 0 0 0 0 0 0 0 0 0 0 0 0 0 0 127 0" result="hardAlpha"/>
<feOffset dx="-1" dy="-1"/>
<feGaussianBlur stdDeviation="1"/>
<feComposite in2="hardAlpha" operator="arithmetic" k2="-1" k3="1"/>
<feColorMatrix type="matrix" values="0 0 0 0 1 0 0 0 0 0.888214 0 0 0 0 0.691667 0 0 0 1 0"/>
<feBlend mode="normal" in2="shape" result="effect1_innerShadow_1_12672"/>
<feColorMatrix in="SourceAlpha" type="matrix" values="0 0 0 0 0 0 0 0 0 0 0 0 0 0 0 0 0 0 127 0" result="hardAlpha"/>
<feOffset dx="1" dy="1"/>
<feGaussianBlur stdDeviation="1"/>
<feComposite in2="hardAlpha" operator="arithmetic" k2="-1" k3="1"/>
<feColorMatrix type="matrix" values="0 0 0 0 0.641667 0 0 0 0 0.441987 0 0 0 0 0.0909027 0 0 0 1 0"/>
<feBlend mode="normal" in2="effect1_innerShadow_1_12672" result="effect2_innerShadow_1_12672"/>
</filter>
<linearGradient id="paint0_linear_1_12672" x1="51" y1="72" x2="51" y2="21" gradientUnits="userSpaceOnUse">
<stop stop-color="#FEA303"/>
<stop offset="1" stop-color="#FFD387"/>
</linearGradient>
<clipPath id="clip0_1_12672">
<rect width="62" height="50.5729" fill="white" transform="translate(20 21)"/>
</clipPath>
</defs>
</svg>
