<svg width="106" height="96" viewBox="0 0 106 96" fill="none" xmlns="http://www.w3.org/2000/svg">
<g filter="url(#filter0_dii_4_873)">
<path d="M4.36824 51.9281C2.27955 48.252 2.27955 43.748 4.36824 40.0719L22.5501 8.07188C24.6826 4.31862 28.6667 2 32.9835 2L69.0165 2C73.3332 2 77.3174 4.31862 79.4499 8.07188L97.6317 40.0719C99.7204 43.748 99.7204 48.252 97.6318 51.9281L79.4499 83.9281C77.3174 87.6814 73.3333 90 69.0165 90L32.9835 90C28.6667 90 24.6826 87.6814 22.5501 83.9281L4.36824 51.9281Z" fill="url(#paint0_linear_4_873)"/>
<path d="M4.47693 51.8664C2.40999 48.2286 2.40999 43.7714 4.47693 40.1336L22.6587 8.13364C24.7691 4.41946 28.7117 2.125 32.9835 2.125L69.0165 2.125C73.2883 2.125 77.2309 4.41946 79.3413 8.13363L97.5231 40.1336C99.59 43.7714 99.59 48.2285 97.5231 51.8664L79.3413 83.8664C77.2309 87.5805 73.2883 89.875 69.0165 89.875L32.9835 89.875C28.7117 89.875 24.7691 87.5805 22.6587 83.8664L4.47693 51.8664Z" stroke="#DCD7BF" stroke-width="0.25"/>
</g>
<g clip-path="url(#clip0_4_873)" filter="url(#filter1_ii_4_873)">
<path d="M39.8948 35.0921C39.9519 34.8186 39.9606 34.5303 40.0665 34.2875C40.7514 32.8937 41.4035 31.4688 42.1861 30.1365C42.5853 29.4702 42.1437 29.0973 42.0192 28.6042C41.9487 28.35 41.9738 28.0772 41.9514 27.8217C42.1945 27.9436 42.516 27.9995 42.6489 28.1882C43.1297 28.8482 43.4932 28.6629 43.9613 28.1869C44.4449 27.6945 45.0266 27.2797 45.5755 26.8336C45.6919 27.0067 45.7411 27.0535 45.7579 27.0851C45.894 28.6661 45.8952 28.7141 47.5271 28.6888C48.3748 28.6673 49.2677 28.5327 50.077 28.2561C52.0449 27.598 53.9955 27.5166 55.8908 28.4129C57.041 28.96 58.2218 28.818 59.4071 28.852C59.9357 28.8706 60.1335 28.4655 60.1697 28.0004C60.1948 27.7277 60.1875 27.4398 60.2058 26.8951C60.9421 27.5327 61.5457 27.9816 62.0553 28.5128C62.4997 28.9977 62.8536 29.0688 63.2557 28.5144C63.3641 28.3676 63.5044 28.22 63.6623 28.136C63.7726 28.0692 63.9962 28.0475 64.0782 28.1255C64.1602 28.2034 64.133 28.3962 64.1531 28.5557C64.1535 28.5717 64.1383 28.6041 64.1227 28.6205C63.1266 29.7341 63.8371 30.6124 64.4536 31.5731C65.1869 32.7229 65.6516 34.0075 65.9165 35.6173C65.3281 35.1361 64.9201 34.8263 64.5433 34.4837C63.8557 33.877 63.0708 33.8488 62.2271 34.0302C56.8468 35.1909 51.4597 35.4554 46.0358 34.2643C45.1508 34.0787 44.2515 33.9574 43.3973 33.723C42.2207 33.4007 41.3864 33.95 40.6205 34.6736C40.4486 34.838 40.4251 35.1747 40.3192 35.4175C40.1724 35.3092 40.0256 35.2008 39.8948 35.0921Z" fill="#03B3AE"/>
<path d="M39.4072 57.5437C39.3817 56.536 39.359 55.6403 39.3351 54.6966C38.4021 54.5122 37.4856 54.3433 36.5998 54.1257C36.3742 54.0674 36.1934 53.8799 35.9822 53.7572C36.1877 53.656 36.3912 53.4748 36.6143 53.4371C39.6264 52.9287 42.4893 53.4803 45.348 54.4963C50.2254 56.2293 55.2043 56.2792 60.1254 54.6821C63.0146 53.7446 65.8819 53.2079 68.8912 53.8519C69.1163 53.8942 69.3287 54.0648 69.5395 54.1715C69.3348 54.3048 69.1477 54.5016 68.9406 54.5388C68.0329 54.7219 67.1241 54.8569 66.168 55.0252C66.1227 55.7626 66.1097 56.5151 66.0168 57.2697C65.9901 57.4785 65.7107 57.8217 65.5663 57.8093C63.3686 57.6089 61.2858 58.1578 59.2378 58.8179C56.5234 59.7029 53.753 59.6451 50.9655 59.5396C49.1552 59.4734 47.4008 59.0858 45.6732 58.4893C43.6884 57.8514 41.6724 57.2462 39.4072 57.5437Z" fill="#03B3AE"/>
<path d="M39.3258 44.8537C39.4015 44.0515 39.3701 43.4441 39.5319 42.8798C39.6925 42.2676 39.9818 41.6841 40.2879 41.1321C41.0844 39.7195 41.4654 39.5978 43.0738 39.9092C47.4327 40.7591 51.8188 41.4162 56.2745 41.0312C58.5101 40.8306 60.7413 40.4539 62.9729 40.0933C63.9293 39.941 64.7179 40.1131 65.1245 40.9991C65.5979 41.9955 65.9289 43.0594 66.2756 44.107C66.3624 44.3769 66.2426 44.7 66.1903 45.1655C64.7467 43.7776 63.2041 44.1688 61.6751 44.4636C56.4675 45.4918 51.2564 45.7518 46.0252 44.5879C44.9631 44.3588 43.9014 44.1456 42.8244 43.9648C41.3776 43.7134 40.7575 43.8731 39.3258 44.8537Z" fill="#03B3AE"/>
<path d="M39.7847 39.5924C39.8546 39.1905 39.876 38.7738 40.0103 38.3863C40.2496 37.724 40.1259 37.263 39.4628 36.9917C39.2688 36.9166 39.0736 36.7935 38.926 36.6532C38.8112 36.544 38.7904 36.3525 38.7227 36.2102C38.8655 36.1586 39.0382 36.0261 39.1194 36.0721C39.8321 36.4062 40.2714 36.0589 40.7879 35.5977C41.6949 34.7585 42.7326 34.6521 43.9567 34.9572C49.2063 36.2167 54.4971 36.5788 59.8327 35.5474C60.7248 35.3807 61.6181 35.2621 62.4937 35.0798C63.6397 34.8267 64.4393 35.4307 65.1928 36.1158C65.6024 36.4896 65.9452 36.753 66.515 36.4985C66.6573 36.4308 66.9005 36.5527 67.0932 36.5799C66.9861 36.7746 66.9114 36.9846 66.7711 37.1322C66.6464 37.2634 66.4561 37.3322 66.2981 37.4163C65.6968 37.6876 65.4834 38.1091 65.724 38.7592C65.8616 39.1399 65.8722 39.5557 65.9659 40.0975C65.7072 39.992 65.5948 39.9789 65.5292 39.9165C64.804 39.0866 63.919 38.901 62.8674 39.0877C58.0076 39.947 53.1393 40.4705 48.2078 39.7631C46.5854 39.5321 44.9618 39.2532 43.3526 38.9098C42.0813 38.6379 40.9285 38.6191 40.0135 39.7786C39.9311 39.6847 39.8499 39.6387 39.7847 39.5924Z" fill="#03B3AE"/>
<path d="M40.5737 63.7881C40.4684 63.4227 40.3619 63.0092 40.239 62.5802C38.8173 63.3205 37.3664 62.9091 35.9609 63.0247C35.817 63.0283 35.6513 62.8085 35.5045 62.7001C35.6609 62.5521 35.7991 62.3246 35.9735 62.2561C37.0522 61.8767 38.1313 61.5132 39.2273 61.1814C39.7355 61.0245 40.0341 60.8088 39.9076 60.2359C39.8883 60.1083 39.9007 59.9639 39.9134 59.8356C40.0434 58.6479 40.2608 58.3863 41.4029 58.6135C43.2209 58.9835 45.0253 59.45 46.7989 59.9653C49.3632 60.7326 51.9867 60.6821 54.6115 60.6796C56.6281 60.6766 58.5333 60.0681 60.4569 59.5552C61.6016 59.2542 62.7968 59.0478 63.9772 58.8899C65.1256 58.7328 65.4843 58.9958 65.4016 60.1502C65.3463 61.1279 65.7383 61.4381 66.5605 61.6734C67.5275 61.937 68.4657 62.3293 69.4031 62.6897C69.5971 62.7648 69.7316 63.0175 69.896 63.1894C69.6901 63.2746 69.4866 63.4558 69.2942 63.4447C68.3657 63.4362 67.4372 63.4277 66.5067 63.3393C66.0572 63.2866 65.6188 63.0416 65.1021 62.8627C64.9679 63.2502 64.8349 63.6857 64.6559 64.2024C62.6013 62.702 60.3517 62.983 58.1 63.1841C54.1398 63.5405 50.2002 63.4482 46.2657 62.9237C45.0292 62.763 43.72 62.8922 42.4753 63.0357C41.8691 63.1151 41.2706 63.4984 40.5737 63.7881Z" fill="#03B3AE"/>
<path d="M65.8926 49.2063C65.11 48.0097 64.1196 48.0828 63.1455 48.1715C62.6824 48.2153 62.189 48.3238 61.762 48.5267C59.2636 49.7263 56.5957 49.9219 53.9057 49.8781C51.792 49.8356 49.661 49.7455 47.5568 49.4467C46.2395 49.256 44.9917 48.6474 43.7012 48.2479C43.3461 48.1289 42.9905 47.9939 42.6366 47.9228C41.5757 47.7416 40.5336 47.672 39.6342 48.8151C39.6237 48.3993 39.5536 48.161 39.6288 47.967C39.8972 47.1919 39.4913 46.9621 38.8302 46.7708C37.9916 46.52 37.1669 46.1888 36.3431 45.8895C36.3411 45.8096 36.3546 45.7132 36.3526 45.6332C36.5429 45.5644 36.7484 45.4631 36.9404 45.4583C37.4686 45.4609 37.9993 45.5595 38.5263 45.5141C39.1653 45.4659 39.7998 45.2418 40.4392 45.2096C41.4785 45.1672 42.5793 45.0273 43.5774 45.2581C48.6326 46.4265 53.7004 46.8263 58.8341 46.04C59.9821 45.8669 61.1281 45.6138 62.2756 45.4247C63.4708 45.2183 64.6516 45.0764 65.7279 45.8654C65.8747 45.9737 66.1302 45.9512 66.3381 45.946C67.1063 45.9425 67.8733 45.8911 68.6418 45.9036C68.8661 45.9139 69.0785 46.0846 69.2889 46.1753C69.1162 46.3077 68.9775 46.5193 68.7872 46.5881C68.0575 46.8467 67.3274 47.0893 66.5797 47.2683C66.0227 47.3944 65.8045 47.624 65.9314 48.213C65.9847 48.4197 65.912 48.7096 65.8926 49.2063Z" fill="#03B3AE"/>
<path d="M65.1387 52.2984C63.5013 52.74 61.8459 53.102 60.2426 53.6228C55.7021 55.0822 51.1379 54.9738 46.5806 53.8728C44.777 53.4384 43.0321 52.7943 41.2581 52.2631C40.9034 52.16 40.5183 52.1218 40.1512 52.1631C39.545 52.2425 39.3474 52.0234 39.3644 51.4308C39.3954 49.4934 39.7175 48.9411 42.0384 48.9463C42.6626 48.9465 43.3232 49.1218 43.8743 49.3959C46.2248 50.5688 48.7293 50.8735 51.2917 50.9366C53.8861 50.9989 56.4982 51.1248 59.0596 50.5157C59.8552 50.3355 60.6149 49.9962 61.3762 49.7208C62.5972 49.2738 63.822 48.9706 65.0989 49.4665C65.9716 49.7965 66.5928 51.5733 66.0356 52.3237C65.8961 52.5032 65.4794 52.4818 65.1931 52.5531C65.1751 52.4735 65.1567 52.3779 65.1387 52.2984Z" fill="#03B3AE"/>
<path d="M75.486 17.8653C75.107 18.067 74.746 18.3482 74.3329 18.4707C73.9039 18.5936 73.438 18.5254 72.9922 18.6167C72.6895 18.6724 72.4065 18.8716 72.1218 19.0069C71.9003 19.1085 71.6492 19.3069 71.4245 19.2806C70.4304 19.2098 69.5047 19.3132 68.5019 19.5307C67.1168 19.8219 65.6577 19.7148 64.2177 19.7352C63.3376 19.7415 62.4714 19.6674 61.5909 19.6577C61.431 19.6618 61.241 19.7466 61.1155 19.8458C60.5351 20.3087 59.9542 20.7555 59.4229 21.2652C59.1255 21.5288 58.9101 21.8703 58.6619 22.1807C58.538 22.3439 58.4321 22.5867 58.2573 22.6391C57.4173 22.9645 57.673 23.5822 57.9255 24.072C58.3292 24.846 58.8437 25.5692 59.3106 26.3096C59.6607 26.8609 59.5313 27.4404 58.8616 27.5374C58.0803 27.6532 57.1702 27.7403 56.4587 27.4542C54.1295 26.4889 51.8698 26.3701 49.4936 27.3426C48.8599 27.5987 48.0274 27.5878 47.32 27.4616C46.2594 27.2964 46.212 26.6895 46.8783 25.8243C47.4515 25.0735 47.8131 24.1841 48.2559 23.3406C48.3166 23.211 48.3585 22.9699 48.2925 22.8915C47.7653 22.2967 47.2381 21.7019 46.6637 21.1402C46.1549 20.641 45.6153 20.1905 45.0601 19.7564C44.8641 19.6013 44.5734 19.4966 44.317 19.4871C42.2812 19.3626 40.2159 19.3349 38.1485 19.2273C37.6678 19.2074 37.2123 18.9149 36.73 18.8311C36.2961 18.762 35.8483 18.7734 35.4164 18.7843C34.8406 18.7989 34.2516 18.9258 33.8827 18.263C33.7987 18.1051 33.4152 18.1308 33.1577 18.0733C32.4818 17.9303 31.8068 17.8194 31.1617 17.6277C31.0166 17.5833 30.9297 17.3135 30.8137 17.1563C30.9872 17.0559 31.1431 16.8919 31.3182 16.8555C31.6209 16.7998 31.9724 16.7749 32.2619 16.8316C33.6292 17.101 34.9825 17.4509 36.3493 17.7043C37.539 17.9143 38.7439 18.0918 39.9628 18.189C41.4867 18.3264 43.0247 18.3835 44.5634 18.4726C46.0542 18.5628 46.9742 19.4998 47.7867 20.6156C47.986 20.8987 48.2955 21.1149 48.5415 21.3487C48.8203 21.6138 49.1307 21.862 49.3628 22.1762C49.8088 22.7251 50.3496 23.2236 50.3383 24.0401C50.3407 24.1361 50.713 24.3027 50.9218 24.3294C51.0182 24.343 51.14 24.0998 51.2656 24.0006C51.5006 23.8026 51.7325 23.4766 51.988 23.4541C52.6905 23.3883 53.4275 23.4177 54.1337 23.4958C54.3744 23.5217 54.5901 23.8204 54.8025 23.991C54.9657 24.115 55.1489 24.3984 55.276 24.3632C55.4832 24.3259 55.7822 24.1263 55.8253 23.9331C56.1148 22.7254 56.8627 21.9222 57.9362 21.3348C58.1097 21.2344 58.2328 21.0392 58.3567 20.876C59.298 19.4918 60.4617 18.678 62.3036 18.7274C64.1778 18.792 66.0607 18.5682 67.9437 18.3444C69.7626 18.1223 71.5611 17.7246 73.3793 17.4705C74.0491 17.3735 74.7553 17.4517 75.4279 17.4666C75.4311 17.5946 75.4663 17.7217 75.486 17.8653Z" fill="#03B3AE"/>
<path d="M47.7646 68.3915C46.9655 67.8036 46.5188 67.8629 46.0564 68.5628C45.9944 68.6444 45.9489 68.7416 45.8873 68.8392C45.2735 69.8791 45.0987 69.9315 44.0449 69.398C43.2004 70.8119 41.5485 70.6777 40.2667 71.2543C40.1244 71.3219 39.8968 71.1837 39.7036 71.1405C39.7791 70.9626 39.8051 70.7218 39.9306 70.6226C40.8413 69.9273 41.7688 69.2636 42.6798 68.5844C42.9941 68.3523 43.2087 67.9788 43.5401 67.7943C44.0295 67.5258 44.5972 67.1913 45.1098 67.2104C46.0552 67.2504 47.0045 67.4505 47.9083 67.7477C51.0077 68.7895 54.0684 68.9361 57.2115 67.9121C58.1479 67.6003 59.1691 67.4784 60.1752 67.3889C60.8777 67.3231 61.4157 67.7096 61.9417 68.2565C62.8777 69.1931 64.0004 69.9169 65.03 70.7551C65.2424 70.9257 65.346 71.2272 65.5121 71.4631C65.2242 71.4704 64.9059 71.5424 64.6319 71.4694C64.1649 71.3532 63.7125 71.1886 63.2914 70.9912C62.5623 70.6415 61.848 70.2435 60.9397 69.7703C60.1165 70.1273 59.9705 70.051 59.3348 68.9627C59.1507 68.6473 58.8543 68.3187 58.5148 68.1832C58.2884 68.0929 57.9422 68.3258 57.6559 68.397C57.7895 68.6177 57.8928 68.9032 58.0732 69.0747C58.696 69.6511 59.0139 70.8274 58.5839 71.5425C58.4152 71.8349 57.9734 72.0862 57.6535 72.0943C57.4296 72.1 57.1783 71.6582 56.9795 71.3911C56.8799 71.2496 56.8902 71.0253 56.8378 70.8505C56.5272 69.9621 56.0273 69.8147 55.4049 70.5187C54.938 71.0427 54.5212 71.6455 54.2171 72.2774C53.851 72.9909 53.3977 73.4185 52.5652 73.4076C51.7322 73.3806 51.319 72.8629 50.9657 72.1837C50.6127 71.5204 50.1647 70.8915 49.6854 70.2955C49.3218 69.8406 48.9063 69.8671 48.6322 70.4182C48.4951 70.6938 48.3425 70.9857 48.2702 71.2916C48.1696 71.7423 47.9226 72.1007 47.4707 71.9521C47.1315 71.8327 46.6756 71.5241 46.6035 71.2058C46.3725 70.2994 46.4298 69.4016 47.3593 68.8179C47.5336 68.7495 47.6243 68.5391 47.7646 68.3915Z" fill="#03B3AE"/>
<path d="M44.193 63.8725C46.6787 64.0656 49.0233 64.3744 51.3774 64.4268C53.8114 64.4771 56.2566 64.3352 58.6858 64.1936C60.2361 64.1063 61.7548 64.0358 63.2705 64.4776C63.9155 64.6693 64.0836 64.9852 63.7787 65.5851C63.5189 66.0718 63.3244 66.6049 63.0486 67.0921C62.8032 67.5144 62.3774 67.7653 62.029 67.2779C61.0837 65.9735 59.8253 66.2134 58.5678 66.4853C57.4854 66.7208 56.4051 67.0363 55.3235 67.3038C52.4602 68.0005 49.7524 67.2528 47.0426 66.4252C46.3007 66.2039 45.483 66.1446 44.7 66.1964C44.2686 66.2234 43.7973 66.5714 43.4535 66.9002C42.969 67.3606 42.5851 67.3704 42.2658 66.7703C42.0981 66.4704 41.9781 66.1533 41.826 65.8371C41.1809 64.3809 41.2273 64.3158 42.8207 64.0353C43.3141 63.9268 43.826 63.9138 44.193 63.8725Z" fill="#03B3AE"/>
<path d="M49.6128 73.1142C49.2844 72.7864 48.8461 72.5415 48.8732 72.3487C48.9279 71.9792 49.2233 71.6356 49.4227 71.2945C49.7043 71.6714 50.0179 72.0476 50.2524 72.4578C50.286 72.521 49.925 72.8022 49.6128 73.1142Z" fill="#03B3AE"/>
<path d="M56.6851 72.4069C56.2754 72.6574 56.0419 72.9194 55.802 72.9254C55.5297 72.9163 55.2673 72.6669 54.9917 72.5298C55.2703 72.1547 55.5645 71.7631 55.8431 71.3879C56.0903 71.6697 56.3215 71.952 56.6851 72.4069Z" fill="#03B3AE"/>
</g>
<defs>
<filter id="filter0_dii_4_873" x="0.801727" y="0" width="104.397" height="96" filterUnits="userSpaceOnUse" color-interpolation-filters="sRGB">
<feFlood flood-opacity="0" result="BackgroundImageFix"/>
<feColorMatrix in="SourceAlpha" type="matrix" values="0 0 0 0 0 0 0 0 0 0 0 0 0 0 0 0 0 0 127 0" result="hardAlpha"/>
<feOffset dx="2" dy="2"/>
<feGaussianBlur stdDeviation="2"/>
<feColorMatrix type="matrix" values="0 0 0 0 0 0 0 0 0 0 0 0 0 0 0 0 0 0 0.25 0"/>
<feBlend mode="normal" in2="BackgroundImageFix" result="effect1_dropShadow_4_873"/>
<feBlend mode="normal" in="SourceGraphic" in2="effect1_dropShadow_4_873" result="shape"/>
<feColorMatrix in="SourceAlpha" type="matrix" values="0 0 0 0 0 0 0 0 0 0 0 0 0 0 0 0 0 0 127 0" result="hardAlpha"/>
<feOffset dx="5" dy="5"/>
<feGaussianBlur stdDeviation="1"/>
<feComposite in2="hardAlpha" operator="arithmetic" k2="-1" k3="1"/>
<feColorMatrix type="matrix" values="0 0 0 0 1 0 0 0 0 1 0 0 0 0 1 0 0 0 1 0"/>
<feBlend mode="normal" in2="shape" result="effect2_innerShadow_4_873"/>
<feColorMatrix in="SourceAlpha" type="matrix" values="0 0 0 0 0 0 0 0 0 0 0 0 0 0 0 0 0 0 127 0" result="hardAlpha"/>
<feOffset dx="-5" dy="-5"/>
<feGaussianBlur stdDeviation="1"/>
<feComposite in2="hardAlpha" operator="arithmetic" k2="-1" k3="1"/>
<feColorMatrix type="matrix" values="0 0 0 0 0 0 0 0 0 0 0 0 0 0 0 0 0 0 0.25 0"/>
<feBlend mode="normal" in2="effect2_innerShadow_4_873" result="effect3_innerShadow_4_873"/>
</filter>
<filter id="filter1_ii_4_873" x="28.1978" y="12.368" width="54.3245" height="67.2639" filterUnits="userSpaceOnUse" color-interpolation-filters="sRGB">
<feFlood flood-opacity="0" result="BackgroundImageFix"/>
<feBlend mode="normal" in="SourceGraphic" in2="BackgroundImageFix" result="shape"/>
<feColorMatrix in="SourceAlpha" type="matrix" values="0 0 0 0 0 0 0 0 0 0 0 0 0 0 0 0 0 0 127 0" result="hardAlpha"/>
<feOffset dx="-1" dy="-1"/>
<feGaussianBlur stdDeviation="1"/>
<feComposite in2="hardAlpha" operator="arithmetic" k2="-1" k3="1"/>
<feColorMatrix type="matrix" values="0 0 0 0 0.972549 0 0 0 0 0.976471 0 0 0 0 0.980392 0 0 0 1 0"/>
<feBlend mode="normal" in2="shape" result="effect1_innerShadow_4_873"/>
<feColorMatrix in="SourceAlpha" type="matrix" values="0 0 0 0 0 0 0 0 0 0 0 0 0 0 0 0 0 0 127 0" result="hardAlpha"/>
<feOffset dx="1" dy="1"/>
<feGaussianBlur stdDeviation="1"/>
<feComposite in2="hardAlpha" operator="arithmetic" k2="-1" k3="1"/>
<feColorMatrix type="matrix" values="0 0 0 0 0.0809375 0 0 0 0 0.4625 0 0 0 0 0.45166 0 0 0 1 0"/>
<feBlend mode="normal" in2="effect1_innerShadow_4_873" result="effect2_innerShadow_4_873"/>
</filter>
<linearGradient id="paint0_linear_4_873" x1="101" y1="90" x2="0.99999" y2="2.00001" gradientUnits="userSpaceOnUse">
<stop stop-color="#DCD7BF"/>
<stop offset="1" stop-color="#F3F1E6"/>
</linearGradient>
<clipPath id="clip0_4_873">
<rect width="50.72" height="64" fill="white" transform="translate(29.1978 14.6525) rotate(-1.4511)"/>
</clipPath>
</defs>
</svg>
