<svg width="106" height="96" viewBox="0 0 106 96" fill="none" xmlns="http://www.w3.org/2000/svg">
<g filter="url(#filter0_dii_1_387)">
<path d="M4.36824 51.9281C2.27955 48.252 2.27955 43.748 4.36824 40.0719L22.5501 8.07189C24.6826 4.31863 28.6667 2.00001 32.9835 2.00001L69.0165 2C73.3332 2 77.3174 4.31862 79.4499 8.07189L97.6317 40.0719C99.7204 43.748 99.7204 48.252 97.6318 51.9281L79.4499 83.9281C77.3174 87.6814 73.3333 90 69.0165 90L32.9835 90C28.6667 90 24.6826 87.6814 22.5501 83.9281L4.36824 51.9281Z" fill="#221B11"/>
<path d="M4.47693 51.8664C2.40999 48.2286 2.40999 43.7715 4.47693 40.1336L22.6587 8.13364C24.7691 4.41947 28.7117 2.12501 32.9835 2.12501L69.0165 2.125C73.2883 2.125 77.2309 4.41947 79.3413 8.13364L97.5231 40.1336C99.59 43.7714 99.59 48.2286 97.5231 51.8664L79.3413 83.8664C77.2309 87.5805 73.2883 89.875 69.0165 89.875L32.9835 89.875C28.7117 89.875 24.7691 87.5805 22.6587 83.8664L4.47693 51.8664Z" stroke="#403522" stroke-width="0.25"/>
</g>
<g clip-path="url(#clip0_1_387)">
<g filter="url(#filter1_ii_1_387)">
<path d="M30.0575 70.709C30.1737 71.1739 30.6966 70.9995 30.6385 70.709C30.6385 70.4185 30.5804 68.5009 30.5804 68.5009L30.6385 68.2685C30.2318 65.3631 31.8588 57.2279 31.9169 56.7049C31.975 56.182 32.3237 56.1239 32.3237 56.1239C35.5196 54.5549 37.0885 53.3347 37.1466 52.986C37.2048 52.6374 37.8439 52.2887 38.1926 52.1144C38.5412 51.9401 38.3088 51.4752 38.5993 51.4752C38.8899 51.4752 39.1804 50.6617 39.1804 50.6617C39.1804 50.8941 39.5872 50.836 39.5872 50.836C43.5385 48.2212 46.4439 47.9887 46.4439 47.9887C46.1534 49.9063 47.025 53.3928 47.7804 58.5063C48.5358 63.6198 50.8602 64.3171 50.8602 64.3171C50.8602 64.3171 51.0926 64.3752 51.4412 64.3171C51.7899 64.3752 52.0223 64.3171 52.0223 64.3171C52.0223 64.3171 54.3466 63.6198 55.102 58.5063C55.8575 53.3928 56.7291 49.8482 56.4385 47.9887C56.4385 47.9887 59.402 48.2212 63.2953 50.836C63.2953 50.836 63.7602 50.8941 63.702 50.6617C63.702 50.6617 63.9926 51.4752 64.2831 51.4752C64.5737 51.4752 64.3993 51.9401 64.6899 52.1144C65.0385 52.2887 65.6777 52.6374 65.7358 52.986C65.7939 53.3347 67.3629 54.6131 70.5588 56.1239C70.5588 56.1239 70.9075 56.182 70.9656 56.7049C71.1399 57.2279 72.7669 65.3631 72.3602 68.2685L72.4183 68.5009C72.4183 68.5009 72.4183 70.4185 72.3602 70.709C72.302 70.9995 72.825 71.1739 72.9412 70.709C73.0575 70.2441 73.1156 59.5522 71.6048 55.5428C71.6048 55.5428 69.1061 52.7536 65.3291 51.1266C65.3291 51.1266 64.3412 48.3955 56.6129 47.0009C56.6129 47.0009 56.7291 46.0712 56.3223 45.3158C56.3223 45.3158 60.0412 44.909 60.8548 45.1414C61.6683 45.3739 61.9007 44.909 61.9007 44.909C61.9007 44.909 62.4237 44.909 62.5399 45.0252C62.6561 45.1995 63.121 45.3158 63.3534 45.1995C63.5858 45.1414 65.2129 45.8387 66.1426 46.0712C66.1426 46.0712 69.1061 50.6617 69.4548 50.836C69.8034 51.0685 69.9777 50.7198 69.6872 50.2549C69.3966 49.7901 66.7237 45.8968 66.4912 45.8387C66.2007 45.7806 66.2007 45.1995 65.852 45.1995C65.4453 45.1995 63.5277 44.5604 63.2953 44.6766C63.0629 44.7928 63.121 44.0374 61.6683 44.1536C60.2156 44.2698 56.3223 44.5604 55.8575 44.5604C55.8575 44.5604 55.5669 43.8049 54.9858 43.5144C54.9858 43.5144 55.102 43.3401 55.3345 43.1077C55.5669 42.8752 59.0534 37.2968 59.6345 36.2509C60.2737 35.1468 61.3196 34.2752 61.4939 33.1131C61.4939 33.1131 62.1912 32.1833 62.3075 31.7185C62.4818 31.2536 64.5156 30.7887 65.5034 29.3941C65.5034 29.3941 65.7358 29.1617 65.9683 29.6266C66.2007 30.0914 68.3507 34.2171 68.4669 37.8198C68.4669 37.8198 69.1642 38.2847 68.8737 36.4833C68.6412 34.682 66.7237 28.9293 65.9102 28.3482C65.9102 28.3482 65.7358 27.709 65.271 27.709C64.8061 27.709 64.5156 28.2901 63.9345 28.2901C63.3534 28.2901 61.9007 30.1495 61.8426 30.905C61.7264 31.6022 60.7966 30.7306 60.3899 32.7644C60.3899 32.7644 59.0534 33.5779 58.4723 35.9604C57.8331 38.3428 54.9858 42.0036 54.9858 42.0036C54.9858 42.0036 54.6953 42.1198 54.4629 42.4104C54.4048 42.5847 54.4048 41.9455 54.4048 41.9455C54.4048 41.9455 55.102 41.3063 55.2183 41.132C55.3345 40.8995 57.0196 36.832 57.6007 34.5077C58.2399 32.1833 58.9372 29.859 59.2277 29.8009C59.5183 29.7428 59.2277 29.2198 59.2277 29.2198C59.2277 29.2198 59.9831 28.4644 59.5764 27.0117C59.5764 27.0117 61.3196 22.5955 61.4358 21.8982C61.5521 21.2009 60.8548 20.9685 60.6223 21.2009C60.3318 21.4914 58.9372 25.5009 58.5304 27.1279C58.1237 28.8131 58.3561 28.9874 58.1237 28.9874C57.8912 29.0455 54.8115 39.4468 54.2885 40.2604C54.2885 40.2604 53.7075 40.6671 53.6493 40.8414C53.6493 40.8414 53.4169 40.609 53.4169 40.3185C53.4169 40.0279 53.8237 38.982 53.475 38.6333C53.0683 38.2847 52.9521 38.4009 52.8939 38.2266C52.8358 38.0522 52.7196 37.7617 52.4872 37.8198C52.2548 37.8779 51.848 38.0522 51.6156 37.936L51.6156 37.8779C51.5575 37.8779 51.4993 37.936 51.4412 37.936C51.3831 37.936 51.325 37.8779 51.2669 37.8779L51.2669 38.0522C51.0345 38.1685 50.5696 37.9941 50.3953 37.936C50.1629 37.8779 50.1048 38.1685 49.9885 38.3428C49.9304 38.5171 49.7561 38.4009 49.4075 38.7495C49.0007 39.0982 49.4656 40.1441 49.4656 40.4347C49.4656 40.7252 49.2331 40.9577 49.2331 40.9577C49.175 40.7833 48.5939 40.3766 48.5939 40.3766C48.0129 39.5631 44.9912 29.1036 44.7588 29.1036C44.5264 29.0455 44.7588 28.8712 44.3521 27.2441C43.9453 25.559 42.5507 21.5495 42.2602 21.3171C41.9696 21.0266 41.3304 21.3171 41.4466 22.0144C41.621 22.5955 43.3642 27.0698 43.3642 27.0698C42.9575 28.5225 43.7129 29.2779 43.7129 29.2779C43.7129 29.2779 43.4223 29.8009 43.7129 29.859C44.0034 29.9171 44.7588 32.1833 45.3399 34.5658C45.9791 36.8901 47.6061 40.9577 47.7223 41.1901C47.8966 41.3644 48.5939 41.9455 48.5939 41.9455C48.5939 41.9455 48.6521 42.5847 48.3615 42.2941C48.1291 42.0036 47.8385 41.8874 47.8385 41.8874C47.8385 41.8874 44.9912 38.2266 44.3521 35.8441C43.7129 33.4617 42.4345 32.6482 42.4345 32.6482C42.0277 30.6144 41.098 31.486 40.9818 30.7887C40.8656 30.0914 39.4129 28.1739 38.8899 28.1739C38.3088 28.1739 38.0764 27.5928 37.5534 27.5928C37.0885 27.5928 36.9142 28.232 36.9142 28.232C36.1007 28.8131 34.1831 34.5658 33.9507 36.3671C33.7183 38.1685 34.3575 37.7036 34.3575 37.7036C34.4737 34.1009 36.6237 29.9752 36.8561 29.5104C37.0885 29.0455 37.321 29.2779 37.321 29.2779C38.3088 30.6144 40.4007 31.1374 40.5169 31.6022C40.6912 32.0671 41.3304 32.9968 41.3304 32.9968C41.5048 34.159 42.6088 35.0887 43.1899 36.1347C43.9453 37.2968 47.3737 42.8752 47.6061 43.1077C47.8385 43.3401 47.9548 43.5144 47.9548 43.5144C47.3737 43.8049 47.0831 44.5604 47.0831 44.5604C46.6764 44.6185 42.7831 44.2698 41.2723 44.1536C39.8196 44.0374 39.8777 44.7347 39.6453 44.6766C39.4129 44.5604 37.4953 45.1995 37.0885 45.1995C36.6818 45.1995 36.6818 45.7806 36.4493 45.8387C36.1588 45.8968 33.5439 49.7901 33.2534 50.2549C32.9629 50.7198 33.1953 51.0685 33.4858 50.836C33.8345 50.6036 36.798 46.0712 36.798 46.0712C37.7277 45.8387 39.3548 45.1414 39.5872 45.1995C39.8196 45.2576 40.2845 45.1414 40.4007 45.0252C40.575 44.8509 41.098 44.8509 41.098 44.8509C41.098 44.8509 41.3304 45.3158 42.1439 45.0833C42.9575 44.8509 46.6764 45.2577 46.6764 45.2577C46.2696 46.0131 46.3858 46.9428 46.3858 46.9428C38.6575 48.3374 37.6696 51.0685 37.6696 51.0685C33.8926 52.7536 31.3939 55.4847 31.3939 55.4847C29.8831 59.5522 29.9412 70.2441 30.0575 70.709Z" fill="url(#paint0_linear_1_387)"/>
</g>
<g filter="url(#filter2_ii_1_387)">
<path d="M35.6365 55.2527C35.8689 55.0783 35.8108 53.8 35.9852 54.0324C36.1595 54.2648 35.7527 54.8459 35.9852 54.6135C36.2176 54.381 36.3338 53.6256 36.3338 53.6256C36.7406 53.7419 35.7527 55.1946 36.1014 54.9621C36.1014 54.9621 36.1014 54.9621 36.1595 54.904C36.5081 54.6135 36.7406 53.2189 36.7406 53.2189C36.973 53.3932 36.3919 54.7297 36.6243 54.381C36.8568 54.0324 36.9149 53.0446 36.9149 53.0446C37.1473 53.8 36.5662 55.1946 36.5662 55.1946C37.1473 54.5554 37.0892 52.9283 37.0892 52.9283L37.0892 52.8702C36.3338 52.5216 35.7527 54.1486 35.7527 54.1486C35.8108 54.2648 35.4041 55.427 35.6365 55.2527ZM34.1838 56.0081C34.4162 55.8337 34.3581 54.5554 34.5325 54.7878C34.7068 55.0202 34.3 55.6013 34.5325 55.3689C34.7649 55.1364 34.8811 54.381 34.8811 54.381C35.2879 54.4973 34.3 55.95 34.6487 55.7175C34.6487 55.7175 34.6487 55.7175 34.7068 55.6594C35.0554 55.3689 35.2297 53.9743 35.2297 53.9743C35.4622 54.1486 34.8811 55.4851 35.1135 55.1364C35.346 54.7878 35.4041 53.8 35.4041 53.8C35.6365 54.5554 35.0554 55.95 35.0554 55.95C35.6365 55.3108 35.5784 53.6837 35.5784 53.6837L35.5784 53.6256C34.823 53.277 34.2419 54.904 34.2419 54.904C34.3581 55.0202 33.8933 56.1824 34.1838 56.0081ZM32.7311 56.7635C32.9635 56.5891 32.9054 55.3108 33.0797 55.4851C33.2541 55.7175 32.8473 56.2986 33.0797 56.0662C33.3122 55.8337 33.4284 55.0783 33.4284 55.0783C33.8352 55.1946 32.8473 56.6473 33.196 56.4148C33.196 56.4148 33.196 56.4148 33.2541 56.3567C33.6027 56.0662 33.777 54.6716 33.777 54.6716C34.0095 54.8459 33.4284 56.1824 33.6608 55.8337C33.8933 55.4851 33.9514 54.4973 33.9514 54.4973C34.1838 55.2527 33.6027 56.6473 33.6027 56.6473C34.1838 56.0081 34.1257 54.381 34.1257 54.381L34.1257 54.3229C33.3703 53.9743 32.7892 55.6013 32.7892 55.6013C32.9054 55.7756 32.4406 56.9378 32.7311 56.7635Z" fill="#A65739"/>
</g>
<g filter="url(#filter3_ii_1_387)">
<path d="M35.2297 52.9283C35.2297 52.9283 36.9149 53.277 37.0311 52.4054L36.973 52.4054C36.973 52.4054 35.5784 51.5337 34.7649 51.7081C34.7649 51.7081 36.2757 51.8824 36.7987 52.5216C36.7987 52.5216 35.927 52.0567 35.5203 52.0567C35.1135 52.1148 36.5081 52.231 36.5662 52.5797C36.5662 52.5797 35.2879 52.1148 34.823 52.231L34.7649 52.231C34.4162 52.4054 36.1595 52.3473 36.0433 52.754C36.0433 52.754 35.346 52.5216 34.9973 52.5797C34.6487 52.6378 35.4041 52.6378 35.5203 52.8702C35.6365 53.1027 34.5325 52.4054 34.2419 52.5216C33.9514 52.5797 35.1135 52.754 35.2297 52.9283ZM33.8352 53.8581C33.8352 53.8581 35.5203 54.2067 35.5784 53.3351L35.5203 53.277C35.5203 53.277 34.1257 52.4054 33.3122 52.5797C33.3122 52.5797 34.823 52.754 35.346 53.3932C35.346 53.3932 34.4743 52.9283 34.0676 52.9283C33.6608 52.9864 35.0554 53.1027 35.1135 53.4513C35.1135 53.4513 33.8352 52.9864 33.3703 53.1027L33.3122 53.1027C32.9635 53.277 34.7068 53.2189 34.5906 53.6256C34.5906 53.6256 33.8933 53.3932 33.5446 53.4513C33.196 53.5094 33.9514 53.5094 34.0676 53.7419C34.1838 53.9743 33.0797 53.277 32.7892 53.3932C32.5568 53.5094 33.777 53.6837 33.8352 53.8581ZM32.4406 54.7297C32.4406 54.7297 34.1257 55.0783 34.1838 54.2067L34.1257 54.1486C34.1257 54.1486 32.7311 53.277 31.9176 53.4513C31.9176 53.4513 33.4284 53.6256 33.9514 54.2648C33.9514 54.2648 33.0797 53.8 32.673 53.8C32.2662 53.8581 33.6608 53.9743 33.7189 54.3229C33.7189 54.3229 32.4406 53.8581 31.9757 53.9743L31.9176 53.9743C31.5689 54.1486 33.3122 54.0905 33.196 54.4973C33.196 54.4973 32.4987 54.2648 32.15 54.3229C31.8014 54.381 32.5568 54.381 32.673 54.6135C32.7892 54.8459 31.6852 54.1486 31.3946 54.2648C31.1622 54.381 32.3824 54.5554 32.4406 54.7297Z" fill="#A65739"/>
</g>
<g filter="url(#filter4_ii_1_387)">
<path d="M69.1649 52.5216C68.9325 52.3473 67.7122 52.8121 67.8865 52.5797C68.0608 52.3473 68.7581 52.5216 68.4676 52.4054C68.1771 52.2892 67.4216 52.4054 67.4216 52.4054C67.4216 51.9986 69.1068 52.4054 68.7581 52.1729C68.7581 52.1729 68.7581 52.1729 68.7 52.1729C68.2933 51.9405 66.9568 52.1729 66.9568 52.1729C67.073 51.8824 68.5257 51.9986 68.1189 51.8824C67.7122 51.7662 66.7243 52.0567 66.7243 52.0567C67.3635 51.5919 68.8743 51.65 68.8743 51.65C68.0608 51.3013 66.55 51.8824 66.55 51.8824L66.4919 51.8824C66.4338 52.6959 68.1189 52.6959 68.1189 52.6959C68.2352 52.6378 69.4554 52.754 69.1649 52.5216ZM70.3852 53.6837C70.0946 53.5094 68.9325 53.9743 69.0487 53.7419C69.223 53.5094 69.9203 53.6837 69.6298 53.5675C69.3392 53.4513 68.5838 53.5675 68.5838 53.5675C68.5838 53.1608 70.2689 53.5675 69.9203 53.3351C69.9203 53.3351 69.9203 53.3351 69.8622 53.3351C69.4554 53.1027 68.1189 53.3351 68.1189 53.3351C68.2352 53.0446 69.6879 53.1608 69.2811 53.0446C68.8743 52.9283 67.8865 53.2189 67.8865 53.2189C68.5257 52.754 70.0365 52.8121 70.0365 52.8121C69.223 52.4635 67.7122 53.0446 67.7122 53.0446L67.6541 53.0446C67.596 53.8581 69.2811 53.8581 69.2811 53.8581C69.3973 53.8 70.6176 53.8581 70.3852 53.6837ZM71.5473 54.8459C71.2568 54.6135 70.0946 55.0783 70.2689 54.904C70.4433 54.6716 71.1406 54.8459 70.85 54.7297C70.5595 54.6135 69.8041 54.7297 69.8041 54.7297C69.8041 54.3229 71.4892 54.7297 71.1406 54.4973C71.1406 54.4973 71.1406 54.4973 71.0825 54.4973C70.6757 54.2648 69.3392 54.4973 69.3392 54.4973C69.4554 54.2067 70.9081 54.3229 70.5014 54.2067C70.0946 54.0905 69.1068 54.381 69.1068 54.381C69.746 53.9162 71.2568 53.9743 71.2568 53.9743C70.4433 53.6256 68.9325 54.2067 68.9325 54.2067L68.8743 54.2067C68.8162 55.0202 70.5014 55.0202 70.5014 55.0202C70.5595 54.9621 71.7798 55.0202 71.5473 54.8459Z" fill="#A65739"/>
</g>
<g filter="url(#filter5_ii_1_387)">
<path d="M67.1311 53.6837C67.1311 53.6837 66.8987 51.9986 66.0852 52.1729L66.0852 52.231C66.0852 52.231 65.7365 53.8 66.1433 54.5554C66.1433 54.5554 65.8527 53.1027 66.2595 52.4054C66.2595 52.4054 66.0852 53.3932 66.2595 53.8C66.4338 54.2067 66.0852 52.754 66.3757 52.6378C66.3757 52.6378 66.3176 54.0324 66.6081 54.381C66.6081 54.381 66.6081 54.381 66.6662 54.4391C66.9568 54.7297 66.3176 53.1027 66.7243 53.0445C66.7243 53.0445 66.7243 53.8 66.8987 54.0905C67.073 54.381 66.7825 53.6837 67.0149 53.5094C67.1892 53.3351 66.8987 54.5554 67.1311 54.7878C67.2473 55.0202 67.0149 53.8 67.1311 53.6837ZM68.4676 54.7297C68.4676 54.7297 68.2352 53.0445 67.4216 53.2189L67.4216 53.277C67.4216 53.277 67.073 54.8459 67.4797 55.6013C67.4797 55.6013 67.1892 54.1486 67.596 53.4513C67.596 53.4513 67.4216 54.4391 67.596 54.8459C67.7703 55.2527 67.4216 53.8 67.7122 53.6837C67.7122 53.6837 67.6541 55.0783 67.9446 55.427C67.9446 55.427 67.9446 55.427 68.0027 55.4851C68.2933 55.7756 67.6541 54.1486 68.0608 54.0905C68.0608 54.0905 68.0608 54.8459 68.2352 55.1364C68.4095 55.427 68.1189 54.7297 68.3514 54.5554C68.5257 54.381 68.2352 55.6013 68.4676 55.8337C68.5257 56.0662 68.2933 54.8459 68.4676 54.7297ZM69.6879 55.7175C69.6879 55.7175 69.4554 54.0324 68.6419 54.2067L68.6419 54.2648C68.6419 54.2648 68.2933 55.8337 68.7 56.5891C68.7 56.5891 68.4095 55.1364 68.8162 54.4391C68.8162 54.4391 68.6419 55.427 68.8162 55.8337C68.9906 56.2405 68.6419 54.7878 68.9325 54.6716C68.9325 54.6716 68.8743 56.0662 69.1649 56.4148C69.1649 56.4148 69.1649 56.4148 69.223 56.4729C69.5135 56.7635 68.8743 55.1364 69.2811 55.0783C69.2811 55.0783 69.2811 55.8337 69.4554 56.1243C69.6297 56.4148 69.3392 55.7175 69.5716 55.5432C69.746 55.3689 69.4554 56.5891 69.6879 56.8216C69.8041 57.054 69.5716 55.8337 69.6879 55.7175Z" fill="#A65739"/>
</g>
</g>
<defs>
<filter id="filter0_dii_1_387" x="0.801727" y="0" width="104.397" height="96" filterUnits="userSpaceOnUse" color-interpolation-filters="sRGB">
<feFlood flood-opacity="0" result="BackgroundImageFix"/>
<feColorMatrix in="SourceAlpha" type="matrix" values="0 0 0 0 0 0 0 0 0 0 0 0 0 0 0 0 0 0 127 0" result="hardAlpha"/>
<feOffset dx="2" dy="2"/>
<feGaussianBlur stdDeviation="2"/>
<feColorMatrix type="matrix" values="0 0 0 0 0 0 0 0 0 0 0 0 0 0 0 0 0 0 0.25 0"/>
<feBlend mode="normal" in2="BackgroundImageFix" result="effect1_dropShadow_1_387"/>
<feBlend mode="normal" in="SourceGraphic" in2="effect1_dropShadow_1_387" result="shape"/>
<feColorMatrix in="SourceAlpha" type="matrix" values="0 0 0 0 0 0 0 0 0 0 0 0 0 0 0 0 0 0 127 0" result="hardAlpha"/>
<feOffset dx="5" dy="5"/>
<feGaussianBlur stdDeviation="1"/>
<feComposite in2="hardAlpha" operator="arithmetic" k2="-1" k3="1"/>
<feColorMatrix type="matrix" values="0 0 0 0 1 0 0 0 0 1 0 0 0 0 1 0 0 0 0.25 0"/>
<feBlend mode="normal" in2="shape" result="effect2_innerShadow_1_387"/>
<feColorMatrix in="SourceAlpha" type="matrix" values="0 0 0 0 0 0 0 0 0 0 0 0 0 0 0 0 0 0 127 0" result="hardAlpha"/>
<feOffset dx="-5" dy="-5"/>
<feGaussianBlur stdDeviation="1"/>
<feComposite in2="hardAlpha" operator="arithmetic" k2="-1" k3="1"/>
<feColorMatrix type="matrix" values="0 0 0 0 0 0 0 0 0 0 0 0 0 0 0 0 0 0 1 0"/>
<feBlend mode="normal" in2="effect2_innerShadow_1_387" result="effect3_innerShadow_1_387"/>
</filter>
<filter id="filter1_ii_1_387" x="29.2257" y="20.3347" width="44.5473" height="51.4402" filterUnits="userSpaceOnUse" color-interpolation-filters="sRGB">
<feFlood flood-opacity="0" result="BackgroundImageFix"/>
<feBlend mode="normal" in="SourceGraphic" in2="BackgroundImageFix" result="shape"/>
<feColorMatrix in="SourceAlpha" type="matrix" values="0 0 0 0 0 0 0 0 0 0 0 0 0 0 0 0 0 0 127 0" result="hardAlpha"/>
<feOffset dx="-0.779012" dy="-0.779012"/>
<feGaussianBlur stdDeviation="0.779012"/>
<feComposite in2="hardAlpha" operator="arithmetic" k2="-1" k3="1"/>
<feColorMatrix type="matrix" values="0 0 0 0 1 0 0 0 0 0.635417 0 0 0 0 0.533333 0 0 0 1 0"/>
<feBlend mode="normal" in2="shape" result="effect1_innerShadow_1_387"/>
<feColorMatrix in="SourceAlpha" type="matrix" values="0 0 0 0 0 0 0 0 0 0 0 0 0 0 0 0 0 0 127 0" result="hardAlpha"/>
<feOffset dx="0.779012" dy="0.779012"/>
<feGaussianBlur stdDeviation="0.779012"/>
<feComposite in2="hardAlpha" operator="arithmetic" k2="-1" k3="1"/>
<feColorMatrix type="matrix" values="0 0 0 0 0.258333 0 0 0 0 0.147331 0 0 0 0 0.11625 0 0 0 1 0"/>
<feBlend mode="normal" in2="effect1_innerShadow_1_387" result="effect2_innerShadow_1_387"/>
</filter>
<filter id="filter2_ii_1_387" x="31.8549" y="52.0422" width="6.01493" height="5.51801" filterUnits="userSpaceOnUse" color-interpolation-filters="sRGB">
<feFlood flood-opacity="0" result="BackgroundImageFix"/>
<feBlend mode="normal" in="SourceGraphic" in2="BackgroundImageFix" result="shape"/>
<feColorMatrix in="SourceAlpha" type="matrix" values="0 0 0 0 0 0 0 0 0 0 0 0 0 0 0 0 0 0 127 0" result="hardAlpha"/>
<feOffset dx="-0.779012" dy="-0.779012"/>
<feGaussianBlur stdDeviation="0.779012"/>
<feComposite in2="hardAlpha" operator="arithmetic" k2="-1" k3="1"/>
<feColorMatrix type="matrix" values="0 0 0 0 1 0 0 0 0 0.635417 0 0 0 0 0.533333 0 0 0 1 0"/>
<feBlend mode="normal" in2="shape" result="effect1_innerShadow_1_387"/>
<feColorMatrix in="SourceAlpha" type="matrix" values="0 0 0 0 0 0 0 0 0 0 0 0 0 0 0 0 0 0 127 0" result="hardAlpha"/>
<feOffset dx="0.779012" dy="0.779012"/>
<feGaussianBlur stdDeviation="0.779012"/>
<feComposite in2="hardAlpha" operator="arithmetic" k2="-1" k3="1"/>
<feColorMatrix type="matrix" values="0 0 0 0 0.258333 0 0 0 0 0.147331 0 0 0 0 0.11625 0 0 0 1 0"/>
<feBlend mode="normal" in2="effect1_innerShadow_1_387" result="effect2_innerShadow_1_387"/>
</filter>
<filter id="filter3_ii_1_387" x="30.5862" y="50.906" width="7.22392" height="4.67156" filterUnits="userSpaceOnUse" color-interpolation-filters="sRGB">
<feFlood flood-opacity="0" result="BackgroundImageFix"/>
<feBlend mode="normal" in="SourceGraphic" in2="BackgroundImageFix" result="shape"/>
<feColorMatrix in="SourceAlpha" type="matrix" values="0 0 0 0 0 0 0 0 0 0 0 0 0 0 0 0 0 0 127 0" result="hardAlpha"/>
<feOffset dx="-0.779012" dy="-0.779012"/>
<feGaussianBlur stdDeviation="0.779012"/>
<feComposite in2="hardAlpha" operator="arithmetic" k2="-1" k3="1"/>
<feColorMatrix type="matrix" values="0 0 0 0 1 0 0 0 0 0.635417 0 0 0 0 0.533333 0 0 0 1 0"/>
<feBlend mode="normal" in2="shape" result="effect1_innerShadow_1_387"/>
<feColorMatrix in="SourceAlpha" type="matrix" values="0 0 0 0 0 0 0 0 0 0 0 0 0 0 0 0 0 0 127 0" result="hardAlpha"/>
<feOffset dx="0.779012" dy="0.779012"/>
<feGaussianBlur stdDeviation="0.779012"/>
<feComposite in2="hardAlpha" operator="arithmetic" k2="-1" k3="1"/>
<feColorMatrix type="matrix" values="0 0 0 0 0.258333 0 0 0 0 0.147331 0 0 0 0 0.11625 0 0 0 1 0"/>
<feBlend mode="normal" in2="effect1_innerShadow_1_387" result="effect2_innerShadow_1_387"/>
</filter>
<filter id="filter4_ii_1_387" x="65.7114" y="50.7595" width="6.6443" height="5.0397" filterUnits="userSpaceOnUse" color-interpolation-filters="sRGB">
<feFlood flood-opacity="0" result="BackgroundImageFix"/>
<feBlend mode="normal" in="SourceGraphic" in2="BackgroundImageFix" result="shape"/>
<feColorMatrix in="SourceAlpha" type="matrix" values="0 0 0 0 0 0 0 0 0 0 0 0 0 0 0 0 0 0 127 0" result="hardAlpha"/>
<feOffset dx="-0.779012" dy="-0.779012"/>
<feGaussianBlur stdDeviation="0.779012"/>
<feComposite in2="hardAlpha" operator="arithmetic" k2="-1" k3="1"/>
<feColorMatrix type="matrix" values="0 0 0 0 1 0 0 0 0 0.635417 0 0 0 0 0.533333 0 0 0 1 0"/>
<feBlend mode="normal" in2="shape" result="effect1_innerShadow_1_387"/>
<feColorMatrix in="SourceAlpha" type="matrix" values="0 0 0 0 0 0 0 0 0 0 0 0 0 0 0 0 0 0 127 0" result="hardAlpha"/>
<feOffset dx="0.779012" dy="0.779012"/>
<feGaussianBlur stdDeviation="0.779012"/>
<feComposite in2="hardAlpha" operator="arithmetic" k2="-1" k3="1"/>
<feColorMatrix type="matrix" values="0 0 0 0 0.258333 0 0 0 0 0.147331 0 0 0 0 0.11625 0 0 0 1 0"/>
<feBlend mode="normal" in2="effect1_innerShadow_1_387" result="effect2_innerShadow_1_387"/>
</filter>
<filter id="filter5_ii_1_387" x="65.1671" y="51.3813" width="5.33335" height="6.24868" filterUnits="userSpaceOnUse" color-interpolation-filters="sRGB">
<feFlood flood-opacity="0" result="BackgroundImageFix"/>
<feBlend mode="normal" in="SourceGraphic" in2="BackgroundImageFix" result="shape"/>
<feColorMatrix in="SourceAlpha" type="matrix" values="0 0 0 0 0 0 0 0 0 0 0 0 0 0 0 0 0 0 127 0" result="hardAlpha"/>
<feOffset dx="-0.779012" dy="-0.779012"/>
<feGaussianBlur stdDeviation="0.779012"/>
<feComposite in2="hardAlpha" operator="arithmetic" k2="-1" k3="1"/>
<feColorMatrix type="matrix" values="0 0 0 0 1 0 0 0 0 0.635417 0 0 0 0 0.533333 0 0 0 1 0"/>
<feBlend mode="normal" in2="shape" result="effect1_innerShadow_1_387"/>
<feColorMatrix in="SourceAlpha" type="matrix" values="0 0 0 0 0 0 0 0 0 0 0 0 0 0 0 0 0 0 127 0" result="hardAlpha"/>
<feOffset dx="0.779012" dy="0.779012"/>
<feGaussianBlur stdDeviation="0.779012"/>
<feComposite in2="hardAlpha" operator="arithmetic" k2="-1" k3="1"/>
<feColorMatrix type="matrix" values="0 0 0 0 0.258333 0 0 0 0 0.147331 0 0 0 0 0.11625 0 0 0 1 0"/>
<feBlend mode="normal" in2="effect1_innerShadow_1_387" result="effect2_innerShadow_1_387"/>
</filter>
<linearGradient id="paint0_linear_1_387" x1="51.4993" y1="70.996" x2="52" y2="21" gradientUnits="userSpaceOnUse">
<stop stop-color="#A65739"/>
<stop offset="1" stop-color="#D1876B"/>
</linearGradient>
<clipPath id="clip0_1_387">
<rect width="43" height="49.8568" fill="white" transform="translate(73 71) rotate(-180)"/>
</clipPath>
</defs>
</svg>
